<svg enable-background="new 0 0 697.7 119.5" viewBox="0 0 697.7 119.5" xmlns="http://www.w3.org/2000/svg"><g fill="#00a6c4"><path d="m399.6 64.3v22.6c-6.2 4.7-15.4 8-23.8 8-18.1 0-32.2-13.6-32.2-31.1s14.3-30.9 32.9-30.9c8.8 0 17.5 3.3 23.6 8.6l-5.9 7.6c-4.7-4.4-11.3-7-17.7-7-12.5 0-22.3 9.5-22.3 21.7 0 12.3 9.9 21.8 22.4 21.8 4.6 0 9.7-1.6 14.1-4.2v-17.1z"/><path d="m461.2 94.4-32.7-44v44h-10.3v-61.3h10.2l32.9 44.1v-44.1h10.2v61.3z"/><path d="m551.4 63.7c0 17.5-14.2 31.1-32.5 31.1s-32.5-13.6-32.5-31.1c0-17.6 14.2-30.9 32.5-30.9 18.4 0 32.5 13.4 32.5 30.9zm-54.5 0c0 12.2 10.1 21.8 22.1 21.8s21.8-9.6 21.8-21.8-9.8-21.6-21.8-21.6c-12.1 0-22.1 9.5-22.1 21.6z"/><path d="m608.1 38.9-4.3 9.1c-6.7-4-13.3-5.7-18-5.7-6 0-10 2.3-10 6.4 0 13.4 33.1 6.2 33 28.3 0 11-9.6 17.7-23.1 17.7-9.6 0-18.7-3.9-25.1-9.7l4.5-8.9c6.3 5.8 14.2 8.9 20.8 8.9 7.2 0 11.5-2.7 11.5-7.4 0-13.7-33.1-6-33.1-27.9 0-10.5 9-17.1 22.3-17.1 8 0 15.8 2.6 21.5 6.3z"/><path d="m624.9 94.4v-61.3h10.3v61.3z"/><path d="m696.9 38.9-4.3 9.1c-6.7-4-13.3-5.7-18-5.7-6 0-10 2.3-10 6.4 0 13.4 33.1 6.2 33 28.3 0 11-9.6 17.7-23.1 17.7-9.6 0-18.7-3.9-25.1-9.7l4.5-8.9c6.3 5.8 14.2 8.9 20.8 8.9 7.2 0 11.5-2.7 11.5-7.4 0-13.7-33.1-6-33.1-27.9 0-10.5 9-17.1 22.3-17.1 8 0 15.8 2.6 21.5 6.3z"/><path d="m200.7 29.9-4.4 4.4c3.5 5.5 4.6 12.4 2.2 19-4 11.2-16.4 17.1-27.7 13.1-1.6-.6-3.1-1.3-4.4-2.2l-14.1 14.1-12.3-12.4c-5.7 3.8-13 4.9-19.9 2.5-11.6-4.2-17.6-16.9-13.4-28.4.6-1.8 1.5-3.4 2.5-4.9l-5.3-5.3-1 1.7c-5.5 9-8.5 19.4-8.5 30.1-.1 31.9 25.9 58 57.8 58h.1c31.9 0 57.8-25.9 57.9-57.8 0-10.6-2.9-21-8.4-30.1z"/><path d="m115.7 41.6c-1.5 2-2.4 4.5-2.4 7.2 0 6.5 5.3 11.8 11.8 11.8 2.7 0 5.2-.9 7.2-2.5z"/><path d="m173.6 57.1c1.9 1.3 4.1 2 6.6 2 6.5 0 11.8-5.3 11.8-11.8 0-2.4-.7-4.7-2-6.6z"/><path d="m152.5 69.5-47.8-48 1.9-2c11.8-12.5 27.9-19.5 45.2-19.5h.1c17.5 0 34.3 7.5 46 20.5l1.8 2zm-40-48 40 40.1 39.5-39.3c-10.6-10.6-25-16.7-40-16.7h-.1c-14.9 0-28.8 5.6-39.4 15.9z"/><path d="m99.8 100.4-5.6-.4c-23.8-1.5-56.6-7.4-77.8-26.5-13.1-11.7-15.6-22.8-15.7-23.3l-.7-3.4h86.6l-.5 3.2c-.4 2.9-.6 5.9-.6 8.8 0 13.2 3.8 26 11.1 36.9z"/><path d="m204.6 100.4 3.1-4.7c7.3-10.9 11.1-23.6 11.1-36.7 0-3-.2-6.1-.6-9l-.4-3.2h86.6l-.7 3.4c-.1.5-2.6 11.6-15.6 23.3-21.2 19.1-54.1 25-77.9 26.5z"/></g></svg>