<?xml version="1.0" encoding="utf-8"?>
<!-- Generator: Adobe Illustrator 21.1.0, SVG Export Plug-In . SVG Version: 6.00 Build 0)  -->
<svg version="1.1" id="Isolation_Mode" xmlns="http://www.w3.org/2000/svg" xmlns:xlink="http://www.w3.org/1999/xlink" x="0px"
	 y="0px" viewBox="0 0 304.4 119.5" style="enable-background:new 0 0 304.4 119.5;" xml:space="preserve">
<style type="text/css">
	.st0{fill:#00A6C4;}
</style>
<g>
	<g>
		<path class="st0" d="M200.7,29.9l-4.4,4.4c3.5,5.5,4.6,12.4,2.2,19c-4,11.2-16.4,17.1-27.7,13.1c-1.6-0.6-3.1-1.3-4.4-2.2
			l-14.1,14.1L140,65.9c-5.7,3.8-13,4.9-19.9,2.5c-11.6-4.2-17.6-16.9-13.4-28.4c0.6-1.8,1.5-3.4,2.5-4.9l-5.3-5.3l-1,1.7
			c-5.5,9-8.5,19.4-8.5,30.1c-0.1,31.9,25.9,58,57.8,58h0.1c31.9,0,57.8-25.9,57.9-57.8c0-10.6-2.9-21-8.4-30.1L200.7,29.9z"/>
		<path class="st0" d="M115.7,41.6c-1.5,2-2.4,4.5-2.4,7.2c0,6.5,5.3,11.8,11.8,11.8c2.7,0,5.2-0.9,7.2-2.5L115.7,41.6z"/>
		<g>
			<path class="st0" d="M173.6,57.1c1.9,1.3,4.1,2,6.6,2c6.5,0,11.8-5.3,11.8-11.8c0-2.4-0.7-4.7-2-6.6L173.6,57.1z"/>
		</g>
		<g>
			<path class="st0" d="M152.5,69.5l-47.8-48l1.9-2C118.4,7,134.5,0,151.8,0h0.1c17.5,0,34.3,7.5,46,20.5l1.8,2L152.5,69.5z
				 M112.5,21.5l40,40.1L192,22.3c-10.6-10.6-25-16.7-40-16.7h-0.1C137,5.6,123.1,11.2,112.5,21.5z"/>
		</g>
		<g>
			<g>
				<path class="st0" d="M99.8,100.4l-5.6-0.4c-23.8-1.5-56.6-7.4-77.8-26.5C3.3,61.8,0.8,50.7,0.7,50.2L0,46.8h86.6L86.1,50
					c-0.4,2.9-0.6,5.9-0.6,8.8c0,13.2,3.8,26,11.1,36.9L99.8,100.4z"/>
			</g>
			<g>
				<path class="st0" d="M204.6,100.4l3.1-4.7c7.3-10.9,11.1-23.6,11.1-36.7c0-3-0.2-6.1-0.6-9l-0.4-3.2h86.6l-0.7,3.4
					c-0.1,0.5-2.6,11.6-15.6,23.3c-21.2,19.1-54.1,25-77.9,26.5L204.6,100.4z"/>
			</g>
		</g>
	</g>
</g>
</svg>
