<?xml version="1.0" encoding="utf-8"?>
<!-- Generator: Adobe Illustrator 21.1.0, SVG Export Plug-In . SVG Version: 6.00 Build 0)  -->
<svg version="1.1" id="Ebene_3" xmlns="http://www.w3.org/2000/svg" xmlns:xlink="http://www.w3.org/1999/xlink" x="0px" y="0px"
	 viewBox="0 0 50 50" style="enable-background:new 0 0 50 50;" xml:space="preserve">
<g>
	<path d="M33.6,27.5c-2.3,1.4-5.3,2.2-8.6,2.2s-6.3-0.8-8.6-2.2c-2.1-1.3-3.3-3-3.3-4.8c0-1.8,1.2-3.5,3.3-4.8
		c2.3-1.4,5.3-2.2,8.6-2.2c3.2,0,6.3,0.8,8.6,2.2c2.1,1.3,3.3,3,3.3,4.8C36.9,24.5,35.7,26.2,33.6,27.5L33.6,27.5z M36.9,27.2
		c0,1.8-1.2,3.5-3.3,4.8c-2.3,1.4-5.3,2.2-8.6,2.2c-3.2,0-6.3-0.8-8.6-2.2c-2.1-1.3-3.3-3-3.3-4.8V27c0.6,0.7,1.5,1.4,2.4,2
		c2.5,1.6,5.9,2.4,9.4,2.4c3.6,0,6.9-0.9,9.4-2.4c1-0.6,1.8-1.3,2.4-2V27.2z M34.4,16.5c-2.5-1.6-5.9-2.4-9.4-2.4
		c-3.6,0-6.9,0.9-9.4,2.4c-2.6,1.6-4,3.7-4.1,5.9v4.8c0,2.4,1.5,4.6,4.1,6.2c2.5,1.6,5.9,2.4,9.4,2.4c3.6,0,6.9-0.9,9.4-2.4
		c2.7-1.6,4.1-3.8,4.1-6.2v-4.6C38.6,20.3,37.1,18.1,34.4,16.5L34.4,16.5z"/>
</g>
</svg>
