<svg enable-background="new 0 0 1077 881" viewBox="0 0 1077 881" xmlns="http://www.w3.org/2000/svg"><path d="m343 282-20 58 10 60-7 5 13 10-10 6 12 11-8 6 17 19-29 86 23 84 88-29 52 26 59 1 47-28 85 28 23-84-27-84 16-19-10-6 12-10-8-7 12-9-8-5 11-62-18-53-117 46h-101z"/><path d="m483 389-56 48-77 20-17-19 8-6-12-11 10-6-13-10 7-5-10-60 20-58z"/><path d="m539 389 139-103 18 51-11 64 8 5-12 9 8 7-12 10 10 6-16 19-78-21z"/><path d="m483 512-44-11 29-14z"/><path d="m544 512 39-11-28-14z"/><path d="m494 556h41l8 5 4 33-3-3h-57l-4 4 3-34z"/><path d="m696.5 541.5-111-5-38 23c-5 3-10 6-10 6"/><path d="m488.5 565.5s-5-3-10-6l-38-23-111 5-9 1"/></svg>