<?xml version="1.0" encoding="utf-8"?>
<!-- Generator: Adobe Illustrator 21.1.0, SVG Export Plug-In . SVG Version: 6.00 Build 0)  -->
<svg version="1.1" id="Ebene_1" xmlns="http://www.w3.org/2000/svg" xmlns:xlink="http://www.w3.org/1999/xlink" x="0px" y="0px"
	 viewBox="0 0 50 50" style="enable-background:new 0 0 50 50;" xml:space="preserve">
<style type="text/css">
	.st0{fill:#010101;}
</style>
<g>
	<path class="st0" d="M26.6,9c-0.2-0.7-0.8-1.2-1.6-1.2c-0.9,0-1.7,0.8-1.7,1.7s0.8,1.7,1.7,1.7c0.7,0,1.3-0.5,1.6-1.1
		c7.9,0.8,14,7.5,14,15.5c0,8.6-7,15.6-15.6,15.6s-15.6-7-15.6-15.6c0-0.3-0.2-0.5-0.5-0.5s-0.5,0.2-0.5,0.5
		c0,9.1,7.4,16.6,16.6,16.6s16.6-7.4,16.6-16.6C41.6,17,35,9.8,26.6,9z M25,10.2c-0.4,0-0.7-0.3-0.7-0.7s0.3-0.7,0.7-0.7
		s0.7,0.3,0.7,0.7S25.4,10.2,25,10.2z"/>
	<path class="st0" d="M25,23.8c-0.9,0-1.7,0.8-1.7,1.7s0.8,1.7,1.7,1.7s1.7-0.8,1.7-1.7S25.9,23.8,25,23.8z M25,26.2
		c-0.4,0-0.7-0.3-0.7-0.7s0.3-0.7,0.7-0.7s0.7,0.3,0.7,0.7S25.4,26.2,25,26.2z"/>
	<path class="st0" d="M27.3,23.9l6.9-6.9c0.2-0.2,0.2-0.5,0-0.7s-0.5-0.2-0.7,0l-6.9,6.9c-0.2,0.2-0.2,0.5,0,0.7
		C26.7,24,26.8,24,27,24S27.2,24,27.3,23.9z"/>
</g>
</svg>
