<svg enable-background="new 0 0 50 50" viewBox="0 0 50 50" xmlns="http://www.w3.org/2000/svg"><g transform="translate(0 -952.36218)"><path d="m15.2 994.2c-.3 0-.5-.2-.5-.5v-5.3c0-.3.2-.5.4-.5h9.3v-23.7c-1.9 1.2-3.7 1.8-5.7 1.8s-4-.4-6.1-1l4.9 11.4v.2c0 3.2-2.6 5.8-5.8 5.8s-5.8-2.6-5.8-5.8c0-.1 0-.1 0-.2l5.3-12.4c.1-.2.3-.3.5-.3h.2c2.2.9 4.4 1.3 6.9 1.3 2 0 3.8-.6 5.7-2v-1.9c0-.3.2-.5.5-.5.4 0 .6.3.6.5v2c1.8 1.3 3.7 1.9 5.7 1.9 2.4 0 4.7-.4 6.9-1.3h.2c.2 0 .4.1.5.3l5.3 12.4v.2c0 3.2-2.6 5.8-5.8 5.8s-5.8-2.6-5.8-5.8c0-.1 0-.1 0-.2l4.9-11.4c-2.1.7-4.2 1-6.1 1-2 0-3.8-.6-5.7-1.8v23.7h9.2c.3 0 .5.2.5.5v5.3c0 .3-.2.5-.5.5zm18.9-1.1v-4.2h-18.3v4.2zm-.6-16.2c.3 2.4 2.3 4.2 4.7 4.2 2.6 0 4.7-2.1 4.8-4.7l-4.8-11.1-4.5 10.5h8c.3 0 .5.2.5.5s-.2.5-.5.5h-8.2zm-26.5 0c.3 2.4 2.3 4.2 4.7 4.2 2.6 0 4.7-2.1 4.8-4.7l-4.8-11.1-4.5 10.5h8c.3 0 .5.2.5.5s-.2.5-.5.5h-8.2z"/><path d="m24.9 960.5c-.2 0-.4.2-.4.5v2c-1.8 1.3-3.6 2-5.7 2s-4.4-.3-6.9-1.3c-.2-.1-.5 0-.6.2l-5.3 12.3v.2c0 3.2 2.6 5.7 5.7 5.7s5.7-2.6 5.7-5.7c0-.1 0-.1 0-.2l-4.9-11.5c2.2.8 4.3 1.1 6.3 1.1 2.1 0 4-.7 5.7-1.8v23.9h-9.3-.1c-.2 0-.4.2-.4.4v5.3c0 .2.2.4.4.4h19.4c.2 0 .4-.2.4-.4v-5.3c0-.2-.2-.4-.4-.4h-9.3v-23.9c1.7 1.1 3.6 1.8 5.7 1.8 1.9 0 4.1-.4 6.3-1.1l-4.9 11.5v.2c0 3.2 2.6 5.7 5.7 5.7 3.2 0 5.7-2.6 5.7-5.7 0-.1 0-.1 0-.2l-5.3-12.4c-.1-.2-.3-.3-.6-.2-2.5 1-4.8 1.3-6.9 1.3s-4-.7-5.7-2v-2c.2-.2 0-.4-.3-.4zm-13.2 4.6 4.8 11.3c0 2.7-2.2 4.8-4.8 4.8-2.5 0-4.6-1.9-4.8-4.4h8.4c.2 0 .4-.2.4-.4s-.2-.4-.4-.4h-8.2zm26.5 0 4.8 11.3c0 2.7-2.2 4.8-4.8 4.8-2.5 0-4.6-1.9-4.8-4.4h8.4c.2 0 .4-.2.4-.4s-.2-.4-.4-.4h-8.2zm-22.5 23.7h18.6v4.4h-18.6z"/></g></svg>