<?xml version="1.0" encoding="utf-8"?>
<!-- Generator: Adobe Illustrator 21.1.0, SVG Export Plug-In . SVG Version: 6.00 Build 0)  -->
<svg version="1.1" id="Ebene_2" xmlns="http://www.w3.org/2000/svg" xmlns:xlink="http://www.w3.org/1999/xlink" x="0px" y="0px"
	 viewBox="0 0 50 50" style="enable-background:new 0 0 50 50;" xml:space="preserve">
<g>
	<g>
		<path d="M25.1,42.6c-0.1,0-0.2,0-0.3-0.1c-0.1-0.1-0.1-0.2-0.1-0.3L24.7,39c0-0.1,0-0.2,0.1-0.3c0.1-0.1,0.2-0.1,0.3-0.1l0.3,0
			c0.1,0,0.2,0.1,0.3,0.1c0.1,0.1,0.1,0.2,0.1,0.3l0.1,3.2c0,0.2-0.2,0.4-0.4,0.4L25.1,42.6L25.1,42.6z"/>
		<path d="M25.4,38.9C25.4,38.8,25.4,38.8,25.4,38.9l-0.2,0c-0.1,0-0.1,0-0.2,0c0,0-0.1,0-0.1,0c0,0,0,0.1,0,0.1l0.1,3.2
			c0,0,0,0.1,0,0.1c0,0,0.1,0,0.1,0c0,0,0,0,0,0l0.3,0c0.1,0,0.1-0.1,0.1-0.1L25.4,38.9C25.5,38.9,25.5,38.9,25.4,38.9z"/>
		<path d="M24.5,12.3l-0.2-0.1c-0.1-0.1-0.1-0.2-0.1-0.3l-0.1-3.1c0-0.2,0.2-0.4,0.4-0.4l0.3,0c0.1,0,0.2,0,0.3,0.1
			c0.1,0.1,0.1,0.2,0.1,0.3l0,3.1c0,0.1,0,0.2-0.1,0.3c-0.1,0.1-0.2,0.1-0.3,0.1l-0.3,0H24.5z"/>
		<path d="M25,11.9L25,8.8c0,0,0-0.1,0-0.1c0,0-0.1,0-0.1,0c0,0,0,0,0,0l-0.3,0c-0.1,0-0.1,0.1-0.1,0.1l0.1,3.1c0,0,0,0.1,0,0.1
			c0,0,0.1,0,0.1,0c0,0,0,0,0,0l0.1,0c0.1,0,0.1,0,0.2,0C24.9,12,25,12,25,11.9C25,12,25,11.9,25,11.9z"/>
		<path d="M29.6,13.1L29.6,13.1l-0.2-0.1l0-0.3L29.2,13c-0.1,0-0.2-0.1-0.2-0.2c0-0.1-0.1-0.2,0-0.3l1-2.9c0-0.1,0.1-0.2,0.2-0.2
			l0.1,0l0.1,0c0,0,0.1,0,0.1,0l0.3,0.1C31,9.5,31.1,9.7,31,9.9l-1,2.9c0,0.1-0.1,0.2-0.2,0.2l-0.1,0L29.6,13.1L29.6,13.1z"/>
		<path d="M29.6,12.8C29.6,12.8,29.6,12.8,29.6,12.8c0.1,0,0.1,0,0.1,0c0,0,0.1,0,0.1-0.1l1-2.9c0-0.1,0-0.1-0.1-0.2l-0.2-0.1
			c0,0-0.1,0-0.1,0c0,0-0.1,0-0.1,0.1l-1,2.9c0,0,0,0.1,0,0.1c0,0,0,0.1,0.1,0.1l0.1,0C29.5,12.8,29.5,12.8,29.6,12.8z"/>
		<path d="M19.6,41.7L19.6,41.7l-0.3-0.1c-0.2-0.1-0.3-0.3-0.3-0.5l1.1-3c0-0.1,0.1-0.2,0.2-0.2l0.1,0l0.1,0c0,0,0.1,0,0.1,0
			l0.2,0.1c0.2,0.1,0.3,0.1,0.3,0.2c0,0.1,0.1,0.2,0,0.3l-1.1,3c0,0.1-0.1,0.2-0.2,0.2l-0.1,0L19.6,41.7L19.6,41.7z"/>
		<path d="M20.7,38.1L20.7,38.1c-0.1,0-0.2-0.1-0.2-0.1c0,0-0.1,0-0.1,0c0,0-0.1,0-0.1,0.1l-1.1,3c0,0.1,0,0.1,0.1,0.2l0.2,0.1
			c0,0,0,0,0,0c0,0,0,0,0.1,0c0,0,0.1,0,0.1-0.1l1.1-3C20.8,38.3,20.8,38.2,20.7,38.1C20.8,38.2,20.8,38.1,20.7,38.1z"/>
		<path d="M30.6,41.6l-0.1,0c-0.1-0.1-0.2-0.1-0.2-0.2l-1.1-3c0-0.1,0-0.2,0-0.3c0-0.1,0.1-0.2,0.2-0.2l0.2-0.1c0.1,0,0.1,0,0.2,0
			h0.1l0.1,0c0.1,0,0.2,0.1,0.2,0.2l1.1,3c0,0.1,0,0.2,0,0.3c0,0.1-0.1,0.2-0.2,0.2l-0.3,0.1L30.6,41.6L30.6,41.6z"/>
		<path d="M29.9,38C29.9,38,29.9,38,29.9,38C29.8,38,29.8,38,29.7,38c-0.1,0-0.2,0.1-0.2,0.1c0,0-0.1,0-0.1,0.1c0,0,0,0.1,0,0.1
			l1.1,3c0,0,0,0.1,0.1,0.1c0,0,0,0,0.1,0c0,0,0,0,0,0l0.2-0.1c0.1,0,0.1-0.1,0.1-0.2L29.9,38z"/>
		<path d="M20.1,13.2l-0.1,0c-0.1,0-0.2-0.1-0.2-0.2L18.7,10c-0.1-0.2,0-0.5,0.2-0.5l0.3-0.1l0.1,0c0.1,0,0.1,0,0.2,0
			c0.1,0.1,0.2,0.1,0.2,0.2l1.1,2.9c0,0.1,0,0.2,0,0.3c0,0.1-0.1,0.2-0.2,0.2l-0.2,0.1C20.3,13.2,20.2,13.2,20.1,13.2L20.1,13.2z"/>
		<path d="M20.1,12.9C20.1,12.9,20.2,12.9,20.1,12.9c0.1,0,0.1,0,0.1,0l0.1,0c0.1,0,0.1,0,0.2-0.1c0,0,0.1,0,0.1-0.1
			c0,0,0-0.1,0-0.1l-1.1-2.9c0,0,0-0.1-0.1-0.1c0,0-0.1,0-0.1,0l-0.2,0.1C19,9.8,19,9.9,19,9.9L20.1,12.9
			C20.1,12.9,20.1,12.9,20.1,12.9z"/>
		<path d="M35.6,38.8c-0.1,0-0.2-0.1-0.3-0.2l-2.1-2.5c-0.1-0.1-0.1-0.2-0.1-0.3c0-0.1,0.1-0.2,0.2-0.3l0.3-0.2l0.2,0
			c0.1,0,0.2,0.1,0.3,0.1l2.1,2.5c0.1,0.1,0.1,0.2,0.1,0.3c0,0.1-0.1,0.2-0.1,0.3l-0.3,0.2L35.6,38.8z"/>
		<path d="M33.8,35.7C33.8,35.7,33.8,35.7,33.8,35.7c-0.1-0.1-0.2,0-0.2,0c-0.1,0.1-0.1,0.1-0.2,0.2c0,0,0,0.1,0,0.1
			c0,0,0,0.1,0,0.1l2.1,2.5c0,0,0.1,0,0.1,0c0,0,0.1,0,0.1,0l0.2-0.2c0,0,0-0.1,0-0.1c0,0,0-0.1,0-0.1L33.8,35.7z"/>
		<path d="M16.2,15.6c-0.1,0-0.2-0.1-0.3-0.1l-2-2.4c-0.1-0.1-0.1-0.2-0.1-0.3c0-0.1,0.1-0.2,0.1-0.3l0.3-0.2l0.2,0
			c0.1,0,0.2,0.1,0.3,0.2l2,2.4c0.1,0.1,0.1,0.2,0.1,0.3c0,0.1-0.1,0.2-0.2,0.3l-0.3,0.2L16.2,15.6L16.2,15.6z"/>
		<path d="M16.1,15.2C16.1,15.3,16.2,15.3,16.1,15.2c0.1,0,0.1,0,0.1,0c0,0,0.1,0,0.1,0l0.1-0.1c0,0,0.1-0.1,0.1-0.1
			c0,0,0-0.1,0-0.1s0-0.1,0-0.1l-2-2.4c0-0.1-0.1-0.1-0.2,0l-0.2,0.2c0,0,0,0.1,0,0.1c0,0,0,0.1,0,0.1L16.1,15.2z"/>
		<path d="M13.1,19.3L13,19.2l-2.7-1.6c-0.1-0.1-0.2-0.1-0.2-0.2c0-0.1,0-0.2,0-0.3l0.1-0.2c0.1-0.1,0.2-0.2,0.4-0.2h0.1l0.1,0.1
			l2.7,1.6c0.1,0.1,0.2,0.1,0.2,0.3c0,0.1,0,0.2,0,0.3L13.5,19c-0.1,0.1-0.1,0.2-0.3,0.2l0,0L13.1,19.3L13.1,19.3z"/>
		<path d="M10.4,17.4l2.7,1.6c0,0,0,0,0.1,0c0,0,0,0,0,0c0,0,0.1,0,0.1-0.1c0-0.1,0.1-0.2,0.1-0.2c0,0,0-0.1,0-0.1
			c0,0,0-0.1-0.1-0.1l-2.7-1.6c-0.1,0-0.1,0-0.2,0l-0.1,0.2C10.3,17.2,10.3,17.3,10.4,17.4C10.4,17.4,10.4,17.4,10.4,17.4z"/>
		<path d="M39.3,34.4l-0.1-0.1l-2.8-1.6c-0.1-0.1-0.2-0.1-0.2-0.3c0-0.1,0-0.2,0-0.3l0.1-0.1l0.3,0l-0.2-0.1
			c0.1-0.1,0.1-0.2,0.2-0.2l0,0l0.1,0c0.1,0,0.1,0,0.2,0.1l2.8,1.6c0.1,0.1,0.2,0.1,0.2,0.3c0,0.1,0,0.2,0,0.3l-0.1,0.2
			C39.7,34.3,39.5,34.4,39.3,34.4L39.3,34.4z"/>
		<path d="M39.6,33.6L36.8,32c0,0-0.1,0-0.1,0c0,0-0.1,0-0.1,0.1l0,0.1c0,0.1-0.1,0.1-0.1,0.2c0,0,0,0.1,0,0.1c0,0,0,0.1,0.1,0.1
			l2.8,1.6c0,0,0,0,0.1,0c0,0,0.1,0,0.1-0.1l0.1-0.2C39.7,33.8,39.7,33.7,39.6,33.6C39.6,33.7,39.6,33.6,39.6,33.6z"/>
		<path d="M14.3,38.8l-0.2-0.1L14,38.6c-0.1-0.1-0.1-0.2-0.1-0.3c0-0.1,0-0.2,0.1-0.3l2.1-2.5c0.1-0.1,0.2-0.1,0.3-0.1c0,0,0,0,0,0
			c0.1,0,0.2,0,0.3,0.1l0.2,0.2c0.1,0.1,0.1,0.2,0.2,0.3c0,0.1,0,0.2-0.1,0.3l-2.1,2.5c-0.1,0.1-0.2,0.1-0.3,0.1H14.3z"/>
		<path d="M16.4,35.7C16.3,35.7,16.3,35.6,16.4,35.7c-0.1,0-0.2,0-0.2,0l-2.1,2.5c0,0,0,0.1,0,0.1c0,0,0,0.1,0,0.1l0.2,0.2
			c0,0,0.1,0,0.1,0c0,0,0.1,0,0.1,0l2.1-2.5c0,0,0-0.1,0-0.1c0,0,0-0.1,0-0.1C16.5,35.8,16.4,35.7,16.4,35.7z"/>
		<path d="M33.7,15.6l-0.2-0.1l-0.2-0.2c-0.1-0.1-0.1-0.2-0.2-0.3c0-0.1,0-0.2,0.1-0.3l2-2.4c0.1-0.1,0.2-0.1,0.3-0.1h0.1l0.2,0.1
			l0.2,0.2c0.1,0.1,0.1,0.2,0.1,0.3c0,0.1,0,0.2-0.1,0.3l-2,2.4c-0.1,0.1-0.2,0.1-0.3,0.1l0,0H33.7z"/>
		<path d="M35.7,12.5c-0.1,0-0.1,0-0.2,0l-2,2.4c0,0,0,0.1,0,0.1s0,0.1,0,0.1c0,0,0.1,0.1,0.1,0.1l0.1,0.1c0,0,0.1,0,0.1,0
			c0,0,0,0,0,0c0,0,0.1,0,0.1,0l2-2.4c0,0,0-0.1,0-0.1c0,0,0-0.1,0-0.1L35.7,12.5z"/>
		<path d="M36.8,19.3L36.8,19.3c-0.2,0-0.3-0.1-0.3-0.2l-0.1-0.2c-0.1-0.1-0.1-0.2-0.1-0.4c0-0.1,0.1-0.2,0.2-0.3l2.8-1.6l0.1,0
			c0.1,0,0.3,0.1,0.4,0.2l0.1,0.2c0.1,0.1,0.1,0.2,0,0.3c0,0.1-0.1,0.2-0.2,0.3L37,19.2L36.8,19.3L36.8,19.3z"/>
		<path d="M36.7,18.9C36.7,18.9,36.7,19,36.7,18.9c0.1,0.1,0.1,0.1,0.1,0.1c0,0,0,0,0.1,0l2.7-1.6c0,0,0.1,0,0.1-0.1
			c0,0,0-0.1,0-0.1L39.5,17c0-0.1-0.1-0.1-0.2,0l-2.7,1.6c0,0-0.1,0-0.1,0.1c0,0,0,0.1,0,0.1C36.6,18.8,36.7,18.8,36.7,18.9z"/>
		<path d="M10.6,34.4c-0.1,0-0.3-0.1-0.4-0.2l-0.1-0.2c-0.1-0.1-0.1-0.2,0-0.3c0-0.1,0.1-0.2,0.2-0.3l2.8-1.6l0.1,0c0,0,0.1,0,0.1,0
			c0.1,0,0.2,0.1,0.3,0.2l0.1,0.2c0.1,0.1,0.1,0.2,0,0.3c0,0.1-0.1,0.2-0.2,0.3l-2.8,1.6L10.6,34.4z"/>
		<path d="M13.4,32.1L13.4,32.1C13.3,32,13.3,32,13.3,32c0,0-0.1,0-0.1,0l-2.8,1.6c0,0-0.1,0-0.1,0.1c0,0,0,0.1,0,0.1l0.1,0.2
			c0,0,0.1,0.1,0.1,0.1c0,0,0,0,0.1,0l2.8-1.6c0,0,0.1,0,0.1-0.1c0,0,0-0.1,0-0.1C13.5,32.2,13.4,32.2,13.4,32.1z"/>
		<path d="M8.6,28.9c-0.2,0-0.4-0.1-0.4-0.3l0-0.3c0-0.1,0-0.2,0.1-0.3c0.1-0.1,0.2-0.2,0.3-0.2l3.1-0.5c0,0,0,0,0,0
			c0.1,0,0.2,0,0.3,0.1c0.1,0.1,0.1,0.2,0.2,0.3l0,0.3c0,0.1,0,0.2-0.1,0.3c-0.1,0.1-0.2,0.2-0.3,0.2L8.6,28.9L8.6,28.9z"/>
		<path d="M11.8,28C11.8,28,11.8,28,11.8,28c0-0.2,0-0.3,0-0.4c0,0,0-0.1-0.1-0.1c0,0-0.1,0-0.1,0l-3.1,0.5c0,0-0.1,0-0.1,0.1
			c0,0,0,0.1,0,0.1l0,0.3c0,0.1,0.1,0.1,0.1,0.1c0,0,0,0,0,0L11.8,28C11.8,28.1,11.8,28,11.8,28z"/>
		<path d="M38.3,23.7l-0.2-0.1C38,23.6,38,23.5,38,23.4l0-0.2c0-0.2,0-0.3,0.1-0.4c0.1-0.1,0.2-0.1,0.3-0.2c0,0,3.1-0.5,3.1-0.5
			c0.3,0,0.4,0.1,0.5,0.3l0,0.3c0,0.1,0,0.2-0.1,0.3c-0.1,0.1-0.2,0.2-0.3,0.2l-3.1,0.5L38.3,23.7L38.3,23.7z"/>
		<path d="M38.2,23C38.2,23,38.2,23,38.2,23l0,0.2c0,0.1,0,0.1,0,0.2c0,0,0,0.1,0.1,0.1c0,0,0,0,0.1,0c0,0,0,0,0,0l3.1-0.5
			c0,0,0.1,0,0.1-0.1c0,0,0-0.1,0-0.1l0-0.3c0-0.1-0.1-0.1-0.2-0.1L38.2,23C38.3,22.9,38.2,23,38.2,23z"/>
		<path d="M11.6,23.7l-3.1-0.5c-0.1,0-0.2-0.1-0.3-0.2c-0.1-0.1-0.1-0.2-0.1-0.3l0-0.3c0-0.2,0.2-0.3,0.4-0.3l3.2,0.5
			c0.1,0,0.2,0.1,0.3,0.2c0.1,0.1,0.1,0.2,0.1,0.3l-0.3,0.1l0.3,0.1l0,0.1c0,0.1-0.1,0.2-0.2,0.3l-0.1,0.1L11.6,23.7L11.6,23.7z"/>
		<path d="M8.5,22.9l3.1,0.5c0,0,0,0,0,0c0,0,0.1,0,0.1,0c0,0,0-0.1,0.1-0.1c0-0.1,0-0.1,0-0.2l0-0.1c0,0,0-0.1,0-0.1
			c0,0-0.1,0-0.1-0.1l-3.1-0.5c-0.1,0-0.1,0-0.2,0.1l0,0.3C8.4,22.8,8.4,22.8,8.5,22.9C8.4,22.9,8.5,22.9,8.5,22.9z"/>
		<path d="M41.4,28.9l-3.2-0.5c-0.1,0-0.2-0.1-0.3-0.2c-0.1-0.1-0.1-0.2-0.1-0.3l0-0.2c0-0.1,0.1-0.2,0.2-0.3l0.1-0.1l0.2,0l3.2,0.5
			c0.1,0,0.2,0.1,0.3,0.2c0.1,0.1,0.1,0.2,0.1,0.3l0,0.3C41.8,28.8,41.6,28.9,41.4,28.9L41.4,28.9z"/>
		<path d="M41.5,28.1l-3.1-0.5c0,0-0.1,0-0.1,0c0,0,0,0.1-0.1,0.1c0,0.1,0,0.2,0,0.3c0,0,0,0.1,0,0.1c0,0,0.1,0,0.1,0.1l3.1,0.5
			c0,0,0,0,0,0c0.1,0,0.1,0,0.1-0.1l0-0.3C41.6,28.2,41.6,28.2,41.5,28.1C41.6,28.1,41.5,28.1,41.5,28.1z"/>
	</g>
</g>
</svg>
