<svg enable-background="new 0 0 72 72" height="72" viewBox="0 0 72 72" width="72" xmlns="http://www.w3.org/2000/svg" xmlns:xlink="http://www.w3.org/1999/xlink"><linearGradient id="a" gradientUnits="userSpaceOnUse" x1="0" x2="72" y1="36.0005" y2="36.0005"><stop offset="0" stop-color="#00b3ce"/><stop offset="1" stop-color="#00c8dd"/></linearGradient><circle cx="36" cy="36" fill="url(#a)" r="36"/><g fill="#fff"><path d="m27.35 35.41-7.193-7.153c-.649.871-1.042 1.953-1.042 3.121 0 2.82 2.3 5.115 5.116 5.115 1.169 0 2.255-.391 3.119-1.083z"/><path d="m35.804 10.228c-7.499 0-14.478 3.038-19.593 8.452l-.822.87 20.713 20.805v3.733l-.08.081-5.329-5.375c-2.474 1.645-5.638 2.125-8.626 1.084-5.029-1.822-7.632-7.327-5.812-12.312.263-.779.651-1.473 1.083-2.123l-2.295-2.298-.434.737c-2.384 3.903-3.686 8.41-3.686 13.045-.041 13.83 11.227 25.139 25.051 25.139h4.233v-51.834zm-17.034 9.321c4.6-4.467 10.619-6.891 17.08-6.891h.041c.072 0 .143 0 .211.003v24.264z"/><path d="m35.804 10.228c-7.499 0-14.478 3.038-19.593 8.452l-.822.87 20.713 20.805v3.733l-.08.081-5.329-5.375c-2.474 1.645-5.638 2.125-8.626 1.084-5.029-1.822-7.632-7.327-5.812-12.312.263-.779.651-1.473 1.083-2.123l-2.295-2.298-.434.737c-2.384 3.903-3.686 8.41-3.686 13.045-.041 13.83 11.227 25.139 25.051 25.139h4.233v-51.834zm-17.034 9.321c4.6-4.467 10.619-6.891 17.08-6.891h.041c.072 0 .143 0 .211.003v24.264z"/><path d="m61 36.059c0-11.465-9.326-20.796-20.792-20.804v2.491c10.095.004 18.306 8.218 18.306 18.312 0 10.096-8.211 18.312-18.306 18.316v2.488c11.466-.005 20.792-9.333 20.792-20.803z"/><path d="m45.295 36.07-.987 6.189h4.835l-.987-6.189c1.101-.539 1.864-1.669 1.864-2.982 0-1.829-1.474-3.312-3.293-3.312s-3.294 1.483-3.294 3.312c-.002 1.315.761 2.443 1.862 2.982z"/><path d="m43.668 22.03c1.3.336 1.801-1.613.501-1.948-1.298-.333-1.801 1.616-.501 1.948"/><path d="m49.373 24.991c1.028.86 2.32-.681 1.292-1.541-1.024-.864-2.319.679-1.292 1.541"/><path d="m53.04 29.8c.591 1.204 2.397.32 1.807-.884-.589-1.205-2.397-.318-1.807.884"/><path d="m43.668 50.057c1.3-.335 1.801 1.617.501 1.951-1.298.332-1.801-1.617-.501-1.951"/><path d="m49.373 47.098c1.028-.861 2.32.681 1.292 1.539-1.024.866-2.319-.677-1.292-1.539"/><path d="m53.04 42.287c.591-1.204 2.397-.317 1.807.888-.589 1.201-2.397.317-1.807-.888"/><path d="m54.493 36.119c0 1.344 2.01 1.344 2.01 0 0-1.341-2.01-1.341-2.01 0"/></g></svg>