<svg enable-background="new 0 0 50 50" viewBox="0 0 50 50" xmlns="http://www.w3.org/2000/svg"><path d="m25 960.4c-.1 0-.2 0-.2.1l-16.2 10.8c-.1.1-.2.3-.2.4 0 .2.2.3.4.3h3.9v15.4h-3.9c-.2 0-.4.2-.4.4v2.7h-.3c-.2 0-.4.2-.4.4v3.1c0 .2.2.4.4.4h33.9c.2 0 .4-.2.4-.4v-3.1c0-.2-.2-.4-.4-.4h-.4v-2.7c0-.2-.2-.4-.4-.4h-3.9v-15.4h3.9c.2 0 .3-.1.4-.3 0-.2 0-.3-.2-.4l-16.2-10.8c-.1-.1-.1-.1-.2-.1zm0 .9 14.9 9.9h-29.8zm0 3.7c-1.1 0-1.9.9-1.9 1.9 0 1.1.9 1.9 1.9 1.9s1.9-.9 1.9-1.9-.8-1.9-1.9-1.9zm0 .8c.6 0 1.2.5 1.2 1.2 0 .6-.5 1.2-1.2 1.2s-1.2-.5-1.2-1.2.6-1.2 1.2-1.2zm-11.6 6.2h2.3v15.4h-2.3zm3.1 0h3.1v15.4h-3.1zm3.9 0h2.3v15.4h-2.3zm3.1 0h3.1v15.4h-3.1zm3.8 0h2.3v15.4h-2.3zm3.1 0h3.1v15.4h-3.1zm3.8 0h2.3v15.4h-2.3zm-25 16.1h31.6v2.3h-31.6zm-.8 3.1h33.1v2.3h-33.1z" transform="translate(0 -952.36218)"/><path d="m39.9 15.4c-3 0-5.5-2.5-5.5-5.5 0-.2.1-.3.3-.3s.3.1.3.3c0 2.7 2.2 4.9 5 4.9s4.9-2.2 4.9-4.9c0-2.5-1.9-4.6-4.4-4.9-.1.2-.4.3-.6.3-.4 0-.7-.3-.7-.7s.3-.7.7-.7c.3 0 .5.2.6.4 2.8.3 4.9 2.7 4.9 5.5.1 3.2-2.4 5.6-5.5 5.6zm0-10.8c-.1 0-.1 0-.1.1s0 .1.1.1.1 0 .1-.1 0-.1-.1-.1z" fill="#010101"/><path d="m39.9 4.1c.3 0 .5.2.5.4 2.7.3 4.9 2.6 4.9 5.4 0 3-2.4 5.4-5.4 5.4s-5.4-2.4-5.4-5.4c0-.1.1-.2.2-.2s.2.1.2.2c0 2.8 2.3 5.1 5.1 5.1s5-2.3 5-5.1c0-2.6-2-4.8-4.6-5-.1.2-.3.4-.5.4-.3 0-.6-.3-.6-.6s.3-.6.6-.6m0 .8c.1 0 .2-.1.2-.2s-.1-.2-.2-.2-.2.1-.2.2.1.2.2.2m0-1c-.4 0-.8.4-.8.8s.4.8.8.8c.2 0 .5-.1.6-.3 2.4.3 4.2 2.3 4.2 4.8 0 2.7-2.2 4.8-4.8 4.8s-4.8-2.2-4.8-4.8c0-.2-.2-.4-.4-.4s-.4.2-.4.4c0 3.1 2.5 5.7 5.7 5.7s5.7-2.5 5.7-5.7c0-2.8-2.2-5.3-5-5.6-.2-.4-.5-.5-.8-.5z" fill="#fff"/><path d="m39.9 10.6c-.4 0-.7-.3-.7-.7s.3-.7.7-.7.7.3.7.7c0 .3-.3.7-.7.7zm0-.8c-.1 0-.1 0-.1.1s0 .1.1.1.1 0 .1-.1 0-.1-.1-.1z" fill="#010101"/><path d="m39.9 9.3c.3 0 .6.3.6.6s-.3.6-.6.6-.6-.3-.6-.6.3-.6.6-.6m0 .8c.1 0 .2-.1.2-.2s-.1-.2-.2-.2-.2.1-.2.2.1.2.2.2m0-1c-.4 0-.8.4-.8.8s.4.8.8.8.8-.4.8-.8-.3-.8-.8-.8z" fill="#fff"/><path d="m40.6 9.5c-.1 0-.1 0-.2-.1s-.1-.1-.1-.2 0-.1.1-.2l2.2-2.2c.1-.1.1-.1.2-.1s.1 0 .2.1.1.3 0 .4l-2.2 2.2c-.1.1-.1.1-.2.1z" fill="#010101"/><path d="m42.8 6.8h.1c.1.1.1.2 0 .3l-2.2 2.2s0 0-.1 0-.1 0-.1 0c-.1-.1-.1-.2 0-.2l2.2-2.2s.1-.1.1-.1m0-.2c-.1 0-.2 0-.3.1l-2.2 2.3c-.2.2-.2.4 0 .6.1.1.2.1.3.1s.2 0 .3-.1l2.2-2.2c.2-.2.2-.4 0-.6-.1-.2-.2-.2-.3-.2z" fill="#fff"/></svg>