<svg enable-background="new 0 0 50 50" viewBox="0 0 50 50" xmlns="http://www.w3.org/2000/svg"><path d="m24.3 21.2c0-2.2-4-3.1-8-3.1s-8 1-8 3.1v1.9c0 2.2 4 3.1 8 3.1s8-1 8-3.1zm-1.8 1.9c-.2.4-2.3 1.4-6.2 1.4s-6-1-6.2-1.4v-1.9c.2-.4 2.3-1.4 6.2-1.4s6 1 6.2 1.4zm1.8 5.3c0 2.2-4 3.1-8 3.1s-8-1-8-3.1v-1.6c0-.5.4-.9.9-.9s.9.4.9.9v1.6c.2.4 2.3 1.4 6.2 1.4s6-1 6.2-1.4v-1.6c0-.5.4-.9.9-.9s.9.4.9.9zm0 5.2c0 2.2-4 3.1-8 3.1s-8-1-8-3.2v-1.5c0-.5.4-.9.9-.9s.9.4.9.9v1.6c.2.4 2.3 1.4 6.2 1.4s6-1 6.2-1.4v-1.6c0-.5.4-.9.9-.9s.9.4.9.9zm17.3-7.2c0-2.2-4-3.1-8-3.1s-8 1-8 3.1v1.9c0 2.2 4 3.1 8 3.1s8-1 8-3.1zm-1.8 1.9c-.2.4-2.3 1.4-6.2 1.4s-6-1-6.2-1.4v-1.9c.2-.4 2.3-1.4 6.2-1.4s6 1 6.2 1.4zm1.8 5.3c0 2.2-4 3.1-8 3.1s-8-1-8-3.1v-1.6c0-.5.4-.9.9-.9s.9.4.9.9v1.6c.2.4 2.3 1.4 6.2 1.4s6-1 6.2-1.4v-1.6c0-.5.4-.9.9-.9s.9.4.9.9zm-14.1 3.7v1.6c.2.4 2.3 1.4 6.2 1.4s6-1 6.2-1.4v-1.6c0-.5.4-.9.9-.9s.9.4.9.9v1.6c0 2.2-4 3.1-8 3.1s-8-1-8-3.1v-1.6c0-.5.4-.9.9-.9s.9.4.9.9zm-11.1 4.7c-4 0-8-1-8-3.1v-1.6c0-.5.4-.9.9-.9s.9.4.9.9v1.6c.2.4 2.3 1.4 6.2 1.4s6-1 6.2-1.4v-1.6c0-.5.4-.9.9-.9s.9.4.9.9v1.6c-.1 2.1-4.1 3.1-8 3.1zm22.6-27.3c.3-.7.2-1.4-.3-2l-3.3-3.9c-.4-.5-1-.8-1.8-.8-.7 0-1.4.3-1.9.9l-3.3 3.9c-.7.8-.5 2 .2 2.6.3.3.8.4 1.2.4h.5l-.1 4.4c0 1.1.8 1.9 1.8 2h.1 2.9c1.1 0 1.9-.9 1.9-1.9 0 0 0 0 0-.1l-.1-4.4h.5c.8 0 1.4-.4 1.7-1.1zm-3.1-.7c-.5 0-.9.4-.9.9l.2 5.3c0 .1-.1.1-.1.1h-2.8c-.1 0-.1-.1-.1-.1l.2-5.3c0-.5-.4-.9-.9-.9h-1.5s-.1 0-.1-.1c0 0 0 0 0-.1l3.3-3.9c.1-.1.3-.2.5-.2.2 0 .4.1.5.2l3.3 3.9v.1s0 0-.1 0h-1.5z" stroke="#fff" stroke-miterlimit="10" stroke-width=".75"/></svg>