<svg enable-background="new 0 0 1549.4 480" viewBox="0 0 1549.4 480" xmlns="http://www.w3.org/2000/svg"><path d="m1276.6 240.7c-6.8-4.5-14.3-7.7-21.4-11.7-4.6-2.6-9.5-4.9-13.5-8.2-6.8-5.6-5.4-16.6 1.7-21.4 10.2-6.8 27.1-3 28.9 10.9 0 .3.3.5.6.5h15.4c.4 0 .7-.3.6-.7-.8-9.6-4.5-17.6-11.3-22.7-6.5-4.9-13.9-7.5-21.8-7.5-40.7 0-44.4 43.1-22.5 56.7 2.5 1.6 24 12.4 31.6 17.1s10 13.3 6.7 20.1c-3 6.2-10.8 10.5-18.6 10-8.5-.5-15.1-5.1-17.4-12.3-.4-1.3-.6-3.8-.6-4.9 0-.3-.3-.6-.6-.6h-16.7c-.3 0-.6.3-.6.6 0 12.1 3 18.8 11.2 24.9 7.7 5.8 16.1 8.2 24.8 8.2 22.8 0 34.6-12.9 37-26.3 2.1-13.1-1.8-24.9-13.5-32.7z" fill="#161616"/><path d="m551.5 182.1h-7.4-8.1c-.3 0-.5.2-.6.4l-13.7 45.2c-.2.6-1 .6-1.2 0l-13.7-45.2c-.1-.3-.3-.4-.6-.4h-8.1-7.4-10c-.3 0-.6.3-.6.6v115.4c0 .3.3.6.6.6h16.7c.3 0 .6-.3.6-.6v-87.7c0-.7 1-.8 1.2-.2l13.8 45.5 1 3.2c.1.3.3.4.6.4h12.8c.3 0 .5-.2.6-.4l1-3.2 13.8-45.5c.2-.7 1.2-.5 1.2.2v87.7c0 .3.3.6.6.6h16.7c.3 0 .6-.3.6-.6v-115.4c0-.3-.3-.6-.6-.6z" fill="#161616"/><path d="m1020.9 182.1c-.3 0-.5.2-.6.4l-13.7 45.2c-.2.6-1 .6-1.2 0l-13.7-45.2c-.1-.3-.3-.4-.6-.4h-25.4c-.3 0-.6.3-.6.6v115.4c0 .3.3.6.6.6h16.7c.3 0 .6-.3.6-.6v-87.7c0-.7 1-.8 1.2-.2l13.8 45.5 1 3.2c.1.3.3.4.6.4h12.8c.3 0 .5-.2.6-.4l1-3.2 13.8-45.5c.2-.7 1.2-.5 1.2.2v87.7c0 .3.3.6.6.6h16.7c.3 0 .6-.3.6-.6v-115.4c0-.3-.3-.6-.6-.6z" fill="#161616"/><path d="m805.5 182.1h-31.1-16.7-31.1c-.3 0-.6.3-.6.6v14.4c0 .3.3.6.6.6h30.5v100.4c0 .3.3.6.6.6h16.7c.3 0 .6-.3.6-.6v-100.4h30.5c.3 0 .6-.3.6-.6v-14.4c0-.3-.2-.6-.6-.6z" fill="#161616"/><path d="m904 298.7h15.2c.4 0 .7-.4.6-.8l-31.4-115.8c-.1-.3-.3-.4-.6-.4h-5.8-10.2-5.8c-.3 0-.5.2-.6.4l-31.4 115.8c-.1.4.2.8.6.8h15.2c.3 0 .5-.2.6-.4l9.1-33.7c.1-.3.3-.4.6-.4h33.6c.3 0 .5.2.6.4l9.1 33.7c.1.2.4.4.6.4zm-39.9-51 12.2-45.1c.2-.6 1-.6 1.2 0l12.2 45.1c.1.4-.2.8-.6.8h-24.4c-.4 0-.7-.4-.6-.8z" fill="#161616"/><path d="m1163.2 298.7h15.2c.4 0 .7-.4.6-.8l-31.4-115.8c-.1-.3-.3-.4-.6-.4h-5.8-10.2-5.8c-.3 0-.5.2-.6.4l-31.4 115.8c-.1.4.2.8.6.8h15.2c.3 0 .5-.2.6-.4l9.1-33.7c.1-.3.3-.4.6-.4h33.6c.3 0 .5.2.6.4l9.1 33.7c.1.2.3.4.6.4zm-39.9-51 12.2-45.1c.2-.6 1-.6 1.2 0l12.2 45.1c.1.4-.2.8-.6.8h-24.4c-.4 0-.7-.4-.6-.8z" fill="#161616"/><path d="m629.7 281.6v-35.8c0-.3.3-.6.6-.6h44.5c.3 0 .6-.3.6-.6v-14.4c0-.3-.3-.6-.6-.6h-44.5c-.3 0-.6-.3-.6-.6v-30.6c0-.3.3-.6.6-.6h50.6c.3 0 .6-.3.6-.6v-14.4c0-.3-.3-.6-.6-.6h-51.2-17.3c-.3 0-.6.3-.6.6v15 31.9 15.6 37 15.8c0 .3.3.6.6.6h17.3 53.3c.3 0 .6-.3.6-.6v-15.2c0-.3-.3-.6-.6-.6h-52.8c-.3-.1-.5-.3-.5-.7z" fill="#161616"/><path d="m1429.2 297.7-57.8-59.7c-.2-.2-.2-.6 0-.8l52-54c.4-.4.1-1-.4-1h-21.3c-.2 0-.3.1-.4.2l-44.1 45.8c-.4.4-1 .1-1-.4v-45c0-.3-.3-.6-.6-.6h-16.7c-.3 0-.6.3-.6.6v115.4c0 .3.3.6.6.6h16.7c.3 0 .6-.3.6-.6v-50.8c0-.5.7-.8 1-.4l50 51.6c.1.1.3.2.4.2h21.3c.4-.1.7-.8.3-1.1z" fill="#161616"/><g stroke-linecap="round" stroke-linejoin="round"><path d="m366 120-101.1 75 18.8-44.2z" fill="#e17726" stroke="#e17726"/><path d="m132.8 120 100.2 75.7-17.9-44.9z" fill="#e27625" stroke="#e27625"/><path d="m329.6 293.9-26.9 41.2 57.6 15.9 16.5-56.2z" fill="#e27625" stroke="#e27625"/><path d="m122.1 294.8 16.4 56.2 57.5-15.9-26.8-41.2z" fill="#e27625" stroke="#e27625"/><path d="m192.9 224.3-16 24.2 57 2.6-1.9-61.5z" fill="#e27625" stroke="#e27625"/><path d="m305.9 224.3-39.7-35.4-1.3 62.2 57-2.6z" fill="#e27625" stroke="#e27625"/><path d="m196 335.1 34.5-16.7-29.7-23.2z" fill="#e27625" stroke="#e27625"/><path d="m268.3 318.4 34.4 16.7-4.7-39.9z" fill="#e27625" stroke="#e27625"/><path d="m302.7 335.1-34.4-16.7 2.8 22.4-.3 9.5z" fill="#d5bfb2" stroke="#d5bfb2"/><path d="m196 335.1 32 15.2-.2-9.5 2.7-22.4z" fill="#d5bfb2" stroke="#d5bfb2"/><path d="m228.6 280.4-28.6-8.4 20.2-9.3z" fill="#233447" stroke="#233447"/><path d="m270.2 280.4 8.4-17.7 20.3 9.3z" fill="#233447" stroke="#233447"/><path d="m196 335.1 5-41.2-31.8.9z" fill="#cc6228" stroke="#cc6228"/><path d="m297.8 293.9 4.9 41.2 26.9-40.3z" fill="#cc6228" stroke="#cc6228"/><path d="m321.9 248.5-57 2.6 5.3 29.3 8.4-17.7 20.3 9.3z" fill="#cc6228" stroke="#cc6228"/><path d="m200 272 20.2-9.3 8.4 17.7 5.3-29.3-57-2.6z" fill="#cc6228" stroke="#cc6228"/><path d="m176.9 248.5 23.9 46.7-.8-23.2z" fill="#e27525" stroke="#e27525"/><path d="m298.9 272-.9 23.2 23.9-46.7z" fill="#e27525" stroke="#e27525"/><path d="m233.9 251.1-5.3 29.3 6.7 34.6 1.5-45.6z" fill="#e27525" stroke="#e27525"/><path d="m264.9 251.1-2.8 18.2 1.4 45.7 6.7-34.6z" fill="#e27525" stroke="#e27525"/><path d="m270.2 280.4-6.7 34.6 4.8 3.4 29.7-23.2.9-23.2z" fill="#f5841f" stroke="#f5841f"/><path d="m200 272 .8 23.2 29.7 23.2 4.8-3.4-6.7-34.6z" fill="#f5841f" stroke="#f5841f"/><path d="m270.8 350.3.3-9.5-2.6-2.2h-38.2l-2.5 2.2.2 9.5-32-15.2 11.2 9.2 22.7 15.7h38.9l22.8-15.7 11.1-9.2z" fill="#c0ac9d" stroke="#c0ac9d"/><path d="m268.3 318.4-4.8-3.4h-28.2l-4.8 3.4-2.7 22.4 2.5-2.2h38.2l2.6 2.2z" fill="#161616" stroke="#161616"/><path d="m370.3 199.9 8.5-41.4-12.8-38.5-97.7 72.5 37.6 31.8 53.1 15.5 11.7-13.7-5.1-3.7 8.1-7.4-6.2-4.8 8.1-6.2z" fill="#763e1a" stroke="#763e1a"/><path d="m120 158.5 8.6 41.4-5.5 4.1 8.2 6.2-6.2 4.8 8.1 7.4-5.1 3.7 11.7 13.7 53.1-15.5 37.6-31.8-97.7-72.5z" fill="#763e1a" stroke="#763e1a"/><path d="m359 239.8-53.1-15.5 16 24.2-23.9 46.7 31.6-.4h47.2z" fill="#f5841f" stroke="#f5841f"/><path d="m192.9 224.3-53.1 15.5-17.7 55h47.1l31.6.4-23.9-46.7z" fill="#f5841f" stroke="#f5841f"/><path d="m264.9 251.1 3.4-58.6 15.4-41.7h-68.6l15.4 41.7 3.4 58.6 1.3 18.4.1 45.5h28.2l.1-45.5z" fill="#f5841f" stroke="#f5841f"/></g></svg>