<svg enable-background="new 0 0 50 50" viewBox="0 0 50 50" xmlns="http://www.w3.org/2000/svg"><path d="m25.1 42.6c-.1 0-.2 0-.3-.1s-.1-.2-.1-.3v-3.2c0-.1 0-.2.1-.3s.2-.1.3-.1h.3c.1 0 .2.1.3.1.1.1.1.2.1.3l.1 3.2c0 .2-.2.4-.4.4z"/><path d="m25.4 38.9c0-.1 0-.1 0 0h-.2c-.1 0-.1 0-.2 0h-.1v.1l.1 3.2v.1h.1.3c.1 0 .1-.1.1-.1l-.1-3.3c.1 0 .1 0 0 0z"/><path d="m24.5 12.3-.2-.1c-.1-.1-.1-.2-.1-.3l-.1-3.1c0-.2.2-.4.4-.4h.3c.1 0 .2 0 .3.1s.1.2.1.3v3.1c0 .1 0 .2-.1.3s-.2.1-.3.1z"/><path d="m25 11.9v-3.1-.1h-.1-.3c-.1 0-.1.1-.1.1l.1 3.1v.1h.1.1.2c-.1 0 0 0 0-.1z"/><path d="m29.6 13.1-.2-.1v-.3l-.2.3c-.1 0-.2-.1-.2-.2s-.1-.2 0-.3l1-2.9c0-.1.1-.2.2-.2h.1.1.1l.3.1c.2 0 .3.2.2.4l-1 2.9c0 .1-.1.2-.2.2h-.1z"/><path d="m29.6 12.8h.1s.1 0 .1-.1l1-2.9c0-.1 0-.1-.1-.2l-.2-.1h-.1s-.1 0-.1.1l-1 2.9v.1s0 .1.1.1h.1c0 .1 0 .1.1.1z"/><path d="m19.6 41.7-.3-.1c-.2-.1-.3-.3-.3-.5l1.1-3c0-.1.1-.2.2-.2h.1.1.1l.2.1c.2.1.3.1.3.2s.1.2 0 .3l-1.1 3c0 .1-.1.2-.2.2h-.1z"/><path d="m20.7 38.1c-.1 0-.2-.1-.2-.1h-.1s-.1 0-.1.1l-1.1 3c0 .1 0 .1.1.2l.2.1h.1s.1 0 .1-.1l1.1-3s0-.1-.1-.2c.1.1.1 0 0 0z"/><path d="m30.6 41.6h-.1c-.1-.1-.2-.1-.2-.2l-1.1-3c0-.1 0-.2 0-.3s.1-.2.2-.2l.2-.1h.2.1.1c.1 0 .2.1.2.2l1.1 3v.3c0 .1-.1.2-.2.2l-.3.1z"/><path d="m29.9 38c-.1 0-.1 0-.2 0s-.2.1-.2.1-.1 0-.1.1v.1l1.1 3s0 .1.1.1h.1l.2-.1c.1 0 .1-.1.1-.2z"/><path d="m20.1 13.2h-.1c-.1 0-.2-.1-.2-.2l-1.1-3c-.1-.2 0-.5.2-.5l.3-.1h.1.2c.1.1.2.1.2.2l1.1 2.9v.3c0 .1-.1.2-.2.2l-.2.1c-.1.1-.2.1-.3.1z"/><path d="m20.1 12.9s.1 0 0 0h.1.1c.1 0 .1 0 .2-.1 0 0 .1 0 .1-.1v-.1l-1.1-2.9s0-.1-.1-.1h-.1l-.2.1c-.1.1-.1.2-.1.2z"/><path d="m35.6 38.8c-.1 0-.2-.1-.3-.2l-2.1-2.5c-.1-.1-.1-.2-.1-.3s.1-.2.2-.3l.3-.2h.2c.1 0 .2.1.3.1l2.1 2.5c.1.1.1.2.1.3s-.1.2-.1.3l-.3.2z"/><path d="m33.8 35.7c-.1-.1-.2 0-.2 0-.1.1-.1.1-.2.2v.1.1l2.1 2.5h.1.1l.2-.2v-.1-.1z"/><path d="m16.2 15.6c-.1 0-.2-.1-.3-.1l-2-2.4c-.1-.1-.1-.2-.1-.3s.1-.2.1-.3l.3-.2h.2c.1 0 .2.1.3.2l2 2.4c.1.1.1.2.1.3s-.1.2-.2.3l-.3.2z"/><path d="m16.1 15.2c0 .1.1.1 0 0h.1.1l.1-.1s.1-.1.1-.1v-.1s0-.1 0-.1l-2-2.4c0-.1-.1-.1-.2 0l-.2.2v.1.1z"/><path d="m13.1 19.3-.1-.1-2.7-1.6c-.1-.1-.2-.1-.2-.2s0-.2 0-.3l.1-.2c.1-.1.2-.2.4-.2h.1l.1.1 2.7 1.6c.1.1.2.1.2.3v.3h-.2c-.1.1-.1.2-.3.2z"/><path d="m10.4 17.4 2.7 1.6h.1s.1 0 .1-.1.1-.2.1-.2v-.1s0-.1-.1-.1l-2.7-1.6c-.1 0-.1 0-.2 0l-.1.2c0 .1 0 .2.1.3z"/><path d="m39.3 34.4-.1-.1-2.8-1.6c-.1-.1-.2-.1-.2-.3 0-.1 0-.2 0-.3l.1-.1h.3l-.2-.1c.1-.1.1-.2.2-.2h.1c.1 0 .1 0 .2.1l2.8 1.6c.1.1.2.1.2.3v.3l-.1.2c-.1.1-.3.2-.5.2z"/><path d="m39.6 33.6-2.8-1.6h-.1s-.1 0-.1.1v.1c0 .1-.1.1-.1.2v.1s0 .1.1.1l2.8 1.6h.1s.1 0 .1-.1l.1-.2c0-.1 0-.2-.1-.3z"/><path d="m14.3 38.8-.2-.1-.1-.1c-.1-.1-.1-.2-.1-.3s0-.2.1-.3l2.1-2.5c.1-.1.2-.1.3-.1.1 0 .2 0 .3.1l.2.2c.1.1.1.2.2.3 0 .1 0 .2-.1.3l-2.1 2.5c-.1.1-.2.1-.3.1h-.3z"/><path d="m16.4 35.7c-.1 0-.1-.1 0 0-.1 0-.2 0-.2 0l-2.1 2.5v.1.1l.2.2h.1.1l2.1-2.5v-.1-.1c-.1-.1-.2-.2-.2-.2z"/><path d="m33.7 15.6-.2-.1-.2-.2c-.1-.1-.1-.2-.2-.3 0-.1 0-.2.1-.3l2-2.4c.1-.1.2-.1.3-.1h.1l.2.1.2.2c.1.1.1.2.1.3s0 .2-.1.3l-2 2.4c-.1.1-.2.1-.3.1z"/><path d="m35.7 12.5c-.1 0-.1 0-.2 0l-2 2.4v.1s0 .1 0 .1.1.1.1.1l.1.1h.1.1l2-2.4v-.1-.1z"/><path d="m36.8 19.3c-.2 0-.3-.1-.3-.2l-.1-.2c-.1-.1-.1-.2-.1-.4 0-.1.1-.2.2-.3l2.8-1.6h.1c.1 0 .3.1.4.2l.1.2c.1.1.1.2 0 .3 0 .1-.1.2-.2.3l-2.7 1.6z"/><path d="m36.7 18.9s0 .1 0 0c.1.1.1.1.1.1h.1l2.7-1.6s.1 0 .1-.1v-.1l-.2-.2c0-.1-.1-.1-.2 0l-2.7 1.6s-.1 0-.1.1v.1c.1 0 .2 0 .2.1z"/><path d="m10.6 34.4c-.1 0-.3-.1-.4-.2l-.1-.2c-.1-.1-.1-.2 0-.3 0-.1.1-.2.2-.3l2.8-1.6h.1.1c.1 0 .2.1.3.2l.1.2c.1.1.1.2 0 .3 0 .1-.1.2-.2.3l-2.8 1.6z"/><path d="m13.4 32.1c-.1-.1-.1-.1-.1-.1h-.1l-2.8 1.6s-.1 0-.1.1v.1l.1.2s.1.1.1.1h.1l2.8-1.6s.1 0 .1-.1v-.1c0-.1-.1-.1-.1-.2z"/><path d="m8.6 28.9c-.2 0-.4-.1-.4-.3v-.3c0-.1 0-.2.1-.3s.2-.2.3-.2l3.1-.5c.1 0 .2 0 .3.1s.1.2.2.3v.3c0 .1 0 .2-.1.3s-.2.2-.3.2z"/><path d="m11.8 28c0-.2 0-.3 0-.4 0 0 0-.1-.1-.1h-.1l-3.1.5s-.1 0-.1.1v.1.3c0 .1.1.1.1.1z"/><path d="m38.3 23.7-.2-.1c-.1 0-.1-.1-.1-.2v-.2c0-.2 0-.3.1-.4s.2-.1.3-.2c0 0 3.1-.5 3.1-.5.3 0 .4.1.5.3v.3c0 .1 0 .2-.1.3s-.2.2-.3.2l-3.1.5z"/><path d="m38.2 23v.2.2s0 .1.1.1h.1l3.1-.5s.1 0 .1-.1v-.1-.3c0-.1-.1-.1-.2-.1l-3.2.6c.1-.1 0 0 0 0z"/><path d="m11.6 23.7-3.1-.5c-.1 0-.2-.1-.3-.2s-.1-.2-.1-.3v-.3c0-.2.2-.3.4-.3l3.2.5c.1 0 .2.1.3.2s.1.2.1.3l-.3.1.3.1v.1c0 .1-.1.2-.2.3l-.1.1z"/><path d="m8.5 22.9 3.1.5h.1s0-.1.1-.1c0-.1 0-.1 0-.2v-.1-.1s-.1 0-.1-.1l-3.1-.5c-.1 0-.1 0-.2.1v.3c0 .1 0 .1.1.2-.1 0 0 0 0 0z"/><path d="m41.4 28.9-3.2-.5c-.1 0-.2-.1-.3-.2s-.1-.2-.1-.3v-.2c0-.1.1-.2.2-.3l.1-.1h.2l3.2.5c.1 0 .2.1.3.2s.1.2.1.3v.3c-.1.2-.3.3-.5.3z"/><path d="m41.5 28.1-3.1-.5h-.1s0 .1-.1.1v.3.1s.1 0 .1.1l3.1.5c.1 0 .1 0 .1-.1v-.3c.1-.1.1-.1 0-.2z"/></svg>