<?xml version="1.0" encoding="utf-8"?>
<!-- Generator: Adobe Illustrator 21.1.0, SVG Export Plug-In . SVG Version: 6.00 Build 0)  -->
<svg version="1.1" id="Ebene_1" xmlns="http://www.w3.org/2000/svg" xmlns:xlink="http://www.w3.org/1999/xlink" x="0px" y="0px"
	 viewBox="0 0 50 50" style="enable-background:new 0 0 50 50;" xml:space="preserve">
<style type="text/css">
	.st0{display:none;}
	.st1{display:inline;}
	.st2{fill:#010101;}
	.st3{fill:#FFFFFF;}
</style>
<g id="Ebene_1_2_" class="st0">
	<g id="Ebene_2" class="st1">
		<g>
			<g>
				<path d="M25.1,42.6c-0.1,0-0.2,0-0.3-0.1c-0.1-0.1-0.1-0.2-0.1-0.3V39c0-0.1,0-0.2,0.1-0.3s0.2-0.1,0.3-0.1h0.3
					c0.1,0,0.2,0.1,0.3,0.1c0.1,0.1,0.1,0.2,0.1,0.3l0.1,3.2c0,0.2-0.2,0.4-0.4,0.4L25.1,42.6L25.1,42.6z"/>
				<path d="M25.4,38.9C25.4,38.8,25.4,38.8,25.4,38.9h-0.2c-0.1,0-0.1,0-0.2,0h-0.1V39l0.1,3.2v0.1h0.1l0,0h0.3
					c0.1,0,0.1-0.1,0.1-0.1L25.4,38.9C25.5,38.9,25.5,38.9,25.4,38.9z"/>
				<path d="M24.5,12.3l-0.2-0.1c-0.1-0.1-0.1-0.2-0.1-0.3l-0.1-3.1c0-0.2,0.2-0.4,0.4-0.4h0.3c0.1,0,0.2,0,0.3,0.1
					c0.1,0.1,0.1,0.2,0.1,0.3v3.1c0,0.1,0,0.2-0.1,0.3s-0.2,0.1-0.3,0.1H24.5L24.5,12.3z"/>
				<path d="M25,11.9V8.8V8.7h-0.1l0,0h-0.3c-0.1,0-0.1,0.1-0.1,0.1l0.1,3.1V12h0.1l0,0h0.1c0.1,0,0.1,0,0.2,0
					C24.9,12,25,12,25,11.9C25,12,25,11.9,25,11.9z"/>
				<path d="M29.6,13.1L29.6,13.1L29.4,13v-0.3L29.2,13c-0.1,0-0.2-0.1-0.2-0.2c0-0.1-0.1-0.2,0-0.3l1-2.9c0-0.1,0.1-0.2,0.2-0.2
					h0.1h0.1h0.1l0.3,0.1c0.2,0,0.3,0.2,0.2,0.4l-1,2.9c0,0.1-0.1,0.2-0.2,0.2h-0.1L29.6,13.1L29.6,13.1z"/>
				<path d="M29.6,12.8L29.6,12.8c0.1,0,0.1,0,0.1,0s0.1,0,0.1-0.1l1-2.9c0-0.1,0-0.1-0.1-0.2l-0.2-0.1h-0.1c0,0-0.1,0-0.1,0.1
					l-1,2.9v0.1c0,0,0,0.1,0.1,0.1h0.1C29.5,12.8,29.5,12.8,29.6,12.8z"/>
				<path d="M19.6,41.7L19.6,41.7l-0.3-0.1c-0.2-0.1-0.3-0.3-0.3-0.5l1.1-3c0-0.1,0.1-0.2,0.2-0.2h0.1h0.1h0.1l0.2,0.1
					c0.2,0.1,0.3,0.1,0.3,0.2c0,0.1,0.1,0.2,0,0.3l-1.1,3c0,0.1-0.1,0.2-0.2,0.2h-0.1H19.6L19.6,41.7z"/>
				<path d="M20.7,38.1L20.7,38.1c-0.1,0-0.2-0.1-0.2-0.1h-0.1c0,0-0.1,0-0.1,0.1l-1.1,3c0,0.1,0,0.1,0.1,0.2l0.2,0.1l0,0
					c0,0,0,0,0.1,0c0,0,0.1,0,0.1-0.1l1.1-3C20.8,38.3,20.8,38.2,20.7,38.1C20.8,38.2,20.8,38.1,20.7,38.1z"/>
				<path d="M30.6,41.6h-0.1c-0.1-0.1-0.2-0.1-0.2-0.2l-1.1-3c0-0.1,0-0.2,0-0.3s0.1-0.2,0.2-0.2l0.2-0.1c0.1,0,0.1,0,0.2,0h0.1H30
					c0.1,0,0.2,0.1,0.2,0.2l1.1,3c0,0.1,0,0.2,0,0.3s-0.1,0.2-0.2,0.2l-0.3,0.1H30.6L30.6,41.6z"/>
				<path d="M29.9,38L29.9,38c-0.1,0-0.1,0-0.2,0s-0.2,0.1-0.2,0.1s-0.1,0-0.1,0.1v0.1l1.1,3c0,0,0,0.1,0.1,0.1c0,0,0,0,0.1,0l0,0
					l0.2-0.1c0.1,0,0.1-0.1,0.1-0.2L29.9,38z"/>
				<path d="M20.1,13.2H20c-0.1,0-0.2-0.1-0.2-0.2l-1.1-3c-0.1-0.2,0-0.5,0.2-0.5l0.3-0.1h0.1c0.1,0,0.1,0,0.2,0
					c0.1,0.1,0.2,0.1,0.2,0.2l1.1,2.9c0,0.1,0,0.2,0,0.3S20.7,13,20.6,13l-0.2,0.1C20.3,13.2,20.2,13.2,20.1,13.2L20.1,13.2z"/>
				<path d="M20.1,12.9C20.1,12.9,20.2,12.9,20.1,12.9c0.1,0,0.1,0,0.1,0h0.1c0.1,0,0.1,0,0.2-0.1c0,0,0.1,0,0.1-0.1v-0.1l-1.1-2.9
					c0,0,0-0.1-0.1-0.1h-0.1l-0.2,0.1C19,9.8,19,9.9,19,9.9L20.1,12.9L20.1,12.9z"/>
				<path d="M35.6,38.8c-0.1,0-0.2-0.1-0.3-0.2l-2.1-2.5c-0.1-0.1-0.1-0.2-0.1-0.3s0.1-0.2,0.2-0.3l0.3-0.2h0.2
					c0.1,0,0.2,0.1,0.3,0.1l2.1,2.5c0.1,0.1,0.1,0.2,0.1,0.3s-0.1,0.2-0.1,0.3l-0.3,0.2L35.6,38.8z"/>
				<path d="M33.8,35.7L33.8,35.7c-0.1-0.1-0.2,0-0.2,0c-0.1,0.1-0.1,0.1-0.2,0.2V36v0.1l2.1,2.5h0.1h0.1l0.2-0.2v-0.1v-0.1
					L33.8,35.7z"/>
				<path d="M16.2,15.6c-0.1,0-0.2-0.1-0.3-0.1l-2-2.4c-0.1-0.1-0.1-0.2-0.1-0.3s0.1-0.2,0.1-0.3l0.3-0.2h0.2c0.1,0,0.2,0.1,0.3,0.2
					l2,2.4c0.1,0.1,0.1,0.2,0.1,0.3s-0.1,0.2-0.2,0.3l-0.3,0.2L16.2,15.6L16.2,15.6z"/>
				<path d="M16.1,15.2C16.1,15.3,16.2,15.3,16.1,15.2c0.1,0,0.1,0,0.1,0h0.1l0.1-0.1l0.1-0.1v-0.1v-0.1l-2-2.4c0-0.1-0.1-0.1-0.2,0
					l-0.2,0.2v0.1v0.1L16.1,15.2z"/>
				<path d="M13.1,19.3L13,19.2l-2.7-1.6c-0.1-0.1-0.2-0.1-0.2-0.2s0-0.2,0-0.3l0.1-0.2c0.1-0.1,0.2-0.2,0.4-0.2h0.1l0.1,0.1
					l2.7,1.6c0.1,0.1,0.2,0.1,0.2,0.3c0,0.1,0,0.2,0,0.3h-0.2C13.4,19.1,13.4,19.2,13.1,19.3L13.1,19.3L13.1,19.3L13.1,19.3z"/>
				<path d="M10.4,17.4l2.7,1.6c0,0,0,0,0.1,0l0,0c0,0,0.1,0,0.1-0.1s0.1-0.2,0.1-0.2v-0.1c0,0,0-0.1-0.1-0.1l-2.7-1.6
					c-0.1,0-0.1,0-0.2,0l-0.1,0.2C10.3,17.2,10.3,17.3,10.4,17.4L10.4,17.4z"/>
				<path d="M39.3,34.4L39.3,34.4l-2.9-1.7c-0.1-0.1-0.2-0.1-0.2-0.3c0-0.1,0-0.2,0-0.3l0.1-0.1h0.3l-0.2-0.1
					c0.1-0.1,0.1-0.2,0.2-0.2l0,0h0.1c0.1,0,0.1,0,0.2,0.1l2.8,1.6c0.1,0.1,0.2,0.1,0.2,0.3c0,0.1,0,0.2,0,0.3l-0.1,0.2
					C39.7,34.3,39.5,34.4,39.3,34.4L39.3,34.4z"/>
				<path d="M39.6,33.6L36.8,32h-0.1c0,0-0.1,0-0.1,0.1v0.1c0,0.1-0.1,0.1-0.1,0.2v0.1c0,0,0,0.1,0.1,0.1l2.8,1.6c0,0,0,0,0.1,0
					c0,0,0.1,0,0.1-0.1l0.1-0.2C39.7,33.8,39.7,33.7,39.6,33.6C39.6,33.7,39.6,33.6,39.6,33.6z"/>
				<path d="M14.3,38.8l-0.2-0.1L14,38.6c-0.1-0.1-0.1-0.2-0.1-0.3s0-0.2,0.1-0.3l2.1-2.5c0.1-0.1,0.2-0.1,0.3-0.1l0,0
					c0.1,0,0.2,0,0.3,0.1l0.2,0.2c0.1,0.1,0.1,0.2,0.2,0.3c0,0.1,0,0.2-0.1,0.3l-2.1,2.5c-0.1,0.1-0.2,0.1-0.3,0.1L14.3,38.8
					L14.3,38.8z"/>
				<path d="M16.4,35.7C16.3,35.7,16.3,35.6,16.4,35.7c-0.1,0-0.2,0-0.2,0l-2.1,2.5v0.1v0.1l0.2,0.2h0.1h0.1l2.1-2.5V36v-0.1
					C16.5,35.8,16.4,35.7,16.4,35.7z"/>
				<path d="M33.7,15.6l-0.2-0.1l-0.2-0.2c-0.1-0.1-0.1-0.2-0.2-0.3c0-0.1,0-0.2,0.1-0.3l2-2.4c0.1-0.1,0.2-0.1,0.3-0.1h0.1l0.2,0.1
					l0.2,0.2c0.1,0.1,0.1,0.2,0.1,0.3s0,0.2-0.1,0.3l-2,2.4C33.9,15.6,33.8,15.6,33.7,15.6L33.7,15.6L33.7,15.6z"/>
				<path d="M35.7,12.5c-0.1,0-0.1,0-0.2,0l-2,2.4V15v0.1l0.1,0.1l0.1,0.1h0.1l0,0h0.1l2-2.4v-0.1v-0.1L35.7,12.5z"/>
				<path d="M36.8,19.3L36.8,19.3c-0.2,0-0.3-0.1-0.3-0.2l-0.1-0.2c-0.1-0.1-0.1-0.2-0.1-0.4c0-0.1,0.1-0.2,0.2-0.3l2.8-1.6h0.1
					c0.1,0,0.3,0.1,0.4,0.2l0.1,0.2c0.1,0.1,0.1,0.2,0,0.3c0,0.1-0.1,0.2-0.2,0.3L37,19.2L36.8,19.3L36.8,19.3z"/>
				<path d="M36.7,18.9C36.7,18.9,36.7,19,36.7,18.9c0.1,0.1,0.1,0.1,0.1,0.1s0,0,0.1,0l2.7-1.6c0,0,0.1,0,0.1-0.1v-0.1L39.5,17
					c0-0.1-0.1-0.1-0.2,0l-2.7,1.6c0,0-0.1,0-0.1,0.1v0.1C36.6,18.8,36.7,18.8,36.7,18.9z"/>
				<path d="M10.6,34.4c-0.1,0-0.3-0.1-0.4-0.2L10.1,34c-0.1-0.1-0.1-0.2,0-0.3c0-0.1,0.1-0.2,0.2-0.3l2.8-1.6h0.1h0.1
					c0.1,0,0.2,0.1,0.3,0.2l0.1,0.2c0.1,0.1,0.1,0.2,0,0.3c0,0.1-0.1,0.2-0.2,0.3l-2.8,1.6L10.6,34.4z"/>
				<path d="M13.4,32.1L13.4,32.1C13.3,32,13.3,32,13.4,32.1L13.2,32l-2.8,1.6c0,0-0.1,0-0.1,0.1v0.1l0.1,0.2l0.1,0.1c0,0,0,0,0.1,0
					l2.8-1.6c0,0,0.1,0,0.1-0.1v-0.1C13.5,32.2,13.4,32.2,13.4,32.1z"/>
				<path d="M8.6,28.9c-0.2,0-0.4-0.1-0.4-0.3v-0.3c0-0.1,0-0.2,0.1-0.3c0.1-0.1,0.2-0.2,0.3-0.2l3.1-0.5l0,0c0.1,0,0.2,0,0.3,0.1
					s0.1,0.2,0.2,0.3V28c0,0.1,0,0.2-0.1,0.3c-0.1,0.1-0.2,0.2-0.3,0.2L8.6,28.9L8.6,28.9z"/>
				<path d="M11.8,28L11.8,28c0-0.2,0-0.3,0-0.4c0,0,0-0.1-0.1-0.1h-0.1L8.5,28c0,0-0.1,0-0.1,0.1v0.1v0.3c0,0.1,0.1,0.1,0.1,0.1
					l0,0L11.8,28C11.8,28.1,11.8,28,11.8,28z"/>
				<path d="M38.3,23.7l-0.2-0.1c-0.1,0-0.1-0.1-0.1-0.2v-0.2c0-0.2,0-0.3,0.1-0.4s0.2-0.1,0.3-0.2l3.1-0.5c0.3,0,0.4,0.1,0.5,0.3
					v0.3c0,0.1,0,0.2-0.1,0.3c-0.1,0.1-0.2,0.2-0.3,0.2l-3.1,0.5L38.3,23.7L38.3,23.7z"/>
				<path d="M38.2,23L38.2,23v0.2c0,0.1,0,0.1,0,0.2c0,0,0,0.1,0.1,0.1c0,0,0,0,0.1,0l0,0l3.1-0.5c0,0,0.1,0,0.1-0.1v-0.1v-0.3
					c0-0.1-0.1-0.1-0.2-0.1L38.2,23C38.3,22.9,38.2,23,38.2,23z"/>
				<path d="M11.6,23.7l-3.1-0.5c-0.1,0-0.2-0.1-0.3-0.2s-0.1-0.2-0.1-0.3v-0.3c0-0.2,0.2-0.3,0.4-0.3l3.2,0.5
					c0.1,0,0.2,0.1,0.3,0.2s0.1,0.2,0.1,0.3l-0.3,0.1l0.3,0.1v0.1c0,0.1-0.1,0.2-0.2,0.3l-0.1,0.1L11.6,23.7L11.6,23.7z"/>
				<path d="M8.5,22.9l3.1,0.5l0,0h0.1c0,0,0-0.1,0.1-0.1c0-0.1,0-0.1,0-0.2V23v-0.1c0,0-0.1,0-0.1-0.1l-3.1-0.5
					c-0.1,0-0.1,0-0.2,0.1v0.3C8.4,22.8,8.4,22.8,8.5,22.9C8.4,22.9,8.5,22.9,8.5,22.9z"/>
				<path d="M41.4,28.9l-3.2-0.5c-0.1,0-0.2-0.1-0.3-0.2s-0.1-0.2-0.1-0.3v-0.2c0-0.1,0.1-0.2,0.2-0.3l0.1-0.1h0.2l3.2,0.5
					c0.1,0,0.2,0.1,0.3,0.2s0.1,0.2,0.1,0.3v0.3C41.8,28.8,41.6,28.9,41.4,28.9L41.4,28.9z"/>
				<path d="M41.5,28.1l-3.1-0.5h-0.1c0,0,0,0.1-0.1,0.1c0,0.1,0,0.2,0,0.3v0.1c0,0,0.1,0,0.1,0.1l3.1,0.5l0,0c0.1,0,0.1,0,0.1-0.1
					v-0.3C41.6,28.2,41.6,28.2,41.5,28.1C41.6,28.1,41.5,28.1,41.5,28.1z"/>
			</g>
		</g>
	</g>
	<g id="Ebene_3" class="st1">
		<g>
			<path d="M33.6,27.5c-2.3,1.4-5.3,2.2-8.6,2.2s-6.3-0.8-8.6-2.2c-2.1-1.3-3.3-3-3.3-4.8s1.2-3.5,3.3-4.8c2.3-1.4,5.3-2.2,8.6-2.2
				c3.2,0,6.3,0.8,8.6,2.2c2.1,1.3,3.3,3,3.3,4.8C36.9,24.5,35.7,26.2,33.6,27.5L33.6,27.5z M36.9,27.2c0,1.8-1.2,3.5-3.3,4.8
				c-2.3,1.4-5.3,2.2-8.6,2.2c-3.2,0-6.3-0.8-8.6-2.2c-2.1-1.3-3.3-3-3.3-4.8V27c0.6,0.7,1.5,1.4,2.4,2c2.5,1.6,5.9,2.4,9.4,2.4
				c3.6,0,6.9-0.9,9.4-2.4c1-0.6,1.8-1.3,2.4-2v0.2H36.9z M34.4,16.5c-2.5-1.6-5.9-2.4-9.4-2.4c-3.6,0-6.9,0.9-9.4,2.4
				c-2.6,1.6-4,3.7-4.1,5.9v4.8c0,2.4,1.5,4.6,4.1,6.2c2.5,1.6,5.9,2.4,9.4,2.4c3.6,0,6.9-0.9,9.4-2.4c2.7-1.6,4.1-3.8,4.1-6.2v-4.6
				C38.6,20.3,37.1,18.1,34.4,16.5L34.4,16.5z"/>
		</g>
	</g>
	<g id="Ebene_4" class="st1">
		<g transform="translate(0,-952.36218)">
			<path d="M15.2,994.2c-0.3,0-0.5-0.2-0.5-0.5v-5.3c0-0.3,0.2-0.5,0.4-0.5h9.3v-23.7c-1.9,1.2-3.7,1.8-5.7,1.8s-4-0.4-6.1-1
				l4.9,11.4c0,0.1,0,0.1,0,0.2c0,3.2-2.6,5.8-5.8,5.8s-5.8-2.6-5.8-5.8c0-0.1,0-0.1,0-0.2l5.3-12.4c0.1-0.2,0.3-0.3,0.5-0.3
				c0.1,0,0.1,0,0.2,0c2.2,0.9,4.4,1.3,6.9,1.3c2,0,3.8-0.6,5.7-2v-1.9c0-0.3,0.2-0.5,0.5-0.5c0.4,0,0.6,0.3,0.6,0.5v2
				c1.8,1.3,3.7,1.9,5.7,1.9c2.4,0,4.7-0.4,6.9-1.3c0.1,0,0.1,0,0.2,0c0.2,0,0.4,0.1,0.5,0.3l5.3,12.4c0,0.1,0,0.1,0,0.2
				c0,3.2-2.6,5.8-5.8,5.8s-5.8-2.6-5.8-5.8c0-0.1,0-0.1,0-0.2l4.9-11.4c-2.1,0.7-4.2,1-6.1,1c-2,0-3.8-0.6-5.7-1.8v23.7h9.2
				c0.3,0,0.5,0.2,0.5,0.5v5.3c0,0.3-0.2,0.5-0.5,0.5H15.2z M34.1,993.1v-4.2H15.8v4.2H34.1z M33.5,976.9c0.3,2.4,2.3,4.2,4.7,4.2
				c2.6,0,4.7-2.1,4.8-4.7l-4.8-11.1l-4.5,10.5h8c0.3,0,0.5,0.2,0.5,0.5s-0.2,0.5-0.5,0.5L33.5,976.9L33.5,976.9z M7,976.9
				c0.3,2.4,2.3,4.2,4.7,4.2c2.6,0,4.7-2.1,4.8-4.7l-4.8-11.1l-4.5,10.5h8c0.3,0,0.5,0.2,0.5,0.5s-0.2,0.5-0.5,0.5L7,976.9L7,976.9z
				"/>
			<path d="M24.9,960.5c-0.2,0-0.4,0.2-0.4,0.5v2c-1.8,1.3-3.6,2-5.7,2s-4.4-0.3-6.9-1.3c-0.2-0.1-0.5,0-0.6,0.2L6,976.2
				c0,0.1,0,0.1,0,0.2c0,3.2,2.6,5.7,5.7,5.7s5.7-2.6,5.7-5.7c0-0.1,0-0.1,0-0.2l-4.9-11.5c2.2,0.8,4.3,1.1,6.3,1.1
				c2.1,0,4-0.7,5.7-1.8v23.9h-9.3h-0.1c-0.2,0-0.4,0.2-0.4,0.4v5.3c0,0.2,0.2,0.4,0.4,0.4h19.4c0.2,0,0.4-0.2,0.4-0.4v-5.3
				c0-0.2-0.2-0.4-0.4-0.4h-9.3V964c1.7,1.1,3.6,1.8,5.7,1.8c1.9,0,4.1-0.4,6.3-1.1l-4.9,11.5c0,0.1,0,0.1,0,0.2
				c0,3.2,2.6,5.7,5.7,5.7c3.2,0,5.7-2.6,5.7-5.7c0-0.1,0-0.1,0-0.2l-5.3-12.4c-0.1-0.2-0.3-0.3-0.6-0.2c-2.5,1-4.8,1.3-6.9,1.3
				s-4-0.7-5.7-2v-2C25.4,960.7,25.2,960.5,24.9,960.5L24.9,960.5z M11.7,965.1l4.8,11.3c0,2.7-2.2,4.8-4.8,4.8
				c-2.5,0-4.6-1.9-4.8-4.4h8.4c0.2,0,0.4-0.2,0.4-0.4s-0.2-0.4-0.4-0.4l0,0H7.1L11.7,965.1z M38.2,965.1l4.8,11.3
				c0,2.7-2.2,4.8-4.8,4.8c-2.5,0-4.6-1.9-4.8-4.4h8.4c0.2,0,0.4-0.2,0.4-0.4S42,976,41.8,976l0,0h-8.2L38.2,965.1z M15.7,988.8
				h18.6v4.4H15.7V988.8z"/>
		</g>
	</g>
	<g id="Ebene_5" class="st1">
		<path d="M39.8,10.9h-4.5v-2c0-0.4-0.3-0.6-0.6-0.6S34,8.5,34,8.9v1.9h-5.1V8.9c0-0.4-0.3-0.6-0.6-0.6s-0.6,0.3-0.6,0.6v1.9h-5.1
			V8.9c0-0.4-0.3-0.6-0.6-0.6s-0.6,0.3-0.6,0.6v1.9H16V8.9c0-0.4-0.3-0.6-0.6-0.6s-0.6,0.3-0.6,0.6v1.9h-4.5c-1.8,0-3.2,1.4-3.2,3.2
			v24.4c0,1.8,1.4,3.2,3.2,3.2h29.6c1.8,0,3.2-1.4,3.2-3.2V14.1C43,12.3,41.6,10.9,39.8,10.9z M10.2,12.1h4.5V14
			c0,0.4,0.3,0.6,0.6,0.6s0.6-0.3,0.6-0.6v-1.9H21V14c0,0.4,0.3,0.6,0.6,0.6s0.6-0.3,0.6-0.6v-1.9h5.1V14c0,0.4,0.3,0.6,0.6,0.6
			s0.6-0.3,0.6-0.6v-1.9H34V14c0,0.4,0.3,0.6,0.6,0.6s0.6-0.3,0.6-0.6v-1.9h4.5c1.1,0,1.9,0.8,1.9,1.9v4.5H8.3V14
			C8.3,13,9.1,12.1,10.2,12.1z M39.8,40.4H10.2c-1.1,0-1.9-0.8-1.9-1.9V19.9h33.4v18.6C41.7,39.6,40.9,40.4,39.8,40.4z"/>
	</g>
	<g id="Ebene_6" class="st1">
		<g transform="translate(0,-952.36218)">
			<path d="M25,960.4c-0.1,0-0.2,0-0.2,0.1L8.6,971.3c-0.1,0.1-0.2,0.3-0.2,0.4c0,0.2,0.2,0.3,0.4,0.3h3.9v15.4H8.8
				c-0.2,0-0.4,0.2-0.4,0.4v2.7H8.1c-0.2,0-0.4,0.2-0.4,0.4v3.1c0,0.2,0.2,0.4,0.4,0.4H42c0.2,0,0.4-0.2,0.4-0.4v-3.1
				c0-0.2-0.2-0.4-0.4-0.4h-0.4v-2.7c0-0.2-0.2-0.4-0.4-0.4h-3.9V972h3.9c0.2,0,0.3-0.1,0.4-0.3c0-0.2,0-0.3-0.2-0.4l-16.2-10.8
				C25.1,960.4,25.1,960.4,25,960.4z M25,961.3l14.9,9.9H10.1L25,961.3z M25,965c-1.1,0-1.9,0.9-1.9,1.9c0,1.1,0.9,1.9,1.9,1.9
				s1.9-0.9,1.9-1.9S26.1,965,25,965z M25,965.8c0.6,0,1.2,0.5,1.2,1.2c0,0.6-0.5,1.2-1.2,1.2s-1.2-0.5-1.2-1.2S24.4,965.8,25,965.8
				z M13.4,972h2.3v15.4h-2.3V972z M16.5,972h3.1v15.4h-3.1V972z M20.4,972h2.3v15.4h-2.3V972z M23.5,972h3.1v15.4h-3.1V972z
				 M27.3,972h2.3v15.4h-2.3V972z M30.4,972h3.1v15.4h-3.1V972z M34.2,972h2.3v15.4h-2.3V972z M9.2,988.1h31.6v2.3H9.2V988.1z
				 M8.4,991.2h33.1v2.3H8.4V991.2z"/>
		</g>
	</g>
	<g id="Ebene_1_1_" class="st1">
		<g>
			<path class="st2" d="M26.6,9c-0.2-0.7-0.8-1.2-1.6-1.2c-0.9,0-1.7,0.8-1.7,1.7s0.8,1.7,1.7,1.7c0.7,0,1.3-0.5,1.6-1.1
				c7.9,0.8,14,7.5,14,15.5c0,8.6-7,15.6-15.6,15.6s-15.6-7-15.6-15.6c0-0.3-0.2-0.5-0.5-0.5s-0.5,0.2-0.5,0.5
				c0,9.1,7.4,16.6,16.6,16.6s16.6-7.4,16.6-16.6C41.6,17,35,9.8,26.6,9z M25,10.2c-0.4,0-0.7-0.3-0.7-0.7s0.3-0.7,0.7-0.7
				s0.7,0.3,0.7,0.7S25.4,10.2,25,10.2z"/>
			<path class="st2" d="M25,23.8c-0.9,0-1.7,0.8-1.7,1.7s0.8,1.7,1.7,1.7s1.7-0.8,1.7-1.7S25.9,23.8,25,23.8z M25,26.2
				c-0.4,0-0.7-0.3-0.7-0.7s0.3-0.7,0.7-0.7s0.7,0.3,0.7,0.7S25.4,26.2,25,26.2z"/>
			<path class="st2" d="M27.3,23.9l6.9-6.9c0.2-0.2,0.2-0.5,0-0.7s-0.5-0.2-0.7,0l-6.9,6.9c-0.2,0.2-0.2,0.5,0,0.7
				C26.7,24,26.8,24,27,24S27.2,24,27.3,23.9z"/>
		</g>
	</g>
	<g id="Ebene_7" class="st1">
		<g>
			<path d="M38.2,18L20.8,35.8l-8.4-8c-0.4-0.4-1-0.3-1.3,0c-0.4,0.4-0.3,1,0,1.3l9.1,8.6c0.2,0.2,0.4,0.3,0.6,0.3s0.5-0.1,0.7-0.3
				l18.1-18.4c0.4-0.4,0.4-1,0-1.3C39.2,17.7,38.6,17.7,38.2,18z"/>
		</g>
	</g>
</g>
<g transform="translate(0,-952.36218)">
	<path class="st3" d="M21.9,959.9c-0.4,0-0.7,0.3-0.8,0.6l-1,4.2c-0.2,0.1-0.5,0.2-0.7,0.3l-3.6-2.3c-0.3-0.2-0.7-0.1-1,0.1
		l-4.4,4.4c-0.2,0.2-0.3,0.7-0.1,1l2.3,3.6c-0.1,0.2-0.2,0.5-0.3,0.7l-4.2,1c-0.3,0.1-0.6,0.4-0.6,0.8v6.2c0,0.3,0.3,0.7,0.6,0.8
		l4.2,1c0.1,0.2,0.2,0.5,0.3,0.7l-2.3,3.6c-0.2,0.3-0.1,0.7,0.1,1l4.4,4.4c0.2,0.2,0.7,0.3,1,0.1l3.6-2.3c0.2,0.1,0.5,0.2,0.7,0.3
		l1,4.2c0.1,0.3,0.4,0.6,0.8,0.6h6.2c0.3,0,0.7-0.3,0.8-0.6l1-4.2c0.2-0.1,0.5-0.2,0.7-0.3l3.6,2.3c0.3,0.2,0.7,0.1,1-0.1l4.4-4.4
		c0.2-0.2,0.3-0.7,0.1-1l-2.3-3.6c0.1-0.2,0.2-0.5,0.3-0.7l4.2-1c0.3-0.1,0.6-0.4,0.6-0.8v-6.2c0-0.4-0.3-0.7-0.6-0.8l-4.2-1
		c-0.1-0.2-0.2-0.5-0.3-0.7l2.3-3.6c0.2-0.3,0.1-0.7-0.1-1l-4.4-4.4c-0.2-0.2-0.7-0.3-1-0.1l-3.6,2.3c-0.2-0.1-0.5-0.2-0.7-0.3
		l-1-4.2c-0.1-0.3-0.4-0.6-0.8-0.6L21.9,959.9L21.9,959.9z M22.5,961.5h5l0.9,4c0.1,0.3,0.3,0.5,0.5,0.6c0.5,0.2,0.9,0.4,1.4,0.6
		c0.2,0.1,0.5,0.1,0.8,0l3.4-2.2l3.5,3.5l-2.2,3.4c-0.1,0.2-0.2,0.5,0,0.8c0.2,0.4,0.4,0.9,0.6,1.4c0.1,0.3,0.3,0.5,0.6,0.5l4,0.9v5
		l-4,0.9c-0.3,0.1-0.5,0.3-0.6,0.5c-0.2,0.5-0.3,0.9-0.6,1.4c-0.1,0.2-0.1,0.5,0,0.8l2.2,3.4l-3.5,3.5l-3.4-2.2
		c-0.2-0.1-0.5-0.2-0.8,0c-0.4,0.2-0.9,0.4-1.4,0.6c-0.2,0.1-0.4,0.3-0.5,0.6l-0.9,4h-5l-0.9-4c-0.1-0.3-0.3-0.5-0.5-0.6
		c-0.5-0.2-0.9-0.4-1.4-0.6c-0.2-0.1-0.5-0.1-0.8,0l-3.4,2.2l-3.5-3.5l2.2-3.4c0.1-0.2,0.2-0.5,0-0.8c-0.2-0.4-0.4-0.9-0.6-1.4
		c-0.1-0.3-0.3-0.5-0.6-0.5l-4-0.9v-5l4-0.9c0.3-0.1,0.5-0.3,0.6-0.5c0.2-0.5,0.3-0.9,0.6-1.4c0.1-0.2,0.1-0.5,0-0.8l-2.2-3.4
		l3.5-3.5l3.4,2.2c0.2,0.1,0.5,0.2,0.8,0c0.4-0.2,0.9-0.4,1.4-0.6c0.2-0.1,0.4-0.3,0.5-0.6L22.5,961.5L22.5,961.5z M25,968.8
		c-4.7,0-8.5,3.8-8.5,8.5c0,4.7,3.8,8.5,8.5,8.5s8.5-3.8,8.5-8.5S29.7,968.8,25,968.8L25,968.8z M25,970.4c3.9,0,7,3.1,7,7
		c0,3.9-3.1,7-7,7s-7-3.1-7-7C18,973.5,21.1,970.4,25,970.4z"/>
</g>
</svg>
