<?xml version="1.0" encoding="utf-8"?>
<!-- Generator: Adobe Illustrator 16.0.4, SVG Export Plug-In . SVG Version: 6.00 Build 0)  -->
<!DOCTYPE svg PUBLIC "-//W3C//DTD SVG 1.1//EN" "http://www.w3.org/Graphics/SVG/1.1/DTD/svg11.dtd">
<svg version="1.1" id="Layer_1" xmlns="http://www.w3.org/2000/svg" xmlns:xlink="http://www.w3.org/1999/xlink" x="0px" y="0px"
	 width="72px" height="72px" viewBox="0 0 72 72" enable-background="new 0 0 72 72" xml:space="preserve">
<linearGradient id="SVGID_1_" gradientUnits="userSpaceOnUse" x1="0" y1="36.0005" x2="72" y2="36.0005">
	<stop  offset="0" style="stop-color:#00B3CE"/>
	<stop  offset="1" style="stop-color:#00C8DD"/>
</linearGradient>
<circle fill="url(#SVGID_1_)" cx="36" cy="36" r="36"/>
<g>
	<path fill="#FFFFFF" d="M27.35,35.41l-7.193-7.153c-0.649,0.871-1.042,1.953-1.042,3.121c0,2.82,2.3,5.115,5.116,5.115
		C25.4,36.493,26.486,36.102,27.35,35.41z"/>
	<g>
		<path fill="#FFFFFF" d="M35.804,10.228c-7.499,0-14.478,3.038-19.593,8.452l-0.822,0.87l20.713,20.805v3.733l-0.08,0.081
			l-5.329-5.375c-2.474,1.645-5.638,2.125-8.626,1.084c-5.029-1.822-7.632-7.327-5.812-12.312c0.263-0.779,0.651-1.473,1.083-2.123
			l-2.295-2.298l-0.434,0.737c-2.384,3.903-3.686,8.41-3.686,13.045c-0.041,13.83,11.227,25.139,25.051,25.139h4.233V10.232
			L35.804,10.228z M18.77,19.549c4.6-4.467,10.619-6.891,17.08-6.891h0.041c0.072,0,0.143,0,0.211,0.003v24.264L18.77,19.549z"/>
		<path fill="#FFFFFF" d="M35.804,10.228c-7.499,0-14.478,3.038-19.593,8.452l-0.822,0.87l20.713,20.805v3.733l-0.08,0.081
			l-5.329-5.375c-2.474,1.645-5.638,2.125-8.626,1.084c-5.029-1.822-7.632-7.327-5.812-12.312c0.263-0.779,0.651-1.473,1.083-2.123
			l-2.295-2.298l-0.434,0.737c-2.384,3.903-3.686,8.41-3.686,13.045c-0.041,13.83,11.227,25.139,25.051,25.139h4.233V10.232
			L35.804,10.228z M18.77,19.549c4.6-4.467,10.619-6.891,17.08-6.891h0.041c0.072,0,0.143,0,0.211,0.003v24.264L18.77,19.549z"/>
	</g>
	<g>
		<path fill="#FFFFFF" d="M61,36.059c0-11.465-9.326-20.796-20.792-20.804v2.491c10.095,0.004,18.306,8.218,18.306,18.312
			c0,10.096-8.211,18.312-18.306,18.316v2.488C51.674,56.857,61,47.529,61,36.059z"/>
	</g>
	<path fill="#FFFFFF" d="M45.295,36.07l-0.987,6.189h4.835l-0.987-6.189c1.101-0.539,1.864-1.669,1.864-2.982
		c0-1.829-1.474-3.312-3.293-3.312s-3.294,1.483-3.294,3.312C43.431,34.403,44.194,35.531,45.295,36.07L45.295,36.07z"/>
	<path fill="#FFFFFF" d="M43.668,22.03c1.3,0.336,1.801-1.613,0.501-1.948C42.871,19.749,42.368,21.698,43.668,22.03"/>
	<path fill="#FFFFFF" d="M49.373,24.991c1.028,0.86,2.32-0.681,1.292-1.541C49.641,22.586,48.346,24.129,49.373,24.991"/>
	<path fill="#FFFFFF" d="M53.04,29.8c0.591,1.204,2.397,0.32,1.807-0.884C54.258,27.711,52.45,28.598,53.04,29.8"/>
	<path fill="#FFFFFF" d="M43.668,50.057c1.3-0.335,1.801,1.617,0.501,1.951C42.871,52.34,42.368,50.391,43.668,50.057"/>
	<path fill="#FFFFFF" d="M49.373,47.098c1.028-0.861,2.32,0.681,1.292,1.539C49.641,49.503,48.346,47.96,49.373,47.098"/>
	<path fill="#FFFFFF" d="M53.04,42.287c0.591-1.204,2.397-0.317,1.807,0.888C54.258,44.376,52.45,43.492,53.04,42.287"/>
	<path fill="#FFFFFF" d="M54.493,36.119c0,1.344,2.01,1.344,2.01,0C56.503,34.778,54.493,34.778,54.493,36.119"/>
</g>
</svg>
