<svg enable-background="new 0 0 50 50" viewBox="0 0 50 50" xmlns="http://www.w3.org/2000/svg"><path d="m25 960.4c-.1 0-.2 0-.2.1l-16.2 10.8c-.1.1-.2.3-.2.4 0 .2.2.3.4.3h3.9v15.4h-3.9c-.2 0-.4.2-.4.4v2.7h-.3c-.2 0-.4.2-.4.4v3.1c0 .2.2.4.4.4h33.9c.2 0 .4-.2.4-.4v-3.1c0-.2-.2-.4-.4-.4h-.4v-2.7c0-.2-.2-.4-.4-.4h-3.9v-15.4h3.9c.2 0 .3-.1.4-.3 0-.2 0-.3-.2-.4l-16.2-10.8c-.1-.1-.1-.1-.2-.1zm0 .9 14.9 9.9h-29.8zm0 3.7c-1.1 0-1.9.9-1.9 1.9 0 1.1.9 1.9 1.9 1.9s1.9-.9 1.9-1.9-.8-1.9-1.9-1.9zm0 .8c.6 0 1.2.5 1.2 1.2 0 .6-.5 1.2-1.2 1.2s-1.2-.5-1.2-1.2.6-1.2 1.2-1.2zm-11.6 6.2h2.3v15.4h-2.3zm3.1 0h3.1v15.4h-3.1zm3.9 0h2.3v15.4h-2.3zm3.1 0h3.1v15.4h-3.1zm3.8 0h2.3v15.4h-2.3zm3.1 0h3.1v15.4h-3.1zm3.8 0h2.3v15.4h-2.3zm-25 16.1h31.6v2.3h-31.6zm-.8 3.1h33.1v2.3h-33.1z" transform="translate(0 -952.36218)"/></svg>