<?xml version="1.0" encoding="utf-8"?>
<!-- Generator: Adobe Illustrator 21.1.0, SVG Export Plug-In . SVG Version: 6.00 Build 0)  -->
<svg version="1.1" id="Ebene_4" xmlns="http://www.w3.org/2000/svg" xmlns:xlink="http://www.w3.org/1999/xlink" x="0px" y="0px"
	 viewBox="0 0 50 50" style="enable-background:new 0 0 50 50;" xml:space="preserve">
<g transform="translate(0,-952.36218)">
	<path d="M15.2,994.2c-0.3,0-0.5-0.2-0.5-0.5v-5.3c0-0.3,0.2-0.5,0.4-0.5l9.3,0v-23.7c-1.9,1.2-3.7,1.8-5.7,1.8c-2,0-4-0.4-6.1-1
		l4.9,11.4c0,0.1,0,0.1,0,0.2c0,3.2-2.6,5.8-5.8,5.8s-5.8-2.6-5.8-5.8c0-0.1,0-0.1,0-0.2l5.3-12.4c0.1-0.2,0.3-0.3,0.5-0.3
		c0.1,0,0.1,0,0.2,0c2.2,0.9,4.4,1.3,6.9,1.3c2,0,3.8-0.6,5.7-2l0-1.9c0-0.3,0.2-0.5,0.5-0.5c0.4,0,0.6,0.3,0.6,0.5v2
		c1.8,1.3,3.7,1.9,5.7,1.9c2.4,0,4.7-0.4,6.9-1.3c0.1,0,0.1,0,0.2,0c0.2,0,0.4,0.1,0.5,0.3l5.3,12.4c0,0.1,0,0.1,0,0.2
		c0,3.2-2.6,5.8-5.8,5.8s-5.8-2.6-5.8-5.8c0-0.1,0-0.1,0-0.2l4.9-11.4c-2.1,0.7-4.2,1-6.1,1c-2,0-3.8-0.6-5.7-1.8v23.7h9.2
		c0.3,0,0.5,0.2,0.5,0.5v5.3c0,0.3-0.2,0.5-0.5,0.5H15.2z M34.1,993.1v-4.2H15.8v4.2H34.1z M33.5,976.9c0.3,2.4,2.3,4.2,4.7,4.2
		c2.6,0,4.7-2.1,4.8-4.7l-4.8-11.1l-4.5,10.5h8c0.3,0,0.5,0.2,0.5,0.5c0,0.3-0.2,0.5-0.5,0.5H33.5z M7,976.9
		c0.3,2.4,2.3,4.2,4.7,4.2c2.6,0,4.7-2.1,4.8-4.7l-4.8-11.1l-4.5,10.5h8c0.3,0,0.5,0.2,0.5,0.5c0,0.3-0.2,0.5-0.5,0.5H7z"/>
	<path d="M24.9,960.5c-0.2,0-0.4,0.2-0.4,0.5v2c-1.8,1.3-3.6,2-5.7,2c-2.1,0-4.4-0.3-6.9-1.3c-0.2-0.1-0.5,0-0.6,0.2L6,976.2
		c0,0.1,0,0.1,0,0.2c0,3.2,2.6,5.7,5.7,5.7s5.7-2.6,5.7-5.7c0-0.1,0-0.1,0-0.2l-4.9-11.5c2.2,0.8,4.3,1.1,6.3,1.1
		c2.1,0,4-0.7,5.7-1.8v23.9h-9.3c0,0-0.1,0-0.1,0c-0.2,0-0.4,0.2-0.4,0.4v5.3c0,0.2,0.2,0.4,0.4,0.4h19.4c0.2,0,0.4-0.2,0.4-0.4
		v-5.3c0-0.2-0.2-0.4-0.4-0.4h-9.3V964c1.7,1.1,3.6,1.8,5.7,1.8c1.9,0,4.1-0.4,6.3-1.1l-4.9,11.5c0,0.1,0,0.1,0,0.2
		c0,3.2,2.6,5.7,5.7,5.7c3.2,0,5.7-2.6,5.7-5.7c0-0.1,0-0.1,0-0.2l-5.3-12.4c-0.1-0.2-0.3-0.3-0.6-0.2c-2.5,1-4.8,1.3-6.9,1.3
		c-2.1,0-4-0.7-5.7-2v-2C25.4,960.7,25.2,960.5,24.9,960.5C24.9,960.5,24.9,960.5,24.9,960.5z M11.7,965.1l4.8,11.3
		c0,2.7-2.2,4.8-4.8,4.8c-2.5,0-4.6-1.9-4.8-4.4h8.4c0.2,0,0.4-0.2,0.4-0.4c0-0.2-0.2-0.4-0.4-0.4c0,0,0,0,0,0H7.1L11.7,965.1z
		 M38.2,965.1l4.8,11.3c0,2.7-2.2,4.8-4.8,4.8c-2.5,0-4.6-1.9-4.8-4.4h8.4c0.2,0,0.4-0.2,0.4-0.4c0-0.2-0.2-0.4-0.4-0.4c0,0,0,0,0,0
		h-8.2L38.2,965.1z M15.7,988.8h18.6v4.4H15.7V988.8z"/>
</g>
</svg>
