<svg enable-background="new 0 0 1077 881" viewBox="0 0 1077 881" xmlns="http://www.w3.org/2000/svg"><path d="m1038 396c-1.6.5-1 1.9-1 3 0 2.3-.2 4.6-.5 6.9-1.1 8.8-3.7 23.2-5.8 31.9-.4 1.8-.9 3.6-1.4 5.4-2.1 7.5-4.3 15-7.3 22.2-4.1 9.6-8.4 19.2-13.7 28.2-3.2 5.3-6.3 10.7-9.9 15.8-4.5 6.4-9.4 12.6-14.5 18.6-4.9 5.9-10.4 11.1-15.8 16.6-7.3 7.4-15.3 14-23.8 20-5.9 4.1-11.6 8.5-17.6 12.5-10.7 7-21.8 13.4-33.5 18.5-7.6 3.3-15.3 6.4-23.1 9.1-7 2.4-14.2 4.5-21.4 6.3-6 1.5-12.1 2.3-18.2 3.3-5.6 1-11.3 1.6-17 2.3-3.6.4-7.2.3-10.8.8-9.2 1.4-18.5.9-27.8.9-3.1 0-6.2-.7-9.3-.9-3-.2-6 .3-9-.1-5.7-.8-11.3-1.6-17-2-4.8-.4-9.5-2.1-14.3-2.7-10.3-1.3-20.3-4.2-30.3-6.8-5.5-1.5-11-3-16.4-4.9-12.6-4.2-25.1-8.6-37.3-13.9-4.5-1.9-9-3.9-13.6-5.5-4.2-1.4-5-4.9-2-7.4 1-.9 2-.8 3.2-.3 6.9 2.4 13.8 4.7 20.8 6.9 12.8 3.9 25.7 7.7 38.8 10.7 6.5 1.5 12.8 3.5 19.3 4.8 7.8 1.6 15.7 2.6 23.5 4.2 5.3 1 10.7 1.4 16 2.2 4.5.7 8.9.5 13.3.8s8.8 1.2 13.3 1.1c6.8-.2 13.5-.7 20.2-1.3 9.6-.8 19.3-2.5 28.8-4.5 11.3-2.3 22.4-5.5 33.2-9.5 16.9-6.2 32.8-14.7 47.5-25.2 5.1-3.6 9.6-8.1 14.3-12.1 2-1.7 4.1-3.3 6-5.1 1.8-1.7 3.3-3.5 4.9-5.3.9-1 1.6-2.1 2.5-3 8.1-8 14.9-17.1 21.3-26.5 7.5-11 13.9-22.6 19.3-34.7 4.2-9.3 7.5-19 10.2-28.9 1.6-6.1 2.4-12.4 4-18.5 1.1-4.2-.1-8.5 1.7-12.6.4-1 .1-2.3.1-3.5 0-7.3.1-14.7 0-22-.1-5.6-.2-11.2-1-16.7-2.1-14.1-4.9-28.2-10-41.5-4.5-11.8-10.3-23-17.6-33.3-4.4-6.2-8.9-12.3-14.4-17.5-5.4-5.1-10.6-10.5-16.4-15.2-5.6-4.5-11.7-8.3-17.8-12.1-5-3.2-10-6.4-15.3-8.8-9.2-4.1-18.4-8.2-28.1-11.1-7.5-2.2-14.9-4.3-22.7-5.2-5.5-.7-11-1.3-16.5-2.1-6-.9-11.9-1.1-17.8-.6-5.3.4-10.7.3-16.1 1.6-2.6.7-5.5.6-8.2 1.1-5.8.9-11.4 2.3-17.1 3.8-13.2 3.4-25.7 8.6-37.5 15.3-5.9 3.4-11.6 7.3-17.1 11.4-13.2 9.9-24.3 22.1-35.8 33.8-5.5 5.6-10.2 12-15.3 18.1s-10.3 12-15.1 18.2c-5.5 7.1-10.8 14.4-16.1 21.6-5.8 7.9-11.7 15.8-17.3 23.8-4.4 6.3-8.5 12.8-12.7 19.2-5.4 8.2-10.9 16.3-16.1 24.6-4.4 6.9-8.5 14-12.8 20.9-3.6 5.9-7.2 11.7-10.8 17.5-5.1 8.2-10.1 16.4-15.3 24.6-2.9 4.7-6 9.3-9 14-7 11-14 22.1-21 33.1-6 9.3-12.2 18.6-18.2 27.9-5.9 9-11.8 18.1-17.7 27.1-6.4 9.7-12.8 19.3-19.4 28.9-6.2 9-12.5 18-18.9 26.9-5.8 8.1-11.9 16-17.8 24.1-5.4 7.4-10.7 14.8-16.3 22.1-3.5 4.6-7.6 8.7-11 13.3-5.5 7.3-12 13.7-18.2 20.3-3.4 3.6-7.2 6.7-10.5 10.3-1.9 2-2.9 1.9-4.6.3-1.7-1.7-1.8-3.4-.4-5.2s2.9-3.6 4.4-5.3c4.3-5 8.8-9.9 12.9-15 6.5-8 12.5-16.4 17.8-25.2s10.6-17.6 15.8-26.5c5.1-8.7 10.1-17.5 15.1-26.4 2.2-3.8 4.2-7.8 6.2-11.7 4.4-8.4 8.8-16.9 13.2-25.3 5.4-10.3 10.7-20.7 16-31 13.8-27.2 28-54.2 41.3-81.7 10-20.8 20.5-41.4 30.6-62.1 4.2-8.7 8.3-17.4 12.6-26 5.1-10.2 10.4-20.4 15.7-30.5 4.3-8.1 8.6-16.2 13.1-24.2 7.5-13 15.3-25.9 22.8-38.9 8.1-14 17.4-27.3 26.4-40.7 5.2-7.7 11.1-15 16.8-22.4 3.2-4.2 6.2-8.4 9.6-12.5 3-3.7 6.3-7.2 9.6-10.7 3.7-3.9 7.5-7.6 11.3-11.3 13.6-13.4 29.2-23.9 46.6-31.6 12.2-5.4 24.8-9.6 37.9-12.4 6.6-1.4 13.4-2.4 20.2-3.4 14.5-2.1 29-1.7 43.5-1.8 4.7 1.5 9.8.4 14.5 1.9 2.6.8 5.5.8 8.2 1.1 7.3.9 14.4 2.5 21.4 4.4 11.6 3.1 22.9 7.3 33.9 12.1 8.1 3.5 15.7 8.1 23.6 12.2 6.8 3.6 13.2 7.8 19.5 12.3 3.6 2.6 7.3 5 10.6 7.9 7 6.1 14.2 12 20.5 18.7 6.6 6.9 12.9 14 18.4 21.8 3.7 5.4 7.6 10.6 11.1 16.2 5.3 8.7 10 17.6 14.1 26.9 3 6.9 5.6 13.8 7.9 21 2.4 7.6 4.7 15.1 5.8 23.1.7 4.6 2.2 9.1 2.8 13.8.7 5.2.7 10.5 1.1 15.7.1 1-.7 2.4 1 2.9v34.3z"/><path d="m39 638c3.4-2.4 4-2.5 7 .5 3.4 3.4 6.5 7.1 9.6 10.7 1.4 1.6 2.6 3.4 4.1 4.9 3.1 3.2 6.2 6.5 9.6 9.5 7.6 6.8 15.1 13.7 23.4 19.7 8.4 6.1 17 11.7 26.4 16.1 7.7 3.6 15.7 6.1 24.1 7.6 5.2.9 10.3 1.8 15.5 2.2 2.7.2 5.5.7 8.3.8 7.2.1 14.4-.9 21.5-1.8 7.6-1 15-2.8 22.2-5.3 12.4-4.3 24.1-10 34.5-18.3 4.5-3.6 9.1-7.1 13.1-11.3 4.8-5 9.8-9.7 14.7-14.7 6.7-6.8 12.9-14.1 18.7-21.7 5.2-6.8 10.8-13.2 15.9-20.1 6.4-8.8 12.5-18 18.6-27.1 6.6-9.9 13.2-19.9 19.5-30 4.6-7.3 8.9-14.9 13.3-22.3 3.9-6.6 8-13.1 11.8-19.8 3.5-6.1 6.9-12.3 10.3-18.4 3.5-6.1 7-12.2 10.5-18.3 2-3.6 3.9-7.2 5.9-10.8 4.2-7.6 8.3-15.2 12.6-22.8 5.3-9.4 10.7-18.7 16-28.1 3.6-6.4 7-13 10.6-19.4 5.6-9.8 11.4-19.5 17.1-29.2 3.8-6.5 7.5-13 11.3-19.5 3.3-5.6 6.6-11.3 10.2-16.7 8.2-12.4 16.4-24.8 24.8-37.1 4.9-7.2 10-14.1 15.2-21 4.7-6.3 9.6-12.5 14.6-18.6 2.9-3.6 6.2-6.9 9.3-10.3 3.2-3.6 6.3-7.3 9.7-10.6 7.8-7.6 15.9-14.8 24.4-21.7 7.3-5.9 15-11.1 22.7-16.4 2.8-1.9 5.9-3.4 8.9-5.1 7.4-4.1 15.1-7.9 23-10.9 8.2-3.2 16.5-6 24.8-8.8 7.2-2.4 14.7-4 22.2-5.3 3.8-.6 7.5-.4 11.3-.8 1.9-.2 2.2 1.2 2.7 2.3.6 1.4.9 3-.5 4.1-.9.7-2 1.1-3 1.6-14 7.2-27.3 15.5-39.7 25.1-4.8 3.7-9.5 7.6-13.9 11.9-2.5 2.4-5.4 4.4-7.8 6.9-5.6 6-11.1 12.2-16.5 18.4-5.5 6.3-11 12.7-16.2 19.3-5.2 6.5-10.3 13.2-15 20-9.3 13.4-18.6 26.9-27.6 40.5-6 9.1-11.6 18.5-17.4 27.8-5.2 8.3-10.4 16.6-15.5 25-3.8 6.3-7.4 12.7-11.1 19.1-5.9 10-12 19.9-17.8 29.9-4.1 6.9-7.9 13.9-12 20.8-3.4 5.8-6.8 11.5-10.2 17.3-2.9 4.9-5.8 9.9-8.8 14.7-6.3 10.3-12.6 20.6-18.9 31-5.9 9.8-11.7 19.6-17.8 29.3-5.7 9.1-11.7 18.1-17.7 27.1-4.2 6.4-8.5 12.8-13 19.1-6.5 9.2-13 18.4-19.6 27.6-5.3 7.3-10.5 14.6-15.9 21.7-3.3 4.3-6.9 8.4-10.4 12.6-4.4 5.3-8.7 10.7-13.1 16-.1.1-.2.2-.3.4-10.6 11-20.9 22.3-32.1 32.8-6.3 5.9-13.5 10.8-21.3 14.8-5.2 2.7-10.3 5.9-15.6 8.3-12.4 5.7-25.2 10.5-38.5 13.6-5.9 1.3-11.8 2.3-17.7 3.2-9.8 1.5-19.6 1-29.3.6-8.2-.4-16.4-2-24.4-4.2-14.1-3.8-27.5-9.3-40.2-16.2-7.3-4-14.2-8.7-20.8-13.8-5.4-4.1-10.2-9-15.4-13.1-5.9-4.7-10.4-10.6-15.4-16.1-6.9-7.6-13.1-15.9-18.4-24.8-.1-.2-.5-.3-.8-.5-.3-1.2-.3-2.6-.3-3.9z"/><path d="m909.2 422c-.4-5.7-.4-11.6-1.3-17.2-1.8-11.4-4-22.7-8.2-33.5-5-12.5-12-23.9-20.3-34.6-6-7.7-12.4-15.1-19.8-21.5-8.1-7.1-16.2-14.3-25.9-19.4-4.9-2.6-9.5-5.8-14.5-8.2-12.4-5.8-25.2-10.5-38.5-13.7-5.8-1.4-11.7-2.6-17.5-4.1-1.2-.3-3-.4-3.2-2.5-.2-2.7 0-3.7 2.7-4.6 4.4-1.5 9-2.6 13.5-3.8 5.2-1.4 10.6-1.5 15.8-3h.5c6.9-.3 13.9-1.5 20.7-.8 6.9.7 13.9.9 20.8 2.5 6.6 1.5 13.3 2.9 19.7 5.4 11.8 4.5 22.9 10.3 33.1 18 8.7 6.5 16.2 14.2 23.6 22 4.1 4.4 7.6 9.5 10.5 14.8 5.5 9.8 9.8 20.2 12.2 31.3 1 4.6 1.5 9.3 2.2 14 .6 4.1.7 8.2.8 12.3.1 7.6-1.3 14.9-2.8 22.3-1.6 8.1-4.1 15.8-8.2 22.9-2.6 4.5-5.5 8.8-8.5 13.2-.6.9-1.8 1.3-2.8 1.9-1.4.8-2.7.4-3.4-.9-.7-1.4-1.2-3.1-1.3-4.6-.2-2.6-.1-5.3-.1-8 .1-.1.1-.1.2-.2z"/><path d="m754.9 685c-4.6 0-7.7.1-10.9 0-6.4-.3-12.9-.1-19.2-1.1-13.9-2.1-27.8-4.4-41.4-8.5-9.8-3-19.6-6-29-9.8-10.5-4.2-20.6-9.2-30.7-14.3-16.1-8.3-31.2-18.4-46.3-28.5-3.4-2.3-6.5-5-9.8-7.5-1.3-1-2.1-3.5-1.6-4.6.7-1.4 4.2-2.2 5.8-1.2 3.2 1.9 6.5 3.8 9.7 5.8 6.1 3.6 12.1 7.3 18.2 10.7 8.4 4.7 16.9 9.4 25.5 13.7 15.5 7.6 31.4 14.2 48 19.3 9.3 2.9 18.7 5.3 28.3 7.1 6.7 1.3 13.5 2.3 20.3 3.1 3.9.5 7.9.2 11.8 1 8.1 1.6 16.2.7 24.3.8 6.7 0 13.5-.2 20.2-1 7.3-.9 14.6-1.7 21.8-3 8.4-1.6 16.6-4.1 25-6.2 10.6-2.6 20.7-6.7 30.7-11 8.9-3.8 17.2-8.9 25.8-13.3 9.7-4.9 18.5-11.1 27.3-17.3 4.3-3 8.5-6 12.8-9 1.4-1 3.3-.7 4.7.6 1.1 1.1 1.3 3.1.2 4.5-.6.8-1.3 1.5-2.1 2.1-4.9 3.9-9.7 7.8-14.6 11.6-5.6 4.3-11.1 8.7-16.8 12.8-7.9 5.6-16 10.7-24.5 15.3-10 5.5-20.5 10-31.1 14.1-9.4 3.7-19.2 5.9-28.8 8.7-4.3 1.2-9 1.3-13.5 2.2-5.8 1.2-11.7 1.3-17.5 2.2-8.1 1.1-16 .1-22.6.7z"/></svg>