<svg enable-background="new 0 0 50 50" viewBox="0 0 50 50" xmlns="http://www.w3.org/2000/svg"><path d="m39.8 10.9h-4.5v-2c0-.4-.3-.6-.6-.6s-.7.2-.7.6v1.9h-5.1v-1.9c0-.4-.3-.6-.6-.6s-.6.3-.6.6v1.9h-5.1v-1.9c0-.4-.3-.6-.6-.6s-.6.3-.6.6v1.9h-5.4v-1.9c0-.4-.3-.6-.6-.6s-.6.3-.6.6v1.9h-4.5c-1.8 0-3.2 1.4-3.2 3.2v24.4c0 1.8 1.4 3.2 3.2 3.2h29.6c1.8 0 3.2-1.4 3.2-3.2v-24.3c-.1-1.8-1.5-3.2-3.3-3.2zm-29.6 1.2h4.5v1.9c0 .4.3.6.6.6s.6-.3.6-.6v-1.9h5.1v1.9c0 .4.3.6.6.6s.6-.3.6-.6v-1.9h5.1v1.9c0 .4.3.6.6.6s.6-.3.6-.6v-1.9h5.5v1.9c0 .4.3.6.6.6s.6-.3.6-.6v-1.9h4.5c1.1 0 1.9.8 1.9 1.9v4.5h-33.3v-4.5c0-1 .8-1.9 1.9-1.9zm29.6 28.3h-29.6c-1.1 0-1.9-.8-1.9-1.9v-18.6h33.4v18.6c0 1.1-.8 1.9-1.9 1.9z"/></svg>