<svg enable-background="new 0 0 50 50" viewBox="0 0 50 50" xmlns="http://www.w3.org/2000/svg"><g fill="#010101"><path d="m26.6 9c-.2-.7-.8-1.2-1.6-1.2-.9 0-1.7.8-1.7 1.7s.8 1.7 1.7 1.7c.7 0 1.3-.5 1.6-1.1 7.9.8 14 7.5 14 15.5 0 8.6-7 15.6-15.6 15.6s-15.6-7-15.6-15.6c0-.3-.2-.5-.5-.5s-.5.2-.5.5c0 9.1 7.4 16.6 16.6 16.6s16.6-7.4 16.6-16.6c0-8.6-6.6-15.8-15-16.6zm-1.6 1.2c-.4 0-.7-.3-.7-.7s.3-.7.7-.7.7.3.7.7-.3.7-.7.7z"/><path d="m25 23.8c-.9 0-1.7.8-1.7 1.7s.8 1.7 1.7 1.7 1.7-.8 1.7-1.7-.8-1.7-1.7-1.7zm0 2.4c-.4 0-.7-.3-.7-.7s.3-.7.7-.7.7.3.7.7-.3.7-.7.7z"/><path d="m27.3 23.9 6.9-6.9c.2-.2.2-.5 0-.7s-.5-.2-.7 0l-6.9 6.9c-.2.2-.2.5 0 .7.1.1.2.1.4.1s.2 0 .3-.1z"/></g></svg>