<?xml version="1.0" encoding="utf-8"?>
<!-- Generator: Adobe Illustrator 21.1.0, SVG Export Plug-In . SVG Version: 6.00 Build 0)  -->
<svg version="1.1" id="Ebene_6" xmlns="http://www.w3.org/2000/svg" xmlns:xlink="http://www.w3.org/1999/xlink" x="0px" y="0px"
	 viewBox="0 0 50 50" style="enable-background:new 0 0 50 50;" xml:space="preserve">
<g transform="translate(0,-952.36218)">
	<path d="M25,960.4c-0.1,0-0.2,0-0.2,0.1L8.6,971.3c-0.1,0.1-0.2,0.3-0.2,0.4c0,0.2,0.2,0.3,0.4,0.3h3.9v15.4H8.8
		c-0.2,0-0.4,0.2-0.4,0.4v2.7H8.1c-0.2,0-0.4,0.2-0.4,0.4v3.1c0,0.2,0.2,0.4,0.4,0.4h33.9c0.2,0,0.4-0.2,0.4-0.4v-3.1
		c0-0.2-0.2-0.4-0.4-0.4h-0.4v-2.7c0-0.2-0.2-0.4-0.4-0.4h-3.9V972h3.9c0.2,0,0.3-0.1,0.4-0.3c0-0.2,0-0.3-0.2-0.4l-16.2-10.8
		C25.1,960.4,25.1,960.4,25,960.4z M25,961.3l14.9,9.9H10.1L25,961.3z M25,965c-1.1,0-1.9,0.9-1.9,1.9c0,1.1,0.9,1.9,1.9,1.9
		s1.9-0.9,1.9-1.9C26.9,965.9,26.1,965,25,965z M25,965.8c0.6,0,1.2,0.5,1.2,1.2c0,0.6-0.5,1.2-1.2,1.2s-1.2-0.5-1.2-1.2
		C23.8,966.3,24.4,965.8,25,965.8z M13.4,972h2.3v15.4h-2.3V972z M16.5,972h3.1v15.4h-3.1V972z M20.4,972h2.3v15.4h-2.3V972z
		 M23.5,972h3.1v15.4h-3.1V972z M27.3,972h2.3v15.4h-2.3V972z M30.4,972h3.1v15.4h-3.1V972z M34.2,972h2.3v15.4h-2.3V972z
		 M9.2,988.1h31.6v2.3H9.2V988.1z M8.4,991.2h33.1v2.3H8.4V991.2z"/>
</g>
</svg>
