<svg enable-background="new 0 0 50 50" viewBox="0 0 50 50" xmlns="http://www.w3.org/2000/svg"><path d="m33.6 27.5c-2.3 1.4-5.3 2.2-8.6 2.2s-6.3-.8-8.6-2.2c-2.1-1.3-3.3-3-3.3-4.8s1.2-3.5 3.3-4.8c2.3-1.4 5.3-2.2 8.6-2.2 3.2 0 6.3.8 8.6 2.2 2.1 1.3 3.3 3 3.3 4.8s-1.2 3.5-3.3 4.8zm3.3-.3c0 1.8-1.2 3.5-3.3 4.8-2.3 1.4-5.3 2.2-8.6 2.2-3.2 0-6.3-.8-8.6-2.2-2.1-1.3-3.3-3-3.3-4.8v-.2c.6.7 1.5 1.4 2.4 2 2.5 1.6 5.9 2.4 9.4 2.4 3.6 0 6.9-.9 9.4-2.4 1-.6 1.8-1.3 2.4-2v.2zm-2.5-10.7c-2.5-1.6-5.9-2.4-9.4-2.4-3.6 0-6.9.9-9.4 2.4-2.6 1.6-4 3.7-4.1 5.9v4.8c0 2.4 1.5 4.6 4.1 6.2 2.5 1.6 5.9 2.4 9.4 2.4 3.6 0 6.9-.9 9.4-2.4 2.7-1.6 4.1-3.8 4.1-6.2v-4.6c.1-2.3-1.4-4.5-4.1-6.1z"/></svg>