<?xml version="1.0" encoding="utf-8"?>
<!-- Generator: Adobe Illustrator 21.1.0, SVG Export Plug-In . SVG Version: 6.00 Build 0)  -->
<svg version="1.1" id="Ebene_1" xmlns="http://www.w3.org/2000/svg" xmlns:xlink="http://www.w3.org/1999/xlink" x="0px" y="0px"
	 viewBox="0 0 50 50" style="enable-background:new 0 0 50 50;" xml:space="preserve">
<style type="text/css">
	.st0{stroke:#FFFFFF;stroke-width:0.75;stroke-miterlimit:10;}
</style>
<path class="st0" d="M24.3,21.2c0-2.2-4-3.1-8-3.1s-8,1-8,3.1v1.9c0,2.2,4,3.1,8,3.1s8-1,8-3.1V21.2z M22.5,23.1
	c-0.2,0.4-2.3,1.4-6.2,1.4s-6-1-6.2-1.4v-1.9c0.2-0.4,2.3-1.4,6.2-1.4s6,1,6.2,1.4V23.1z M24.3,28.4c0,2.2-4,3.1-8,3.1s-8-1-8-3.1
	v-1.6c0-0.5,0.4-0.9,0.9-0.9c0.5,0,0.9,0.4,0.9,0.9v1.6c0.2,0.4,2.3,1.4,6.2,1.4s6-1,6.2-1.4v-1.6c0-0.5,0.4-0.9,0.9-0.9
	s0.9,0.4,0.9,0.9V28.4z M24.3,33.6c0,2.2-4,3.1-8,3.1s-8-1-8-3.2V32c0-0.5,0.4-0.9,0.9-0.9c0.5,0,0.9,0.4,0.9,0.9v1.6
	c0.2,0.4,2.3,1.4,6.2,1.4s6-1,6.2-1.4V32c0-0.5,0.4-0.9,0.9-0.9s0.9,0.4,0.9,0.9V33.6z M41.6,26.4c0-2.2-4-3.1-8-3.1s-8,1-8,3.1v1.9
	c0,2.2,4,3.1,8,3.1s8-1,8-3.1V26.4z M39.8,28.3c-0.2,0.4-2.3,1.4-6.2,1.4s-6-1-6.2-1.4v-1.9c0.2-0.4,2.3-1.4,6.2-1.4s6,1,6.2,1.4
	V28.3z M41.6,33.6c0,2.2-4,3.1-8,3.1s-8-1-8-3.1V32c0-0.5,0.4-0.9,0.9-0.9c0.5,0,0.9,0.4,0.9,0.9v1.6c0.2,0.4,2.3,1.4,6.2,1.4
	s6-1,6.2-1.4V32c0-0.5,0.4-0.9,0.9-0.9s0.9,0.4,0.9,0.9V33.6z M27.5,37.3v1.6c0.2,0.4,2.3,1.4,6.2,1.4s6-1,6.2-1.4v-1.6
	c0-0.5,0.4-0.9,0.9-0.9s0.9,0.4,0.9,0.9v1.6c0,2.2-4,3.1-8,3.1s-8-1-8-3.1v-1.6c0-0.5,0.4-0.9,0.9-0.9
	C27.1,36.4,27.5,36.8,27.5,37.3z M16.4,42c-4,0-8-1-8-3.1v-1.6c0-0.5,0.4-0.9,0.9-0.9c0.5,0,0.9,0.4,0.9,0.9v1.6
	c0.2,0.4,2.3,1.4,6.2,1.4s6-1,6.2-1.4v-1.6c0-0.5,0.4-0.9,0.9-0.9s0.9,0.4,0.9,0.9v1.6C24.3,41,20.3,42,16.4,42z M39,14.7
	c0.3-0.7,0.2-1.4-0.3-2l0,0l-3.3-3.9C35,8.3,34.4,8,33.6,8l0,0c-0.7,0-1.4,0.3-1.9,0.9l-3.3,3.9c-0.7,0.8-0.5,2,0.2,2.6
	c0.3,0.3,0.8,0.4,1.2,0.4h0.5l-0.1,4.4c0,1.1,0.8,1.9,1.8,2c0,0,0.1,0,0.1,0H35c1.1,0,1.9-0.9,1.9-1.9c0,0,0,0,0-0.1l-0.1-4.4h0.5
	C38.1,15.8,38.7,15.4,39,14.7z M35.9,14c-0.5,0-0.9,0.4-0.9,0.9c0,0,0,0,0,0l0.2,5.3c0,0.1-0.1,0.1-0.1,0.1c0,0,0,0,0,0h-2.8
	c-0.1,0-0.1-0.1-0.1-0.1c0,0,0,0,0,0l0.2-5.3c0-0.5-0.4-0.9-0.9-0.9c0,0,0,0,0,0h-1.5c0,0-0.1,0-0.1-0.1c0,0,0,0,0-0.1l3.3-3.9
	c0.1-0.1,0.3-0.2,0.5-0.2l0,0c0.2,0,0.4,0.1,0.5,0.2l3.3,3.9c0,0,0,0.1,0,0.1c0,0,0,0-0.1,0H35.9z"/>
</svg>
