<svg enable-background="new 0 0 50 50" viewBox="0 0 50 50" xmlns="http://www.w3.org/2000/svg"><path d="m21.9 959.9c-.4 0-.7.3-.8.6l-1 4.2c-.2.1-.5.2-.7.3l-3.6-2.3c-.3-.2-.7-.1-1 .1l-4.4 4.4c-.2.2-.3.7-.1 1l2.3 3.6c-.1.2-.2.5-.3.7l-4.2 1c-.3.1-.6.4-.6.8v6.2c0 .3.3.7.6.8l4.2 1c.1.2.2.5.3.7l-2.3 3.6c-.2.3-.1.7.1 1l4.4 4.4c.2.2.7.3 1 .1l3.6-2.3c.2.1.5.2.7.3l1 4.2c.1.3.4.6.8.6h6.2c.3 0 .7-.3.8-.6l1-4.2c.2-.1.5-.2.7-.3l3.6 2.3c.3.2.7.1 1-.1l4.4-4.4c.2-.2.3-.7.1-1l-2.3-3.6c.1-.2.2-.5.3-.7l4.2-1c.3-.1.6-.4.6-.8v-6.2c0-.4-.3-.7-.6-.8l-4.2-1c-.1-.2-.2-.5-.3-.7l2.3-3.6c.2-.3.1-.7-.1-1l-4.4-4.4c-.2-.2-.7-.3-1-.1l-3.6 2.3c-.2-.1-.5-.2-.7-.3l-1-4.2c-.1-.3-.4-.6-.8-.6zm.6 1.6h5l.9 4c.1.3.3.5.5.6.5.2.9.4 1.4.6.2.1.5.1.8 0l3.4-2.2 3.5 3.5-2.2 3.4c-.1.2-.2.5 0 .8.2.4.4.9.6 1.4.1.3.3.5.6.5l4 .9v5l-4 .9c-.3.1-.5.3-.6.5-.2.5-.3.9-.6 1.4-.1.2-.1.5 0 .8l2.2 3.4-3.5 3.5-3.4-2.2c-.2-.1-.5-.2-.8 0-.4.2-.9.4-1.4.6-.2.1-.4.3-.5.6l-.9 4h-5l-.9-4c-.1-.3-.3-.5-.5-.6-.5-.2-.9-.4-1.4-.6-.2-.1-.5-.1-.8 0l-3.4 2.2-3.5-3.5 2.2-3.4c.1-.2.2-.5 0-.8-.2-.4-.4-.9-.6-1.4-.1-.3-.3-.5-.6-.5l-4-.9v-5l4-.9c.3-.1.5-.3.6-.5.2-.5.3-.9.6-1.4.1-.2.1-.5 0-.8l-2.2-3.4 3.5-3.5 3.4 2.2c.2.1.5.2.8 0 .4-.2.9-.4 1.4-.6.2-.1.4-.3.5-.6zm2.5 7.3c-4.7 0-8.5 3.8-8.5 8.5s3.8 8.5 8.5 8.5 8.5-3.8 8.5-8.5-3.8-8.5-8.5-8.5zm0 1.6c3.9 0 7 3.1 7 7s-3.1 7-7 7-7-3.1-7-7 3.1-7 7-7z" fill="#fff" transform="translate(0 -952.36218)"/></svg>