<svg class="svg-icon svg-civic-icon" viewBox="0 0 329.99 343.98" version="1.1" xmlns="http://www.w3.org/2000/svg" xmlns:xlink="http://www.w3.org/1999/xlink" role="img">
    <path d="M317.73,216.25a21.2,21.2,0,0,0-28.22,10.29A129.53,129.53,0,1,1,286,110.36a21.23,21.23,0,1,0,37.33-20.23A172,172,0,0,0,172,0C77.15,0,0,77.15,0,172S77.15,344,172,344a172.69,172.69,0,0,0,156-99.52A21.27,21.27,0,0,0,317.73,216.25Z"></path>
    <path class="cls-1" d="M162.82,115.23a31.4,31.4,0,0,0-25.37,26.94,30.81,30.81,0,0,0,11,27.58v59.58H190V169.69a30.82,30.82,0,0,0,11-20.1C203.44,128,184.6,111.25,162.82,115.23Z"></path>
</svg>