<?xml version="1.0" encoding="UTF-8"?>
<svg width="50px" height="50px" viewBox="0 0 50 50" version="1.1" xmlns="http://www.w3.org/2000/svg" xmlns:xlink="http://www.w3.org/1999/xlink">
    <!-- Generator: Sketch 49.3 (51167) - http://www.bohemiancoding.com/sketch -->
    <title>token-default</title>
    <desc>Created with Sketch.</desc>
    <defs></defs>
    <g id="token-default" stroke="none" stroke-width="1" fill="none" fill-rule="evenodd">
        <g id="Page-1" fill="#CED3DB">
            <path d="M25.671402,44.7774754 C25.671402,44.0774087 26.1982724,43.4661289 26.8961768,43.377307 C27.597532,43.2885201 28.2099369,43.9032094 28.2989222,44.5998316 C28.3878725,45.2998983 27.7720519,45.9111781 27.0741475,46 L26.9851972,46 C26.2838419,46 25.6714371,45.4775071 25.6714371,44.7774754 L25.671402,44.7774754 Z M21.466669,45.6517064 C20.7653138,45.4775421 20.3273763,44.7774754 20.4163616,44.0773912 C20.5908465,43.3773245 21.2922017,42.9401915 21.9935744,43.0290134 C22.6949296,43.2031777 23.1328672,43.9032444 23.0438818,44.6033286 C22.9549315,45.2146084 22.3425266,45.6517064 21.7301217,45.6517064 C21.6411714,45.7404933 21.5522211,45.6517064 21.4666866,45.6517064 L21.466669,45.6517064 Z M30.8372819,44.0773912 C30.5738467,43.3773245 30.9262322,42.6772228 31.6241716,42.4177511 C32.3255268,42.1547999 33.0269171,42.506538 33.2868664,43.2031952 C33.5503016,43.9032619 33.1979161,44.6033635 32.4999767,44.8628353 C32.3254918,44.9516222 32.2365415,44.9516222 32.0620566,44.9516222 C31.5386021,44.9516222 31.0117492,44.6032936 30.8372819,44.0773912 Z M16.2116287,43.81444 C15.5992238,43.4661114 15.3357886,42.6772403 15.6847583,42.065978 C16.033728,41.4546982 16.8240511,41.191747 17.4364384,41.5400756 C18.0488258,41.8884042 18.3122785,42.6772753 17.9633088,43.2885376 C17.6998736,43.7256531 17.2619536,43.9886043 16.824016,43.9886043 C16.5605809,43.9920225 16.386096,43.9032269 16.2116111,43.81444 L16.2116287,43.81444 Z M35.6544022,41.9805656 C35.2164822,41.3692858 35.3909671,40.5803973 35.9178374,40.1432818 C36.5302423,39.7061663 37.3205829,39.8803306 37.7585029,40.406233 C38.1964229,41.0175128 38.0219381,41.8064013 37.4095332,42.2435168 C37.146098,42.4176811 36.8826628,42.506468 36.6226434,42.506468 C36.3557837,42.5030498 35.9178637,42.3288942 35.6544022,41.9805656 Z M11.5688005,40.5803973 C11.0419301,40.0544949 11.0419301,39.2690508 11.4798502,38.7431134 C12.0067205,38.217211 12.7936103,38.217211 13.3205156,38.6543265 C13.847386,39.1802289 13.847386,39.965673 13.409466,40.4916104 C13.1460308,40.7545616 12.7970611,40.9287259 12.4446405,40.9287259 C12.1812054,40.9321441 11.8322357,40.8433485 11.5688005,40.5803973 Z M39.7699747,38.6577885 C39.1575698,38.220673 39.0686195,37.346442 39.5954898,36.8205046 C40.0334099,36.2946022 40.9092499,36.1204379 41.4361553,36.6463403 C41.9630257,37.0834558 42.0485602,37.9576868 41.6106402,38.4836242 C41.347205,38.8319528 40.9982353,38.9207397 40.5603328,38.9207397 C40.2968976,38.9207397 39.9445121,38.8319528 39.7700272,38.6577885 L39.7699747,38.6577885 Z M8.06544022,36.2980642 C7.71647051,35.6867844 7.89095537,34.8978958 8.50336026,34.4607803 C9.11576515,34.1124517 9.9061057,34.286616 10.3440257,34.8978958 C10.6929954,35.5091756 10.5185106,36.2980642 9.9061057,36.7351797 C9.73162084,36.8239666 9.46818567,36.909344 9.2047505,36.909344 C8.67788015,36.909344 8.23992508,36.7351797 8.06545774,36.2980642 L8.06544022,36.2980642 Z M42.7504584,34.3754553 C42.0491032,34.1125041 41.785633,33.3270775 42.0491032,32.6269934 C42.3125384,31.9269267 43.0994106,31.6639405 43.8007834,31.9269267 C44.5021561,32.1899128 44.7656088,32.9753045 44.5021386,33.6753886 C44.3276537,34.201291 43.8007834,34.4608327 43.2773638,34.4608327 C43.0994632,34.4608327 42.9249783,34.4608327 42.7504935,34.3754553 L42.7504584,34.3754553 Z M5.78738022,31.1380905 C5.61289536,30.4380238 5.96186508,29.7379222 6.66322028,29.5637754 C7.36457549,29.3896111 8.06596573,29.7379397 8.32591506,30.4380064 C8.50039992,31.1380731 8.1514302,31.8381747 7.45007499,32.0976465 C7.36112468,32.0976465 7.18663982,32.1864334 7.10110528,32.1864334 C6.48870039,32.101056 5.9652283,31.7527361 5.78734518,31.1380556 L5.78738022,31.1380905 Z M44.5021386,29.3896285 C43.8007834,29.3008416 43.2773638,28.6041845 43.3628458,27.9041352 C43.4517961,27.2040685 44.1497356,26.6816106 44.8510732,26.7669356 C45.5524285,26.8557225 46.075848,27.5523797 45.990366,28.2524289 C45.9014157,28.9524956 45.2890108,29.3896285 44.6766059,29.3896285 C44.5876556,29.4784154 44.5876556,29.3896285 44.502121,29.3896285 L44.5021386,29.3896285 Z M5,25.6331454 C5,24.8477013 5.61240489,24.232977 6.3137601,24.232977 C7.0151153,24.232977 7.62752019,24.8442568 7.62752019,25.5443235 C7.62752019,26.2443902 7.0151153,26.85567 6.3137601,26.85567 C5.61240489,26.9444569 5,26.3297676 5,25.6331454 Z M43.3626706,23.0958648 C43.2737203,22.3957981 43.8005907,21.6956964 44.5019634,21.6103715 C45.2033186,21.5215846 45.9047088,22.0474869 45.9901908,22.7475711 C46.0791412,23.4476378 45.5522708,24.1477395 44.8508981,24.2330644 L44.6764132,24.2330644 C43.975058,24.2330644 43.4482227,23.707162 43.3626531,23.0958648 L43.3626706,23.0958648 Z M6.66322028,21.6103715 C5.96186508,21.4362072 5.52392753,20.7361405 5.78738022,19.9507313 C5.96186508,19.2506646 6.66322028,18.8135316 7.364593,19.0765003 C8.06594821,19.2506646 8.50388576,20.0395532 8.24043307,20.7361405 C8.06594821,21.3474203 7.53907786,21.6991933 7.01565832,21.6991933 C6.92670801,21.6991933 6.75222315,21.6104064 6.66327283,21.6104064 L6.66322028,21.6103715 Z M42.0489105,18.3764161 C41.7854754,17.6763495 42.0489105,16.9762478 42.7502658,16.6279542 C43.451621,16.365003 44.2384932,16.6279542 44.5019459,17.3280209 C44.7653811,18.0280875 44.5019459,18.7281892 43.8005907,19.0764828 C43.6261058,19.1652697 43.451621,19.1652697 43.2737203,19.1652697 C42.7502658,19.1618515 42.2234129,18.8989003 42.0489456,18.3764161 L42.0489105,18.3764161 Z M8.41490041,16.6279542 C7.80249552,16.2796256 7.62801066,15.4907545 7.97698038,14.7906703 C8.32595009,14.1793905 9.20175512,14.0052262 9.81764586,14.3535548 C10.4300507,14.7018834 10.6045356,15.5760794 10.2555659,16.1908387 C9.99213071,16.6279542 9.55421068,16.8021185 9.11627313,16.8021185 C8.85283796,16.8909054 8.6783531,16.8021185 8.41491793,16.6279542 L8.41490041,16.6279542 Z M39.5072227,14.179408 C39.0693026,13.6535056 39.158253,12.7792396 39.6817075,12.3421241 C40.2085779,11.9050086 41.084453,11.9937955 41.522373,12.5162884 C41.960293,13.0421908 41.8713427,13.9164568 41.3478882,14.3535723 C41.084453,14.5277366 40.8210178,14.6165235 40.4720481,14.6165235 C40.1230784,14.7053104 39.7706929,14.5277366 39.5072227,14.179408 Z M11.4803406,12.3421241 C10.9534703,11.8162217 11.0424206,11.0307776 11.569291,10.5048403 C12.0961613,9.97890289 12.9720364,10.0677248 13.4099564,10.5936272 C13.9368268,11.1195296 13.8478765,11.9937955 13.3210061,12.430911 C13.0575709,12.6938622 12.7086012,12.7792396 12.445166,12.7792396 C12.0961963,12.7792396 11.7438108,12.6938622 11.4803406,12.3421241 Z M35.9180301,10.8566308 C35.3056252,10.4195153 35.2166749,9.63410618 35.5690604,9.01934695 C36.0069804,8.40806715 36.7938351,8.31928025 37.4097259,8.67101835 C38.0221308,9.10813385 38.1110811,9.89354297 37.7586956,10.5083022 C37.4952604,10.8566308 37.0573404,11.0342046 36.7083882,11.0342046 C36.4415285,11.119582 36.1815178,11.0307864 35.9180826,10.8566308 L35.9180301,10.8566308 Z M15.5100808,9.10816881 C15.1611111,8.49688902 15.4211305,7.70800045 16.0369511,7.35970682 C16.649356,7.01137822 17.4396966,7.27091992 17.7886312,7.88560922 C18.137601,8.49688902 17.8775816,9.28577758 17.2617609,9.63407121 C17.087276,9.72285811 16.8238409,9.80823551 16.649356,9.80823551 C16.211436,9.80823551 15.7735159,9.54528431 15.5100633,9.10816881 L15.5100808,9.10816881 Z M31.5388298,8.67105332 C30.8374746,8.40810212 30.4885224,7.70800045 30.75194,7.01141319 C31.0153752,6.31134649 31.7167654,5.96303538 32.4146348,6.2259691 C33.11599,6.48892029 33.4649422,7.18902196 33.2015246,7.88560922 C33.0270397,8.41151162 32.5001693,8.75984022 31.9767498,8.75984022 C31.8877995,8.75984022 31.7133146,8.67105332 31.5388298,8.67105332 Z M20.3272011,7.01141319 C20.1527163,6.31134649 20.5906363,5.61124483 21.3775085,5.43709801 C22.0788637,5.26293371 22.780254,5.78542661 22.9547213,6.48547582 C23.1291887,7.18552504 22.6057516,7.88564419 21.9044139,8.059791 L21.6409787,8.059791 C21.0285738,8.059791 20.501686,7.62267551 20.3272186,7.01141319 L20.3272011,7.01141319 Z M26.8070162,7.62269299 C26.105661,7.53390609 25.4932562,6.92262629 25.5822415,6.22252463 C25.5822415,5.52245793 26.2835967,5 26.9849869,5 C27.6863422,5 28.298747,5.7000667 28.2097617,6.40016836 C28.1208114,7.09682556 27.5973568,7.62269299 26.8070162,7.62269299 Z" id="Fill-1"></path>
            <path d="M25,50 C11.2289474,50 0,38.7710526 0,25 C0,11.2289474 11.2289474,0 25,0 C38.7710526,0 50,11.2289474 50,25 C50,38.7710526 38.7710526,50 25,50 Z M25,2.63157895 C12.6298246,2.63157895 2.63157895,12.6298246 2.63157895,25 C2.63157895,37.3701754 12.6298246,47.3684211 25,47.3684211 C37.3701754,47.3684211 47.3684211,37.3701754 47.3684211,25 C47.3684211,12.6298246 37.3701754,2.63157895 25,2.63157895 Z" id="Fill-2"></path>
        </g>
    </g>
</svg>