<svg height="50" viewBox="0 0 50 50" width="50" xmlns="http://www.w3.org/2000/svg"><g fill="#ced3db" fill-rule="evenodd"><path d="m25.671402 44.7774754c0-.7000667.5268704-1.3113465 1.2247748-1.4001684.7013552-.0887869 1.3137601.5259024 1.4027454 1.2225246.0889503.7000667-.5268703 1.3113465-1.2247747 1.4001684h-.0889503c-.7013553 0-1.3137601-.5224929-1.3137601-1.2225246zm-4.204733.874231c-.7013552-.1741643-1.1392927-.874231-1.0503074-1.5743152.1744849-.7000667.8758401-1.1371997 1.5772128-1.0483778.7013552.1741643 1.1392928.874231 1.0503074 1.5743152-.0889503.6112798-.7013552 1.0483778-1.3137601 1.0483778-.0889503.0887869-.1779006 0-.2634351 0zm9.3706129-1.5743152c-.2634352-.7000667.0889503-1.4001684.7868897-1.6596401.7013552-.2629512 1.4027455.0887869 1.6626948.7854441.2634352.7000667-.0889503 1.4001683-.7868897 1.6596401-.1744849.0887869-.2634352.0887869-.4379201.0887869-.5234545 0-1.0503074-.3483286-1.2247747-.874231zm-14.6256532-.2629512c-.6124049-.3483286-.8758401-1.1371997-.5268704-1.748462.3489697-.6112798 1.1392928-.874231 1.7516801-.5259024.6123874.3483286.8758401 1.1371997.5268704 1.748462-.2634352.4371155-.7013552.7000667-1.1392928.7000667-.2634351.0034182-.43792-.0853774-.6124049-.1741643zm19.4427735-1.8338744c-.43792-.6112798-.2634351-1.4001683.2634352-1.8372838.6124049-.4371155 1.4027455-.2629512 1.8406655.2629512.43792.6112798.2634352 1.4001683-.3489697 1.8372838-.2634352.1741643-.5268704.2629512-.7868898.2629512-.2668597-.0034182-.7047797-.1775738-.9682412-.5259024zm-24.0856017-1.4001683c-.5268704-.5259024-.5268704-1.3113465-.0889503-1.8372839.5268703-.5259024 1.3137601-.5259024 1.8406654-.0887869.5268704.5259024.5268704 1.3113465.0889504 1.8372839-.2634352.2629512-.6124049.4371155-.9648255.4371155-.2634351.0034182-.6124048-.0853774-.87584-.3483286zm28.2011742-1.9226088c-.6124049-.4371155-.7013552-1.3113465-.1744849-1.8372839.4379201-.5259024 1.3137601-.7000667 1.8406655-.1741643.5268704.4371155.6124049 1.3113465.1744849 1.8372839-.2634352.3483286-.6124049.4371155-1.0503074.4371155-.2634352 0-.6158207-.0887869-.7903056-.2629512zm-31.70453448-2.3597243c-.34896971-.6112798-.17448485-1.4001684.43792004-1.8372839.61240489-.3483286 1.40274544-.1741643 1.84066544.4371155.3489697.6112798.1744849 1.4001684-.43792 1.8372839-.17448486.0887869-.43792003.1741643-.7013552.1741643-.52687035 0-.96482542-.1741643-1.13929276-.6112798zm34.68501818-1.9226089c-.7013552-.2629512-.9648254-1.0483778-.7013552-1.7484619.2634352-.7000667 1.0503074-.9630529 1.7516802-.7000667.7013727.2629861.9648254 1.0483778.7013552 1.7484619-.1744849.5259024-.7013552.7854441-1.2247748.7854441-.1779006 0-.3523855 0-.5268703-.0853774zm-36.96307818-3.2373648c-.17448486-.7000667.17448486-1.4001683.87584006-1.5743151.70135521-.1741643 1.40274545.1741643 1.66269478.874231.17448486.7000667-.17448486 1.4001683-.87584007 1.6596401-.08895031 0-.26343517.0887869-.34896971.0887869-.61240489-.0853774-1.13587698-.4336973-1.3137601-1.0483778zm38.71475838-1.748462c-.7013552-.0887869-1.2247748-.785444-1.1392928-1.4854933.0889503-.7000667.7868898-1.2225246 1.4882274-1.1371996.7013553.0887869 1.2247748.7854441 1.1392928 1.4854933-.0889503.7000667-.7013552 1.1371996-1.3137601 1.1371996-.0889503.0887869-.0889503 0-.1744849 0zm-39.5021386-3.7564831c0-.7854441.61240489-1.4001684 1.3137601-1.4001684.7013552 0 1.31376009.6112798 1.31376009 1.3113465s-.61240489 1.3113465-1.31376009 1.3113465c-.70135521.0887869-1.3137601-.5259024-1.3137601-1.2225246zm38.3626706-2.5372806c-.0889503-.7000667.4379201-1.4001684 1.1392928-1.4854933.7013552-.0887869 1.4027454.4371154 1.4882274 1.1371996.0889504.7000667-.43792 1.4001684-1.1392927 1.4854933h-.1744849c-.7013552 0-1.2281905-.5259024-1.3137601-1.1371996zm-36.69945032-1.4854933c-.7013552-.1741643-1.13929275-.874231-.87584006-1.6596402.17448486-.7000667.87584006-1.1371997 1.57721278-.874231.70135521.1741643 1.13929276.9630529.87584007 1.6596402-.17448486.6112798-.70135521.9630528-1.22477475.9630528-.08895031 0-.26343517-.0887869-.35238549-.0887869zm35.38569022-3.2339554c-.2634351-.7000666 0-1.4001683.7013553-1.7484619.7013552-.2629512 1.4882274 0 1.7516801.7000667.2634352.7000666 0 1.4001683-.7013552 1.7484619-.1744849.0887869-.3489697.0887869-.5268704.0887869-.5234545-.0034182-1.0503074-.2663694-1.2247747-.7888536zm-33.63401009-1.7484619c-.61240489-.3483286-.78688975-1.1371997-.43792003-1.8372839.34896971-.6112798 1.22477474-.7854441 1.84066548-.4371155.61240484.3483286.78688974 1.2225246.43792004 1.8372839-.26343519.4371155-.70135522.6112798-1.13929277.6112798-.26343517.0887869-.43792003 0-.7013552-.1741643zm31.09232229-2.4485462c-.4379201-.5259024-.3489697-1.4001684.1744848-1.8372839.5268704-.4371155 1.4027455-.3483286 1.8406655.1741643.43792.5259024.3489697 1.4001684-.1744848 1.8372839-.2634352.1741643-.5268704.2629512-.8758401.2629512-.3489697.0887869-.7013552-.0887869-.9648254-.4371155zm-28.0268821-1.8372839c-.5268703-.5259024-.43792-1.3113465.0889504-1.8372838.5268703-.52593741 1.4027454-.4371155 1.8406654.0887869.5268704.5259024.4379201 1.4001683-.0889503 1.8372838-.2634352.2629512-.6124049.3483286-.8758401.3483286-.3489697 0-.7013552-.0853774-.9648254-.4371155zm24.4376895-1.4854933c-.6124049-.4371155-.7013552-1.22252462-.3489697-1.83728385.43792-.6112798 1.2247747-.7000667 1.8406655-.3483286.6124049.4371155.7013552 1.22252462.3489697 1.83728385-.2634352.3483286-.7013552.5259024-1.0503074.5259024-.2668597.0853774-.5268704-.0034182-.7903056-.1775738zm-20.4079493-1.74846199c-.3489697-.61127979-.0889503-1.40016836.5268703-1.74846199.6124049-.3483286 1.4027455-.0887869 1.7516801.5259024.3489698.6112798.0889504 1.40016836-.5268703 1.74846199-.1744849.0887869-.43792.1741643-.6124049.1741643-.43792 0-.8758401-.2629512-1.1392927-.7000667zm16.028749-.43711549c-.7013552-.2629512-1.0503074-.96305287-.7868898-1.65964013.2634352-.7000667.9648254-1.04837781 1.6626948-.78544409.7013552.26295119 1.0503074.96305286.7868898 1.65964012-.1744849.5259024-.7013553.874231-1.2247748.874231-.0889503 0-.2634352-.0887869-.43792-.0887869zm-11.2116287-1.65964013c-.1744848-.7000667.2634352-1.40016836 1.0503074-1.57431518.7013552-.1741643 1.4027455.3483286 1.5772128 1.04837781.1744674.70004922-.3489697 1.40016837-1.0503074 1.57431518h-.2634352c-.6124049 0-1.1392927-.43711549-1.3137601-1.04837781zm6.4798151.6112798c-.7013552-.0887869-1.31376-.7000667-1.2247747-1.40016836 0-.7000667.7013552-1.22252463 1.4027454-1.22252463.7013553 0 1.3137601.7000667 1.2247748 1.40016836-.0889503.6966572-.6124049 1.22252463-1.4027455 1.22252463z"/><path d="m25 50c-13.7710526 0-25-11.2289474-25-25s11.2289474-25 25-25 25 11.2289474 25 25-11.2289474 25-25 25zm0-47.36842105c-12.3701754 0-22.36842105 9.99824565-22.36842105 22.36842105s9.99824565 22.3684211 22.36842105 22.3684211 22.3684211-9.9982457 22.3684211-22.3684211-9.9982457-22.36842105-22.3684211-22.36842105z"/></g></svg>