<?xml version="1.0" standalone="no"?>
<!DOCTYPE svg PUBLIC "-//W3C//DTD SVG 20010904//EN"
 "http://www.w3.org/TR/2001/REC-SVG-20010904/DTD/svg10.dtd">
<svg version="1.0" xmlns="http://www.w3.org/2000/svg"
 width="296.000000pt" height="296.000000pt" viewBox="0 0 296.000000 296.000000"
 preserveAspectRatio="xMidYMid meet">
<metadata>
Created by potrace 1.15, written by Peter Selinger 2001-2017
</metadata>
<g transform="translate(0.000000,296.000000) scale(0.100000,-0.100000)"
fill="#000000" stroke="none">
<path d="M972 2437 c-287 -287 -522 -526 -522 -532 0 -5 46 -56 102 -112 l103
-103 -103 -103 c-56 -56 -102 -107 -102 -112 0 -6 45 -55 100 -110 l100 -100
-100 -100 c-55 -55 -100 -105 -100 -110 0 -6 236 -246 525 -535 l525 -525 530
530 530 530 -105 105 -105 105 105 105 105 105 -107 107 -108 108 108 108 107
107 -528 528 c-290 290 -529 527 -532 527 -3 0 -240 -235 -528 -523z m960
-104 l428 -428 -57 -57 -58 -58 -372 372 -373 373 -373 -373 -372 -372 -58 57
-57 58 427 427 c236 236 430 428 433 428 3 0 197 -192 432 -427z m-107 -323
l320 -320 -55 -55 -55 -55 -267 267 -268 268 -268 -268 -267 -267 -55 55 -55
55 320 320 c176 176 322 320 325 320 3 0 149 -144 325 -320z m-105 -315 l215
-215 -218 -218 -217 -217 -217 217 -218 218 215 215 c118 118 217 215 220 215
3 0 102 -97 220 -215z m-912 -272 l-58 -58 -55 55 -55 54 57 58 58 58 55 -55
55 -55 -57 -57z m1497 -3 l-55 -55 -57 57 -58 58 55 55 54 55 58 -57 58 -58
-55 -55z m-537 -307 l267 267 58 -58 57 -57 -325 -325 -325 -325 -325 325
-325 325 57 57 58 58 267 -267 268 -268 268 268z m-641 -325 l373 -373 375
375 375 375 55 -55 55 -55 -430 -430 -430 -430 -430 430 -430 430 52 52 c29
29 55 53 58 53 3 0 173 -168 377 -372z"/>
</g>
</svg>
