<svg height="211" viewBox="0 0 150 211" width="150" xmlns="http://www.w3.org/2000/svg"><path d="m37.1090047 173.601896c-20.4028436-20.402844-37.1090047-37.393365-37.1090047-37.819905 0-.355451 3.27014218-3.981043 7.25118483-7.962086l7.32227487-7.322275-7.32227487-7.322275c-3.98104265-3.981042-7.25118483-7.606635-7.25118483-7.962085 0-.42654 3.19905213-3.909952 7.10900474-7.8199051l7.10900476-7.1090047-7.10900476-7.1090047c-3.90995261-3.9099527-7.10900474-7.464455-7.10900474-7.8199053 0-.4265402 16.7772512-17.4881516 37.3222749-38.0331753l37.3222749-37.3222749 37.6777252 37.6777251 37.677725 37.6777251-7.464455 7.464455-7.464455 7.464455 7.464455 7.464455 7.464455 7.4644548-7.606635 7.606635-7.677725 7.677725 7.677725 7.677725 7.606635 7.606636-37.535545 37.535545c-20.6161138 20.616113-37.6066351 37.464455-37.8199052 37.464455-.2132702 0-17.0616114-16.706162-37.5355451-37.180095zm68.2464453-7.393365 30.426541-30.42654-4.052133-4.052133-4.123223-4.123223-26.445498 26.445498-26.5165872 26.516587-26.5165877-26.516587-26.4454976-26.445498-4.1232228 4.052133-4.0521327 4.123223 30.3554502 30.35545c16.7772512 16.777251 30.5687204 30.42654 30.7819906 30.42654.2132701 0 14.0047393-13.649289 30.7109002-30.35545zm-7.6066348-22.962086 22.7488148-22.748815-3.909952-3.909952-3.909953-3.909953-18.9810425 18.981043-19.0521327 19.052132-19.0521327-19.052132-18.9810427-18.981043-3.9099526 3.909953-3.9099526 3.909952 22.7488152 22.748815c12.5118483 12.511849 22.8909952 22.748816 23.1042654 22.748816.2132701 0 10.592417-10.236967 23.1042654-22.748816zm-7.464455-22.393364 15.2843598-15.284361-15.49763-15.49763-15.4265402-15.4265402-15.4265403 15.4265402-15.4976304 15.49763 15.2843602 15.284361c8.3886256 8.388625 15.4265403 15.28436 15.6398105 15.28436.2132701 0 7.2511848-6.895735 15.6398104-15.28436zm-64.8341232-19.336493-4.1232228-4.1232231-3.9099526 3.9099531-3.9099526 3.838862 4.0521327 4.123223 4.1232228 4.123223 3.9099526-3.909953 3.9099526-3.909953zm106.421801-.21327-3.909953-3.9099531-4.052132 4.0521331-4.123223 4.123222 3.909952 3.909953 3.838863 3.909953 4.123223-4.052133 4.123223-4.123223zm-38.1753555-21.824645 18.9810425 18.9810426 4.123223-4.1232227 4.052133-4.0521327-23.1042658-23.1042654-23.1042654-23.1042654-23.1042654 23.1042654-23.1042654 23.1042654 4.0521327 4.0521327 4.1232227 4.1232227 18.9810427-18.9810426 19.0521327-19.0521327zm-45.5687204-23.1042654 26.5165877-26.5165877 26.6587682 26.6587678 26.658767 26.6587678 3.909953-3.9099527 3.909953-3.9099526-30.568721-30.5687203-30.5687202-30.5687204-30.5687204 30.5687204-30.5687204 30.5687203 3.6966825 3.6966825c2.0616113 2.0616114 3.9099526 3.7677725 4.1232227 3.7677725.2132702 0 12.2985782-11.9431279 26.8009479-26.4454976z" transform="matrix(1 0 0 -1 0 210.78199)"/></svg>