<svg height="50" viewBox="0 0 50 50" width="50" xmlns="http://www.w3.org/2000/svg"><g fill="#00a6c4" fill-rule="evenodd" transform="translate(0 15)"><path d="m32.9684987 4.9070264-.7177808.71675002c.5783439.89446045.7478529 2.0377286.3596142 3.11705514-.6630325 1.84249004-2.6975344 2.80089214-4.5437735 2.13974634-.2607779-.0927613-.5039206-.2137514-.7274539-.3569964l-2.312915 2.3068217-2.0366735-2.0318859c-.9303249.6209689-2.132417.8110212-3.2666659.4047885-1.8999345-.6797243-2.8867186-2.76655796-2.2061166-4.6609103.1040348-.28898457.2414318-.55564867.4050843-.79966404l-.8679436-.86590336-.1677323.27349154c-.9099918 1.48207992-1.3928553 3.1853952-1.3970009 4.92626136-.0096073 5.2323803 4.2486464 9.4968394 9.4930261 9.5067523h.0185565c5.2337855 0 9.5003304-4.2486378 9.5102008-9.4699891.0034876-1.74112881-.4725982-3.44693873-1.3749569-4.93210413z"/><path d="m18.9964493 6.81523056c-.2507759.32469734-.4015967.73086445-.4015967 1.17241607 0 1.06383351.8638638 1.92566666 1.9302039 1.92566666.4429211 0 .8493871-.15053195 1.1751785-.40071828z"/><path d="m28.5104666 9.35457913c.3086826.20790872.6792202.3288332 1.0798298.3288332 1.0652873 0 1.9298749-.86216139 1.9298749-1.92566665 0-.39894577-.1216042-.7694001-.3296738-1.07689755z"/><path d="m25.0413244 11.3915856-7.8490002-7.85976341.3058531-.32410651c1.9519189-2.06864903 4.5930601-3.20771568 7.4360195-3.20771568h.0192804c2.8729657.00551447 5.626038 1.22775774 7.5552549 3.35378353l.2947981.32410651z"/><path d="m18.4815396 3.52118714 6.5622195 6.57121516 6.4802946-6.43958998c-1.7342421-1.73738683-4.1047349-2.72907266-6.5726164-2.73393065h-.0172405c-2.4375462 0-4.7111768.9202603-6.4526572 2.60230547z"/><path d="m16.3873542 16.4521638-.9241395-.0604623c-3.9069306-.2532718-9.29634053-1.213315-12.78377608-4.3476357-2.1365626-1.919824-2.5453976-3.74445762-2.56158517-3.82146328l-.11785345-.55223496h14.2180216l-.0706067.51855729c-.0647503.47936515-.0978493.96385088-.0991654 1.43947406-.0038166 2.16272329.6275647 4.25612179 1.8261691 6.05436479z"/><path d="m33.6102111 16.4521638.5129356-.7694001c1.1920241-1.7868858 1.8247214-3.8661699 1.8286038-6.01241541.000658-.49347957-.0323752-.99168583-.0977835-1.48135779l-.0702778-.51855729h14.2163108l-.1174586.55223496c-.0161876.07700565-.4254174 1.90163933-2.5622432 3.82146323-3.4874356 3.1342551-8.8782932 4.0942983-12.7858818 4.3476358z"/></g></svg>