<svg height="50" viewBox="0 0 50 50" width="50" xmlns="http://www.w3.org/2000/svg"><path d="m35.7303749 49.3476976c-.3478947.369638-.6523025.6523024-.6740459.6523024s-1.2393746-1.2176312-2.7179267-2.7179268c-1.4568088-1.5002955-2.7614136-2.7179267-2.8918741-2.7179267s-.5870722.2391775-1.0001971.5000985c-2.1743414 1.4785522-5.8054915 1.9134204-8.2190105 1.0436839-4.0660184-1.5002956-6.5665111-5.0879589-6.5665111-9.4366418 0-.9784536.1087171-2.1091111.260921-2.522236 1.1958878-3.7616106 3.8268409-6.3055901 7.2405569-7.0666096l1.0871707-.2391775.0652303-3.5441765c.0434868-2.7179268 0-3.5441765-.2174342-3.6094068-.1522039-.0434868-.7610195-.1956907-1.3698351-.3261512-2.3265453-.5653288-4.8705247-2.6309531-5.9576954-4.8922682-.9567103-1.9569072-1.1089142-2.6309531-1.1089142-4.58786036 0-4.58786038 2.6961834-8.21901054 7.1970701-9.65407587 1.0654273-.32615121 3.7833541-.3044078 5.0009853.06523024 3.1310516.95671022 5.3271364 3.06582139 6.5230242 6.26210327.5000985 1.34809168.630559 4.97924182.1956907 6.10989932-1.4785521 3.935558-3.9355579 6.1098994-7.8711159 6.979636l-.6088156.1304605v3.4789462 3.4572029l.8262498.2174341c.4348682.1304605.9132233.2391776 1.0654272.2391776.521842 0 2.8483873 1.3480916 3.6963804 2.1308546.8697366.8045063 1.9134205 2.261315 2.3917756 3.3049989.630559 1.4350653.7610195 2.0656243.7610195 4.0007882 0 2.2613151-.5000985 4.0660184-1.522039 5.6315443l-.5435854.8262497 2.7831571 2.8266438 2.783157 2.8049005zm-15.0246992-5.0662155c1.1306575.4348683 4.6313472.2391775 5.7837482-.3044078 4.935755-2.3700322 6.1098993-8.8930564 2.3048019-12.8503578-.9784537-1.0219404-2.0221375-1.6524994-3.5876634-2.1308545-3.674637-1.1089142-8.0450632 1.261118-9.2626944 5.0227286-.7610195 2.3482887-.630559 4.2834526.4566117 6.4143072.8479932 1.6524995 2.5222361 3.1745384 4.305196 3.8485843zm.0869737-26.8966033c1.1741443.4566117 3.3267423.5435854 4.413913.1956907 3.5876634-1.1524009 5.8489784-4.1095052 5.8489784-7.69716856 0-5.95769547-6.2621032-9.89325342-11.3500621-7.13183983-3.1093083 1.6959863-4.935755 5.65328767-4.0660185 8.84956959.7827629 2.8701306 2.4570058 4.7618077 5.1531892 5.7837481z" fill="#001e5a" transform="matrix(1 0 0 -1 0 50)"/></svg>