<svg height="24px" width="74px" viewBox="0 0 560 180" version="1.1" xmlns="http://www.w3.org/2000/svg">
    <g id="Page-1" stroke="none" stroke-width="1" fill="none" fill-rule="evenodd">
        <g id="Artboard" transform="translate(-1539.000000, -4339.000000)" fill="#0A0B09">
            <g id="banding" transform="translate(509.000000, 130.000000)">
                <g id="Group-2">
                    <g id="logo" transform="translate(207.000000, 3068.000000)">
                        <g id="Group-3" transform="translate(150.000000, 112.000000)">
                            <g id="grid-plus-logo-black" transform="translate(673.000000, 1029.000000)">
                                <polyline id="Fill-1" points="526.535 33.226 526.535 0.709 502.482 0.709 502.482 33.226 469.965 33.226 469.965 57.279 502.482 57.279 502.482 89.797 526.535 89.797 526.535 57.279 559.052 57.279 559.052 33.226 526.535 33.226"></polyline>
                                <path d="M105.191,148.667 C98.498,151.911 89.575,154.143 78.826,154.143 C51.853,154.143 29.949,134.673 29.949,106.28 C29.949,77.888 50.839,59.229 79.028,59.229 C98.701,59.229 110.667,66.53 114.317,68.964 L126.688,46.654 C121.416,43.207 106.408,33.067 77.813,33.067 C32.788,33.067 0.948,65.11 0.948,106.28 C0.948,147.45 32.788,179.291 77.204,179.291 C107.017,179.291 123.849,168.542 131.556,162.661 L131.556,106.483 L105.191,106.483 L105.191,148.667" id="Fill-2"></path>
                                <path d="M222.017,112.09 L200.938,112.09 L200.938,57.828 L222.226,57.828 C241.217,57.828 254.156,68.054 254.156,85.585 C254.156,101.655 241.426,112.09 222.017,112.09 Z M284,85.585 C284,52.82 260.208,32.575 224.521,32.575 L172.138,32.575 L172.138,179.291 L200.938,179.291 L200.938,137.343 L226.19,137.343 L254.782,179.291 L288.8,179.291 L255.2,130.873 C273.356,122.316 284,106.455 284,85.585 L284,85.585 Z" id="Fill-3"></path>
                                <polygon id="Fill-4" points="323.955 179.291 352.755 179.291 352.755 32.575 323.955 32.575"></polygon>
                                <path d="M500.072,107.163 C500.072,107.163 499.788,117.844 499.316,121.362 C496.564,141.884 477.082,153.83 452.201,153.83 L425.695,153.83 L425.695,58.037 L452.341,58.037 L452.341,32.575 L396.896,32.575 L396.896,179.291 L453.453,179.291 C494.094,179.291 523.721,157.078 526.939,121.362 C527.258,117.826 526.939,107.163 526.939,107.163 L500.072,107.163" id="Fill-5"></path>
                            </g>
                        </g>
                    </g>
                </g>
            </g>
        </g>
    </g>
</svg>