<?xml version="1.0" encoding="UTF-8" standalone="no"?>
<!-- Created with Inkscape (http://www.inkscape.org/) -->

<svg
   xmlns:dc="http://purl.org/dc/elements/1.1/"
   xmlns:cc="http://creativecommons.org/ns#"
   xmlns:rdf="http://www.w3.org/1999/02/22-rdf-syntax-ns#"
   xmlns:svg="http://www.w3.org/2000/svg"
   xmlns="http://www.w3.org/2000/svg"
   xmlns:sodipodi="http://sodipodi.sourceforge.net/DTD/sodipodi-0.dtd"
   xmlns:inkscape="http://www.inkscape.org/namespaces/inkscape"
   width="210mm"
   height="297mm"
   viewBox="0 0 210 297"
   version="1.1"
   id="svg8"
   inkscape:version="0.92.3 (2405546, 2018-03-11)"
   sodipodi:docname="kyber_centered.svg">
  <defs
     id="defs2" />
  <sodipodi:namedview
     id="base"
     pagecolor="#ffffff"
     bordercolor="#666666"
     borderopacity="1.0"
     inkscape:pageopacity="0.0"
     inkscape:pageshadow="2"
     inkscape:zoom="0.7"
     inkscape:cx="168.48789"
     inkscape:cy="656.02846"
     inkscape:document-units="mm"
     inkscape:current-layer="layer1"
     showgrid="true"
     inkscape:window-width="3840"
     inkscape:window-height="2034"
     inkscape:window-x="0"
     inkscape:window-y="60"
     inkscape:window-maximized="1">
    <inkscape:grid
       type="xygrid"
       id="grid4736" />
  </sodipodi:namedview>
  <metadata
     id="metadata5">
    <rdf:RDF>
      <cc:Work
         rdf:about="">
        <dc:format>image/svg+xml</dc:format>
        <dc:type
           rdf:resource="http://purl.org/dc/dcmitype/StillImage" />
        <dc:title></dc:title>
      </cc:Work>
    </rdf:RDF>
  </metadata>
  <g
     inkscape:label="Layer 1"
     inkscape:groupmode="layer"
     id="layer1">
    <g
       id="g4664"
       transform="matrix(0.75124471,0,0,0.75124471,-94.078186,-91.189352)">
	<g
   id="g4662">
		<g
   id="g4650">
			<path
   id="path4626"
   d="m 559.3,253.3 -24.9,56.9 c -2.2,4.9 -4.8,8.4 -7.8,10.7 -3,2.3 -6.7,3.4 -11,3.4 -2.8,0 -5.6,-0.3 -8.4,-1 V 314 c 3.2,0.3 5.2,0.4 6,0.4 2.6,0 4.8,-0.5 6.6,-1.6 1.8,-1 3.3,-3 4.6,-5.8 l 2.1,-4.8 -20.5,-48.7 h 11.8 l 14.7,37.3 15.1,-37.3 z"
   class="st0"
   inkscape:connector-curvature="0"
   style="fill:#141927" />

			<path
   id="path4628"
   d="m 595.4,252.4 c 7.2,0 13.2,2.5 18,7.6 4.8,5.1 7.2,11.5 7.2,19 0,7.5 -2.4,13.9 -7.1,19 -4.7,5.1 -10.6,7.6 -17.8,7.6 -3.7,0 -7.2,-0.7 -10.3,-2.2 -3.1,-1.5 -5.6,-3.5 -7.5,-6.1 v 7.2 h -10.2 v -78.1 h 10.9 v 33.2 c 4.1,-4.9 9.8,-7.4 17.2,-7.4 z m -1.6,43.4 c 4.5,0 8,-1.7 11,-4.8 3,-3.1 4.5,-7.2 4.5,-12.1 0,-4.9 -1.5,-8.8 -4.5,-12 -3,-3.1 -6.8,-4.7 -11.2,-4.7 -4.3,0 -7.9,1.5 -10.9,4.4 -3,2.9 -4.5,7.1 -4.5,12.5 0,5.5 1.6,9.7 4.6,12.5 3,2.8 6.7,4.2 10.9,4.2 z"
   class="st0"
   inkscape:connector-curvature="0"
   style="fill:#141927" />

			<path
   id="path4630"
   d="m 480.6,360 c 5.9,0 10.6,2 14,5.7 3.4,3.7 5.1,8.6 5.1,14.8 v 32 H 488.8 V 382 c 0,-3.5 -1,-6.5 -3.1,-8.6 -2.1,-2.2 -4.8,-3.3 -8.1,-3.3 -3.4,0 -6.2,1.1 -8.4,3.3 -2.2,2.2 -3.2,5 -3.2,8.4 v 30.7 h -11 v -51.3 h 10.2 v 5.1 c 3.9,-4.2 9,-6.2 15.3,-6.2 z"
   class="st0"
   inkscape:connector-curvature="0"
   style="fill:#141927" />

			<path
   id="path4632"
   d="m 560.5,390.3 h -38.1 c 0.7,4.3 2.6,7.6 5.6,10 3,2.4 6.8,3.5 11.2,3.5 5.3,0 10.3,-2 14.9,-6 l 5.2,7.5 c -5.8,5.5 -12.6,8.2 -20.4,8.2 -7.9,0 -14.5,-2.6 -19.7,-7.7 -5.2,-5.1 -7.8,-11.5 -7.8,-19 0,-7.5 2.6,-13.8 7.7,-19 5.1,-5.2 11.3,-7.8 18.7,-7.8 6.8,0 12.4,2.2 16.9,6.7 4.5,4.5 6.8,10.1 6.8,16.9 0,-0.2 -0.1,4.1 -1,6.7 z m -23.1,-21 c -3.6,0 -6.8,1.1 -9.5,3.4 -2.7,2.3 -4.5,5.3 -5.3,9.2 h 27.8 c -0.1,-3.9 -1.4,-6.9 -3.9,-9.2 -2.5,-2.3 -5.6,-3.4 -9.3,-3.4 z"
   class="st0"
   inkscape:connector-curvature="0"
   style="fill:#141927" />

			<path
   id="path4634"
   d="m 678.8,282.6 h -38.1 c 0.7,4.3 2.6,7.6 5.6,10 3,2.4 6.8,3.5 11.2,3.5 5.3,0 10.3,-2 14.9,-6 l 5.2,7.5 c -5.8,5.5 -12.6,8.2 -20.4,8.2 -7.9,0 -14.5,-2.6 -19.7,-7.7 -5.2,-5.1 -7.8,-11.5 -7.8,-19 0,-7.5 2.6,-13.8 7.7,-19 5.1,-5.2 11.3,-7.8 18.7,-7.8 6.8,0 12.4,2.2 16.9,6.7 4.5,4.5 6.8,10.1 6.8,16.9 0,-0.2 0,4 -1,6.7 z m -23.1,-21 c -3.6,0 -6.8,1.1 -9.5,3.4 -2.7,2.3 -4.5,5.3 -5.3,9.2 h 27.8 c -0.1,-3.9 -1.4,-6.9 -3.9,-9.2 -2.5,-2.3 -5.6,-3.4 -9.3,-3.4 z"
   class="st0"
   inkscape:connector-curvature="0"
   style="fill:#141927" />

			<path
   id="path4636"
   d="m 599.9,403.5 c 1.6,0 3.7,-0.3 6.7,-0.6 v 9.3 c -3.4,0.7 -6.5,1.1 -9.1,1.1 -5.9,0 -10.5,-1.5 -13.8,-4.4 -3.3,-2.9 -5,-7.4 -5,-13.3 v -25 h -8.3 v -9.5 h 8.3 v -13.4 h 11 v 13.4 h 15.2 v 9.5 h -15.2 v 24 c 0,3.2 0.8,5.5 2.5,6.9 1.7,1.4 4.2,2 7.5,2 z"
   class="st0"
   inkscape:connector-curvature="0"
   style="fill:#141927" />

			<path
   id="path4638"
   d="m 695.8,361.1 -22.7,52.3 h -3.7 l -16,-34 -16,34 h -3.7 L 611,361.1 h 11.7 l 13.4,33.4 15.5,-34.6 h 3.7 L 671,394 684.2,361 h 11.6 z"
   class="st0"
   inkscape:connector-curvature="0"
   style="fill:#141927" />

			<path
   id="path4640"
   d="m 746.6,367.6 c -5.3,-5.1 -11.6,-7.6 -19.1,-7.6 -7.6,0 -13.9,2.6 -19.2,7.7 -5.2,5.1 -7.8,11.5 -7.8,18.9 0,7.5 2.6,13.8 7.8,18.9 5.2,5.1 11.6,7.7 19.2,7.8 7.5,0 13.8,-2.6 19.2,-7.8 5.3,-5.2 7.9,-11.6 7.9,-19 0.1,-7.4 -2.6,-13.8 -8,-18.9 z m -8,30.8 c -3,3.1 -6.8,4.7 -11.2,4.7 -4.6,0 -8.3,-1.6 -11.3,-4.7 -3,-3.1 -4.5,-7.1 -4.5,-11.8 0,-4.8 1.5,-8.7 4.5,-11.9 3,-3.1 6.8,-4.7 11.3,-4.8 h 0.1 c 4.5,0.1 8.2,1.7 11.2,4.8 3,3.1 4.5,7.1 4.5,11.9 0,4.7 -1.6,8.7 -4.6,11.8 z"
   class="st0"
   inkscape:connector-curvature="0"
   style="fill:#141927" />

			<path
   id="path4642"
   d="m 792.2,360.6 c 1.6,0 2.9,0.2 4.2,0.5 v 9.7 H 793 c -4.3,0 -7.8,1.2 -10.6,3.7 -2.8,2.5 -4.3,5.9 -4.3,10.4 v 27.5 h -10.9 v -51.3 h 10.2 v 6.7 c 3.6,-4.8 8.6,-7.2 15,-7.2 z"
   class="st0"
   inkscape:connector-curvature="0"
   style="fill:#141927" />

			<path
   id="path4644"
   d="m 718.3,253 c 1.6,0 2.9,0.2 4.2,0.5 v 9.7 h -3.3 c -4.3,0 -7.8,1.2 -10.6,3.7 -2.8,2.5 -4.3,5.9 -4.3,10.4 v 27.5 h -10.9 v -51.3 h 10.2 v 6.7 c 3.6,-4.8 8.6,-7.2 15,-7.2 z"
   class="st0"
   inkscape:connector-curvature="0"
   style="fill:#141927" />

			<path
   id="path4646"
   d="m 807.3,334.2 h 10.9 v 78.3 h -10.9 z m 46.7,78.3 h -13.1 l -22.3,-28.9 20,-22.4 h 13.5 l -20.6,22.5 z"
   class="st0"
   inkscape:connector-curvature="0"
   style="fill:#141927" />

			<path
   id="path4648"
   d="m 455,226.5 h 10.9 v 78.3 H 455 Z m 46.7,78.3 h -13.1 l -22.3,-28.9 20,-22.4 h 13.5 L 479.2,276 Z"
   class="st0"
   inkscape:connector-curvature="0"
   style="fill:#141927" />

		</g>

		<g
   id="g4660">
			<path
   id="path4652"
   d="m 250,319.5 129.6,74.3 c 4.5,2.6 10.2,-0.7 10.2,-5.9 V 251 c 0,-5.2 -5.7,-8.5 -10.2,-5.9 z"
   class="st1"
   inkscape:connector-curvature="0"
   style="fill:#31cb9e" />

			<path
   id="path4654"
   d="M 372.1,213.1 286,147.4 c -4,-3 -9.7,-0.9 -10.8,4 l -31.4,146.4 127.6,-73.3 c 4.2,-2.5 4.6,-8.4 0.7,-11.4 z"
   class="st1"
   inkscape:connector-curvature="0"
   style="fill:#31cb9e" />

			<path
   id="path4656"
   d="m 286,491.6 86.2,-65.8 c 3.9,-3 3.5,-8.9 -0.7,-11.3 l -127.7,-73.3 31.5,146.4 c 0.9,4.9 6.7,7 10.7,4 z"
   class="st1"
   inkscape:connector-curvature="0"
   style="fill:#31cb9e" />

			<path
   id="path4658"
   d="m 216.8,319.5 33.9,-157.7 c 1.3,-6.2 -5.8,-10.7 -10.8,-6.8 l -86.8,66.3 c -4.5,3.4 -7.1,8.7 -7.1,14.3 v 168 c 0,5.6 2.6,10.9 7.1,14.3 l 86.8,66.2 c 5,3.8 12.1,-0.7 10.8,-6.8 z"
   class="st1"
   inkscape:connector-curvature="0"
   style="fill:#31cb9e" />

		</g>

	</g>

</g>
    <rect
       style="fill:#ffffff;fill-opacity:1;stroke:#000000;stroke-width:0.68957293;stroke-opacity:0"
       id="rect4694"
       width="346.60416"
       height="164.04164"
       x="216.95833"
       y="64.166702" />
  </g>
  <style
     id="style4624"
     type="text/css">
	.st0{fill:#141927;}
	.st1{fill:#31CB9E;}
</style>
</svg>
