<?xml version="1.0" encoding="UTF-8"?>
<svg width="50px" height="50px" viewBox="0 0 50 50" version="1.1" xmlns="http://www.w3.org/2000/svg" xmlns:xlink="http://www.w3.org/1999/xlink">
    <!-- Generator: Sketch 46 (44423) - http://www.bohemiancoding.com/sketch -->
    <title>OMG</title>
    <desc>Created with Sketch.</desc>
    <defs></defs>
    <g id="Welcome" stroke="none" stroke-width="1" fill="none" fill-rule="evenodd">
        <g id="OMG" fill-rule="nonzero" fill="#1A53F0">
            <path d="M12.1006811,25.8054844 C5.42570899,25.8054844 0.0146919819,31.221591 0.0146919819,37.9027422 C0.0146919819,44.5838934 5.42642512,50 12.1013973,50 C18.7770855,50 24.1881025,44.5838934 24.1881025,37.9027422 C24.1881025,31.221591 18.7770855,25.8054844 12.1013973,25.8054844 L12.1006811,25.8054844 Z M12.1006811,46.3406617 C7.44732109,46.3406617 3.67479097,42.564825 3.67479097,37.9070305 C3.67479097,33.249236 7.44732109,29.4733993 12.1006811,29.4733993 C16.7547573,29.4733993 20.5272874,33.249236 20.5272874,37.9070305 C20.5194101,42.5612514 16.7511767,46.3327999 12.1006811,46.3406617 Z M37.9132947,2.35952358e-06 C31.2383226,2.35952358e-06 25.8265894,5.41610891 25.8265894,12.0972601 C25.8265894,18.7784114 31.2383226,24.1945179 37.9132947,24.1945179 C44.588983,24.1945179 50,18.7784114 50,12.0972601 C50,5.41610891 44.588983,2.35952358e-06 37.9132947,2.35952358e-06 Z M37.9132947,20.5351796 C33.2599347,20.5351796 29.4874045,16.7593429 29.4874045,12.1015484 C29.4874045,7.44375397 33.2599347,3.66791722 37.9132947,3.66791722 C42.5673709,3.66791722 46.339901,7.44375397 46.339901,12.1015484 C46.3320237,16.7557693 42.5637903,20.5273178 37.9132947,20.5351796 Z M12.1006811,2.35952358e-06 C6.34664175,-0.00357121302 1.38678153,4.05243363 0.242418743,9.69724882 C-0.901227917,15.3413493 2.08786486,21.0111795 7.3885991,23.2525242 C12.6893333,25.4931542 18.8343753,23.6849265 22.0791236,18.9285014 C25.324588,14.1720764 24.7717419,7.78610222 20.7571626,3.65934065 L24.1845219,3.65934065 L24.1845219,2.35952358e-06 L12.1006811,2.35952358e-06 Z M20.5272874,12.0972601 C20.5272874,16.7550546 16.7547573,20.5308914 12.1006811,20.5308914 C7.44732109,20.5308914 3.67479097,16.7550546 3.67479097,12.0972601 C3.67479097,7.43946569 7.44732109,3.66362893 12.1006811,3.66362893 C16.7526089,3.66934665 20.5237068,7.44089512 20.5315842,12.0972601 L20.5272874,12.0972601 Z" id="omisego"></path>
        </g>
    </g>
</svg>