<svg height="50" viewBox="0 0 50 50" width="50" xmlns="http://www.w3.org/2000/svg"><path d="m12.1006811 25.8054844c-6.67497211 0-12.08598912 5.4161066-12.08598912 12.0972578s5.41173314 12.0972578 12.08670532 12.0972578c6.6756882 0 12.0867052-5.4161066 12.0867052-12.0972578s-5.411017-12.0972578-12.0867052-12.0972578zm0 20.5351773c-4.65336001 0-8.42589013-3.7758367-8.42589013-8.4336312s3.77253012-8.4336312 8.42589013-8.4336312c4.6540762 0 8.4266063 3.7758367 8.4266063 8.4336312-.0078773 4.6542209-3.7761107 8.4257694-8.4266063 8.4336312zm25.8126136-46.34065934c-6.6749721 0-12.0867053 5.41610655-12.0867053 12.09725774 0 6.6811513 5.4117332 12.0972578 12.0867053 12.0972578 6.6756883 0 12.0867053-5.4161065 12.0867053-12.0972578 0-6.68115119-5.411017-12.09725774-12.0867053-12.09725774zm0 20.53517724c-4.65336 0-8.4258902-3.7758367-8.4258902-8.4336312 0-4.65779443 3.7725302-8.43363118 8.4258902-8.43363118 4.6540762 0 8.4266063 3.77583675 8.4266063 8.43363118-.0078773 4.6542209-3.7761107 8.4257694-8.4266063 8.4336312zm-25.8126136-20.53517724c-5.75403935-.00357357-10.71389957 4.05243127-11.85826236 9.69724646-1.14364666 5.64410048 1.84544612 11.31393068 7.14618036 13.55527538 5.3007342 2.24063 11.4457762.4324023 14.6905245-4.3240228 3.2454644-4.756425 2.6926183-11.14239918-1.321961-15.26916075h3.4273593v-3.65933829zm8.4266063 12.09725774c0 4.6577945-3.7725301 8.4336313-8.4266063 8.4336313-4.65336001 0-8.42589013-3.7758368-8.42589013-8.4336313 0-4.65779441 3.77253012-8.43363117 8.42589013-8.43363117 4.6519278.00571772 8.4230257 3.77726619 8.4309031 8.43363117z" fill="#1a53f0"/></svg>