<?xml version="1.0" encoding="UTF-8"?>
<svg width="48px" height="70px" viewBox="0 0 48 70" version="1.1" xmlns="http://www.w3.org/2000/svg" xmlns:xlink="http://www.w3.org/1999/xlink">
    <!-- Generator: Sketch 55 (78076) - https://sketchapp.com -->
    <title>Fill-1</title>
    <desc>Created with Sketch.</desc>
    <g id="Page-1" stroke="none" stroke-width="1" fill="none" fill-rule="evenodd">
        <path d="M23.7807407,58.6768 C16.8027654,58.6768 11.1454815,52.9488 11.1454815,45.8836 C11.1454815,38.818 16.8027654,33.0904 23.7807407,33.0904 C29.1867654,33.0904 33.7979259,36.5292 35.6021728,41.3636 C34.2668642,39.6256 32.1876543,38.5032 29.8445432,38.5032 C25.8149136,38.5032 22.5477531,41.8108 22.5477531,45.8912 C22.5477531,49.9716 25.8149136,53.2792 29.8445432,53.2792 C32.1801481,53.2792 34.2538272,52.1644 35.5895309,50.436 C33.7769877,55.2532 29.1749136,58.6768 23.7807407,58.6768 Z M26.5177284,21.9416 L32.5388642,12.4356 C34.9384691,12.9508 37.5083457,11.96 38.9112099,9.7456 C40.7217778,6.8872 39.9008395,3.0836 37.0773333,1.2504 C34.2542222,-0.5828 30.4975802,0.2484 28.6870123,3.1072 C27.2845432,5.3216 27.4670617,8.0996 28.9307654,10.0928 L21.4514568,21.9008 C9.40879012,23.1008 0,33.3824 0,45.8912 C0,59.2064 10.6607407,70 23.8111605,70 C36.9619753,70 47.622321,59.2064 47.622321,45.8912 C47.622321,33.5036 38.393284,23.3032 26.5177284,21.9416 Z" id="Fill-1" fill="#213B4B" fill-rule="nonzero"></path>
    </g>
</svg>