<svg height="1559" viewBox="0 0 1121 1559" width="1121" xmlns="http://www.w3.org/2000/svg"><g><path d="m352.2.6h341.7c14.7 0 9.6-1.8 21.4 7.8 20.6 16.8 40.1 34.8 59.1 53.4 45.4 44.4 87.2 91.9 125.4 142.5 49.7 65.8 92.6 135.8 127.5 210.5 29.9 63.9 53.2 130.2 69.2 199 5.9 25.5 10.8 51.3 14.6 77.3 2.8 19.3 5.1 38.7 6.7 58.1 1.8 21 3 42.1 3 63.3 0 13.4-.1 26.9-.2 40.3 0 2.6-.3 5.1-.4 7.7-.1 1.2-1.3 2.3-2.6 2.4-1 .1-1.9.2-2.9.2-2.6 0-5.1 0-7.7 0-110.4 0-220.7 0-331.1 0-3.5 0-7-.2-10.5-.3-1.2 0-2.3-1.4-2.2-2.6.2-4.8.3-9.6.6-14.4 1.5-22.1.3-44.1-1.8-66.1-7.2-75.7-28.7-147.3-61-215.8-24.9-52.9-55.9-102-91.7-148.2-35-45.1-74.1-86.4-116.4-124.7-58.8-53.2-122.6-99.6-190.1-141-62-38-126.4-71.4-192.6-101.4-34.5-15.6-69.3-30.1-104.4-44-1.8-.7-3.5-1.5-5.2-2.3-.2-.1-.3-.6-.2-.9 0-.2.3-.5.5-.5 3.2-.1 6.4-.3 9.6-.3h276.4z"/><path d="m255.3 1068.1c0-159.6 0-319.3 0-478.9 0-3.8.3-7.6.5-11.4 0-.3.3-.7.5-.7.6 0 1.4-.1 1.7.3 1.7 2.3 3.3 4.7 4.8 7.2 34.1 55.6 68.1 111.3 102.2 167 89.6 146.5 179.3 293 268.9 439.5 20.7 33.8 41.4 67.7 62.1 101.5 1.2 1.9 2.4 3.8 3.5 5.7 1.5 2.6 1.2 3.9-1.4 5.5-2.7 1.7-5.5 3.2-8.3 4.8-141.1 81.9-282.1 163.8-423.2 245.6-2.8 1.6-5.6 3.1-8.4 4.6-.6.3-2.1-.5-2.2-1.2-.2-1.3-.4-2.5-.5-3.8-.1-3.2 0-6.4 0-9.6-.2-158.7-.2-317.4-.2-476.1z"/></g></svg>