<svg height="50" viewBox="0 0 50 50" width="50" xmlns="http://www.w3.org/2000/svg"><path d="m34.125257 25.7105263c-.5526316-1.5789474-1.5-2.9736842-2.7368421-4.0526316l-.4736842-.3947368-.0263158-.0263158c-.1578948-.1315789-.3157895-.2368421-.4736842-.3421053l-.0263158-.0263157c-.1578948-.1052632-.3157895-.2105264-.5-.3157895-.0263158 0-.0263158-.0263158-.0526316-.0263158-.1578947-.1052632-.3421053-.1842105-.5-.2631579-.0263158 0-.0263158-.0263158-.0526316-.0263158-.1578947-.0789474-.3421053-.1578947-.5263158-.2368421-.0263158 0-.0263158-.0263158-.0526316-.0263158-.1578947-.0526316-.3157894-.1315789-.4736842-.1842105-.4210526-.1578948-.868421-.2894737-1.3157894-.3684211-.3421053.6578948-.8157895 1.2368421-1.3421053 1.7368421.8157895.0526316 1.6052632.2631579 2.3157895.5526316.4210526.1842105.8421052.3947369 1.2105263.631579.0263158 0 .0526316.0263158.0526316.0263158.1052631.0526315.1842105.1315789.2894736.2105263.0526316.0263158.0789474.0526315.131579.1052631.0789474.0526316.1842105.131579.2631579.2105263.0526316.0526316.1052631.0789474.1578947.131579.0789474.0789474.1578948.1315789.2368421.2105263l.1578948.1578947.2105263.2105264.1578947.1578947c.0526316.0789474.131579.1578947.1842105.2105263.0526316.0526316.1052632.131579.1578948.1842105l.1578947.2368421c.0526316.0789474.1052632.131579.131579.2105264l.1578947.2368421c.0526316.0789473.0789474.1578947.131579.2105263.0526315.0789473.0789473.1578947.1315789.2368421s.0789474.1578947.1315789.2368421c.0263158.0789474.0789474.1578947.1052632.2368421.0526316.1052632.0789474.2105263.131579.2894737.2105263.5263158.368421 1.0789473.4473684 1.6842105l.2368421.9210526c.1052631.3947369 1.0526316 3.7631579 3.2631579 4.8947369 2.5263158 1.3157895 5.868421 2.9473684 7.1842105 3.5789473l-17.3421053 10.3684211v-7.1052632c0-1.1315789 2.2368421-2.4473684 3.2631579-2.8947368l.0526316-.0263158c.2105263-.1052631.4210526-.2105263.631579-.3421053l.0789473-.0526315c.4473684-.2631579.8684211-.5789474 1.2631579-.9210527.0263158-.0263158.0789474-.0526315.1052632-.1052631.0526316-.0263158.0789473-.0789474.1315789-.1052632.131579-.1052631.2368421-.2368421.3684211-.3421052l.0526316-.0526316c.1315789-.131579.2631579-.2631579.368421-.4210527.0263158-.0526315.0789474-.0789473.1052632-.1315789.1052631-.1052632.1842105-.2368421.2894737-.3684211.0263157-.0263157.0526315-.0789473.0789473-.1052631l.3157895-.4736842c0-.0263158.0263158-.0263158.0263158-.0526316.1315789-.2105263.2631579-.4473684.3947368-.6578947-.5263158-.631579-.9210526-1.3157895-1.2368421-1.9473685-.1315789.3947369-.3157895.7894737-.5 1.131579-.0789473.1578947-.1842105.3157895-.2631579.4736842-.0263158.0263158-.0263158.0526316-.0526316.0526316-.0789473.1315789-.1842105.2631579-.2631578.368421-.0263158.0263158-.0526316.0789474-.0789474.1052632-.0789474.1315789-.1842105.2368421-.2894737.3421053-.0263158.0263157-.0263158.0526315-.0526316.0526315-.6315789.7105263-1.3947368 1.3157895-2.2631579 1.7368421l-.1578947.0789474c-.4473684.1842105-4.3157895 1.9473684-4.3157895 4.6052632v7.1052631l-17.36842104-10.3421052c1.13157895-.6842106 4.39473684-2.631579 7.07894734-3.4736843 1.0526316-.3421052 3.2894737 1.0789474 4.5526316 2.1052632l.0789474.0789474c.1578947.1578947.3421052.3157894.5263158.4473684l.0526315.0526316c.3947369.3157894.8157895.6315789 1.2894737.868421l.3157895.1578948c.0263158 0 .0526316.0263158.0526316.0263158.2894737.1578947.5789474.2894736.8947368.4210526.0526316.0263158.0789474.0263158.131579.0526316.0263158 0 .0526316.0263158.1052631.0263158.4473685.1578947.8947369.2894736 1.3421053.3947368.3421053-.6578947.8421053-1.2368421 1.368421-1.7368421-.7631578-.0526316-1.4736842-.2105263-2.1578947-.4736842-.0263158-.0263158-.0789474-.0263158-.1052631-.0526316-.0789474-.0263158-.1578948-.0526316-.2368422-.1052632-.0263157-.0263157-.0789473-.0263157-.1052631-.0526315-.0789474-.0263158-.1578947-.0789474-.2105263-.1052632-.5263158-.2631579-1-.5526316-1.4473684-.9210526l-.6842106-.631579c-.0263158-.0263158-.868421-.7894737-2.0526316-1.4736842-1.7105263-.9736842-3.1578947-1.2894737-4.2631578-.9473684-2.2894737.7368421-4.89473689 2.1315789-6.47368426 3.0526316l17.34210526-31.15789476v13.65789476c0 .4736842-.7105263 1.7368421-3.1052632 2.8157894l-.1578947.0789474c-.2368421.1052632-.4473684.2368421-.6842105.3684211l-.0526316.0263158c-.4473684.2631579-.868421.5789473-1.2894737.9210526-.2631579.2105263-.5.4473684-.7105263.6842105l-.0263158.0263158c-.2368421.2368421-.4473684.4736842-.6315789.7368421l-.0263158.0263158c-.1052632.1315789-.1842105.2631579-.2894737.3947368 0 .0263158-.0263158.0263158-.0263158.0526316-.0789474.131579-.1578947.2368421-.2368421.3684211 0 .0263158-.0263158.0263158-.0263158.0526316l-.2368421.3947368c-.0263158.0263158-.0263158.0526316-.0526316.1052632-.0789473.1315789-.1315789.2631578-.1842105.368421 0 .0263158-.0263158.0526316-.0263158.0526316-.0526316.1315789-.1052631.2368421-.1578947.368421-.0263158.0526316-.0263158.0789474-.0526316.131579l-.1578947.3947368c-.0263158.0526316-.0263158.0789474-.0526316.131579-.0263158.1052631-.0526316.1842105-.1052632.2894737-.0263158.0526315-.0263158.1052631-.0526316.1578947-.0263157.1315789-.0789473.2631579-.1052631.368421-.0263158.0526316-.0263158.131579-.0526316.1842106-.0263158.0789473-.0263158.1842105-.0526316.2631579-.0263158.0789473-.0263158.1578947-.0526316.2368421-.0263157.1052631-.0263157.2105263-.0526315.3157894 0 .0789474-.0263158.131579-.0263158.2105264 0 .1052631-.0263158.1842105-.0263158.2894736 0 .1052632 0 .1842106-.0263158.2894737v.3947369c0 .4736842.0263158.9736842.1052632 1.4210526.6842105.1578947 1.3947368.4473684 2.1578947.8157895-.2105263-.6842105-.3157895-1.3947369-.3421053-2.131579v-.1315789c0-.1842105 0-.3421053.0263158-.5263158v-.131579c0-.1578947.0263158-.2894736.0526316-.4473684v-.0526316c.0263158-.1578947.0526316-.3157894.0789474-.5 0-.0526315.0263158-.0789473.0263158-.1315789.0263157-.1315789.0789473-.2631579.1052631-.3947368 0-.0263158.0263158-.0526316.0263158-.0789474l.1578947-.4736842c.0263158-.0263158.0263158-.0789474.0526316-.1052632.0526316-.1315789.1052632-.2631579.1578948-.368421.0263157-.0263158.0263157-.0526316.0526315-.1052632.0789474-.1578947.131579-.2894737.2368421-.4210526.0263158-.0263158.0263158-.0526316.0526316-.0789474.0789474-.1315789.131579-.2368421.2105263-.368421.0263158-.0263158.0263158-.0526316.0526316-.0789474.0789474-.131579.1842105-.2631579.2894737-.3947369 0 0 0-.0263157.0263158-.0263157.1052631-.131579.1842105-.2368421.2894737-.3684211.0263158-.0263158.0263158-.0526316.0526316-.0789474.4736842-.5263158 1-.9736842 1.6052631-1.368421l.8157895-.3947369c.4473684-.1842105 4.2894737-2 4.2894737-4.6578947v-13.57894736l17.5 31.42105266c-1.5526316-.7631579-4.3157895-2.131579-6.4473685-3.2368421-1.2368421-.631579-2.0526315-2.8684211-2.2894736-3.6842106l-.2368421-.9473684c0-.5-.131579-1-.2894737-1.5zm11.8421052 9.8947369-19.2894736-34.6052632c-.3421053-.63157895-.9736843-1-1.6842106-1s-1.3421052.36842105-1.6842105 1l-19.28947368 34.6052632c-.5.8947368-.21052632 2.0526315.68421052 2.5789473l19.31578946 11.5526316c.3157895.1842105.6578948.2631579 1 .2631579.3421053 0 .6842105-.0789474 1-.2631579l19.2894737-11.5263158c.8684211-.5526316 1.1842105-1.7105263.6578947-2.6052631z" fill="#5f2652" fill-rule="evenodd"/></svg>