<svg id="Layer_1" data-name="Layer 1" xmlns="http://www.w3.org/2000/svg" viewBox="0 0 343.98 342.88"><defs><style>.cls-1{fill:#4360df;}.cls-2{fill:#fff;fill-rule:evenodd;}</style></defs><title>Artboard 2 copy 9</title><g id="Page-1"><g id="Icons"><g id="status-logo-blue-circle"><circle id="bg" class="cls-1" cx="171.61" cy="171.5" r="171.5"/></g></g></g><path class="cls-2" d="M142.85,178.81c-26.67,1.5-42.83,15.35-41.69,36.05,1.17,21.06,22.67,34,44.18,32.82,35-2,60.82-33.1,63.73-68.68a84.57,84.57,0,0,1-14.5,2.07C174.88,182.18,162.54,177.7,142.85,178.81Z"/><path class="cls-2" d="M200.53,169.91c27.85-1.6,44.71-16.4,43.52-38.52-1.22-22.5-23.66-36.37-46.11-35.07-36.59,2.11-63.5,35.37-66.53,73.39a85.39,85.39,0,0,1,15.13-2.21C167.1,166.31,180,171.1,200.53,169.91Z"/></svg>