<svg height="141" viewBox="0 0 148 141" width="148" xmlns="http://www.w3.org/2000/svg"><g fill="none" fill-rule="evenodd"><g fill-rule="nonzero"><circle cx="80.8" cy="73.8" fill="#fff" r="65.2"/><path d="m5.7 56.5c-.7 3.7-1 7.5-1 11.3 0 21.4 10.7 40.3 27 51.7-11.2-12-18-28.1-18-45.7 0-37 30.1-67.2 67.2-67.2 1 0 2.1 0 3.1.1-5.1-1.4-10.5-2.1-16.1-2.1-30.6.1-56.7 21.9-62.2 51.9z" fill="#ed1e79"/><g fill="#000"><path d="m37.6 0h-8.3c-.3 0-.5.1-.5.4l-5.8 15.4h-.1l-1.2-15.3c0-.3-.2-.4-.5-.4h-4.9c-.3 0-.5.1-.6.4l-6.4 15.3h-.1l-.4-15.3c0-.3-.2-.4-.5-.4h-7.8c-.2 0-.3.1-.3.4l3 27.2c0 .3.2.4.5.4h6c.3 0 .5-.1.6-.4l6.3-14h.1l1.4 14c0 .3.2.4.5.4h6c.3 0 .5-.1.6-.4l12.6-27.2c.2-.3.1-.5-.2-.5" transform="translate(28 60)"/><path d="m24.2 0h-18.2c-.2 0-.4.1-.4.4l-4.8 27.2c-.1.3.1.4.3.4h18.1c.2 0 .4-.1.5-.4l1.1-6.1c.1-.3-.1-.4-.3-.4h-10c-.1 0-.2-.1-.2-.2l.6-3.3c0-.2.1-.2.2-.2h8.1c.3 0 .4-.1.5-.4l1-5.9c.1-.3-.1-.4-.3-.4h-8.1c-.2 0-.2-.1-.2-.2l.5-3.1c0-.2.1-.2.2-.2h10.2c.2 0 .4-.1.4-.4l1.1-6.1c.1-.5 0-.7-.3-.7" transform="translate(62 60)"/><path d="m23.4 7 1.2-6.5c.1-.3-.1-.4-.4-.4h-21.7c-.2 0-.4.1-.5.4l-1.1 6.5c-.1.3.1.4.4.4h6.4c.1 0 .2.1.2.2l-3.5 20c-.1.3.1.4.4.4h7.5c.2 0 .4-.1.5-.4l3.5-20c0-.2.1-.2.3-.2h6.5c.1 0 .2-.1.3-.4" transform="translate(86 60)"/><path d="m28.1 0h-7.5c-.2 0-.4.1-.5.4l-1.7 9.4c-.1.2-.2.2-.3.2h-5.7c-.2 0-.2-.1-.2-.2l1.6-9.4c.1-.3-.1-.4-.4-.4h-7.5c-.2 0-.4.1-.5.4l-4.8 27.2c-.1.3.1.4.4.4h7.5c.2 0 .4-.1.5-.4l1.8-9.9c0-.2.1-.2.2-.2h5.7c.2 0 .2.1.2.2l-1.7 9.9c-.1.3.1.4.4.4h7.5c.2 0 .4-.1.5-.4l4.8-27.2c.1-.2 0-.4-.3-.4" transform="translate(107 60)"/></g></g><path d="m13.7 73.8c0-2.8.2-5.6.5-8.4l-8.9-5.9c-.4 2.7-.5 5.5-.5 8.3 0 1.8.1 3.5.2 5.3l8.9 6c-.1-1.7-.2-3.5-.2-5.3z"/><path d="m5.6 78.4c2.9 17 12.5 31.6 26.1 41.1-8.9-9.5-15-21.7-17.2-35.1z"/><path d="m80.8 6.7c1 0 2.1 0 3.1.1-5.1-1.4-10.5-2.1-16.1-2.1-30.2 0-56 21.2-61.9 50.6l8.9 5.8c6.1-31 33.4-54.4 66-54.4z"/><path d="m117 22.1c-5-3.5-10.4-6.3-16.3-8.2-6.3-2.1-12.9-3.2-19.9-3.2-34.8 0-63.1 28.3-63.1 63.1 0 22.8 12.2 42.8 30.3 53.9 5.2 3.1 10.8 5.6 16.8 7.1 5.1 1.4 10.5 2.1 16.1 2.1 34.8 0 63.2-28.3 63.2-63.2-.1-21.2-10.8-40.2-27.1-51.6z"/><path d="m102.4 10.2c-10.1-6-21.9-9.5-34.5-9.5-32.5 0-60.3 23.2-66.1 55.1-.7 3.9-1.1 8-1.1 12 0 29.5 19.1 54.6 45.6 63.6 10.1 6.1 21.9 9.6 34.5 9.6 37 0 67.2-30.1 67.2-67.2 0-29.5-19.1-54.5-45.6-63.6zm-34.5-5.5c5.6 0 10.9.7 16.1 2.1-1 0-2.1-.1-3.1-.1-32.7 0-60 23.5-65.9 54.4l-9-5.8c5.9-29.4 31.7-50.6 61.9-50.6zm-63.2 63.1c0-2.8.2-5.5.5-8.3l8.9 5.9c-.3 2.8-.5 5.5-.5 8.4 0 1.8.1 3.6.2 5.3l-8.9-6c-.1-1.7-.2-3.5-.2-5.3zm.9 10.6 8.9 6c2.1 13.4 8.3 25.6 17.2 35.1-13.6-9.5-23.2-24.1-26.1-41.1zm75.2 58.6c-5.6 0-10.9-.7-16.1-2.1-6-1.6-11.6-4-16.8-7.1-18.2-11.1-30.3-31.1-30.3-53.9.1-34.9 28.4-63.2 63.2-63.2 7 0 13.6 1.1 19.9 3.2 5.9 2 11.3 4.7 16.3 8.2 16.3 11.4 27 30.3 27 51.7 0 34.9-28.3 63.2-63.2 63.2z" fill="#000" fill-rule="nonzero"/></g></svg>