<svg height="87" viewBox="0 0 238 87" width="238" xmlns="http://www.w3.org/2000/svg" xmlns:xlink="http://www.w3.org/1999/xlink"><mask id="a" fill="#fff"><path d="m0 .0588h14.7269v17.941h-14.7269z" fill="#fff" fill-rule="evenodd"/></mask><mask id="b" fill="#fff"><path d="m0 27.7813h180.644v-27.781h-180.644z" fill="#fff" fill-rule="evenodd"/></mask><g fill="none" fill-rule="evenodd"><path d="m22.2858.0002 13.511 26.27h-13.511zm13.5198 26.2875 8.767 17.047h-22.287z" fill="#afafaf"/><path d="m22.2859 26.2701v17.064l13.52-17.046z" fill="#0565b2"/><path d="m22.2853.0002v26.27h-13.51zm-22.2853 43.3341 8.767-17.047 13.519 17.047z" fill="#fff"/><path d="m8.7754 26.2701h13.511v17.064l-13.52-17.046z" fill="#43abff"/><path d="m22.2858 60.3983h13.511l-13.511 26.27zm13.5198-.0178-13.52-17.046h22.287z" fill="#878787"/><path d="m22.2859 60.3981v-17.063l13.52 17.045z" fill="#044980"/><path d="m8.775 60.3983h13.511v26.27zm-8.775-17.064h22.286l-13.519 17.046z" fill="#d3d3d3"/><path d="m8.7754 60.3981h13.511v-17.063l-13.52 17.045z" fill="#0072cf"/><g fill="#3d4450" transform="translate(57 28)"><path d="m14.2349 1.1408-2 3.805c-1.028-.546-2.1-.82-3.215-.82-.437 0-.858.098-1.263.295-.405.198-.606.482-.606.853 0 .153.032.295.098.427.066.13.164.246.295.343.131.099.262.181.394.246.131.067.3.127.508.181.208.055.371.093.492.115.119.022.283.049.492.082.207.033.345.06.409.082 3.259.656 4.888 2.318 4.888 4.986 0 2.055-.782 3.613-2.346 4.674-1.563 1.06-3.426 1.59-5.591 1.59-2.427 0-4.691-.644-6.79-1.935l2.165-4.166c.656.46 1.432.859 2.329 1.198.896.339 1.694.508 2.394.508.459 0 .886-.11 1.28-.328.392-.218.589-.535.589-.951 0-.241-.06-.454-.18-.64s-.322-.339-.607-.459c-.284-.12-.552-.213-.803-.278-.251-.067-.607-.149-1.067-.246-.458-.099-.819-.181-1.082-.247-1.137-.305-2.044-.781-2.721-1.426-.679-.645-1.018-1.646-1.018-3.001 0-1.313.372-2.433 1.116-3.363.742-.928 1.655-1.595 2.738-2.001 1.083-.404 2.269-.606 3.559-.606 2.1 0 3.946.36 5.543 1.082" mask="url(#a)" transform="translate(0 9.7813)"/><path d="m17.941 27.2243h5.97v-27.224h-5.97z" mask="url(#b)"/><path d="m39.5396 16.1213c-.688-.732-1.624-1.1-2.805-1.1-1.18 0-2.115.368-2.803 1.1-.69.732-1.034 1.635-1.034 2.706 0 1.093.344 1.995 1.034 2.706.688.71 1.623 1.066 2.803 1.066 1.181 0 2.117-.356 2.805-1.066.688-.711 1.033-1.613 1.033-2.706 0-1.071-.345-1.974-1.033-2.706m-10.004-3.854c1.956-1.619 4.357-2.427 7.199-2.427 2.843 0 5.243.808 7.201 2.427 1.956 1.618 2.934 3.804 2.934 6.56 0 2.755-.978 4.936-2.934 6.543-1.958 1.607-4.358 2.411-7.201 2.411-2.82 0-5.216-.804-7.183-2.411-1.968-1.607-2.952-3.788-2.952-6.543 0-2.756.979-4.942 2.936-6.56" mask="url(#b)"/><path d="m53.7242 10.3977 4.199 9.118 4.232-9.118h3.542l4.23 9.118 4.232-9.118h6.592l-8.79 16.826h-3.87l-4.166-9.217-4.165 9.217h-3.87l-8.791-16.826z" mask="url(#b)"/><path d="m98.483 15.3176v11.906h-5.97v-11.906h-1.934v-4.92h1.934v-5.052h5.97v5.052h3.378v4.92z" mask="url(#b)"/><path d="m109.732 10.3977v2.755h.066c1.116-1.989 2.93-2.984 5.445-2.984h1.148v5.739c-.656-.371-1.498-.557-2.525-.557-1.553 0-2.63.443-3.232 1.328-.601.886-.902 2.138-.902 3.756v6.789h-5.969v-16.826z" mask="url(#b)"/><path d="m130.2154 16.1213c-.688-.732-1.623-1.099-2.804-1.099s-2.116.367-2.804 1.099c-.689.732-1.034 1.635-1.034 2.706 0 1.093.345 1.995 1.034 2.706.688.71 1.623 1.066 2.804 1.066s2.116-.356 2.804-1.066c.688-.711 1.033-1.613 1.033-2.706 0-1.071-.345-1.974-1.033-2.706zm6.806-5.724v16.827h-5.969v-1.87h-.066c-.503.809-1.213 1.415-2.132 1.82-.918.404-1.903.606-2.952.606-2.45 0-4.477-.879-6.084-2.639-1.608-1.76-2.411-3.876-2.411-6.347s.792-4.581 2.378-6.33c1.585-1.749 3.602-2.624 6.051-2.624 2.232 0 3.969.732 5.216 2.197v-1.64z" mask="url(#b)"/><path d="m152.814 16.1213c-.688-.732-1.624-1.099-2.804-1.099s-2.116.367-2.804 1.099c-.69.732-1.034 1.635-1.034 2.706 0 1.093.344 1.995 1.034 2.706.688.71 1.624 1.066 2.804 1.066s2.116-.356 2.804-1.066c.689-.711 1.033-1.613 1.033-2.706 0-1.071-.344-1.974-1.033-2.706zm.836 11.103v-1.87h-.065c-.503.809-1.214 1.415-2.132 1.82-.918.404-1.903.606-2.951.606-2.45 0-4.478-.879-6.085-2.639-1.608-1.76-2.411-3.876-2.411-6.347s.792-4.581 2.378-6.33c1.585-1.749 3.602-2.624 6.051-2.624 2.231 0 3.97.732 5.215 2.197v-12.037h5.971v27.224z" mask="url(#b)"/><path d="m168.1802 16.3674h6.921c-.153-.788-.547-1.427-1.181-1.919-.635-.492-1.367-.738-2.197-.738-.897 0-1.668.229-2.313.689-.645.459-1.055 1.115-1.23 1.968m12.464 2.82v.623h-12.562c0 2.494 1.246 3.74 3.74 3.74 1.289 0 2.24-.514 2.852-1.542h5.74c-.459 1.88-1.487 3.312-3.083 4.297-1.596.984-3.422 1.475-5.477 1.475-2.887 0-5.232-.786-7.036-2.36-1.804-1.575-2.706-3.773-2.706-6.593 0-2.777.859-4.97 2.576-6.577 1.716-1.608 3.963-2.41 6.739-2.41 2.908 0 5.171.837 6.79 2.508 1.617 1.673 2.427 3.953 2.427 6.839" mask="url(#b)"/><path d="m81.2867 20.8821c.718-.719 1.596-1.079 2.631-1.079 1.036 0 1.913.36 2.633 1.079.717.719 1.078 1.597 1.078 2.632 0 1.014-.361 1.887-1.078 2.616-.72.729-1.597 1.094-2.633 1.094-1.035 0-1.913-.365-2.631-1.094-.72-.729-1.079-1.602-1.079-2.616 0-1.035.359-1.913 1.079-2.632" mask="url(#b)"/></g></g></svg>