<?xml version="1.0" encoding="UTF-8"?>
<svg width="45px" height="87px" viewBox="0 0 45 87" version="1.1" xmlns="http://www.w3.org/2000/svg" xmlns:xlink="http://www.w3.org/1999/xlink">
    <!-- Generator: Sketch 51.3 (57544) - http://www.bohemiancoding.com/sketch -->
    <title>shape</title>
    <desc>Created with Sketch.</desc>
    <defs></defs>
    <g id="Page-1" stroke="none" stroke-width="1" fill="none" fill-rule="evenodd">
        <g id="slow-trade-2018-FINAL">
            <g id="#logo">
                <g id="shape">
                    <path d="M22.2858,0.0002 L35.7968,26.2702 L22.2858,26.2702 L22.2858,0.0002 Z M35.8056,26.2877 L44.5726,43.3347 L22.2856,43.3347 L35.8056,26.2877 Z" id="Combined-Shape" fill="#AFAFAF"></path>
                    <polygon id="Fill-3" fill="#0565B2" points="22.2859 26.2701 22.2859 43.3341 35.8059 26.2881"></polygon>
                    <path d="M22.2853,0.0002 L22.2853,26.2702 L8.7753,26.2702 L22.2853,0.0002 Z M-1.77635684e-15,43.3343 L8.767,26.2873 L22.286,43.3343 L-1.77635684e-15,43.3343 Z" id="Combined-Shape" fill="#FFFFFF"></path>
                    <polygon id="Fill-6" fill="#43ABFF" points="8.7754 26.2701 22.2864 26.2701 22.2864 43.3341 8.7664 26.2881"></polygon>
                    <path d="M22.2858,60.3983 L35.7968,60.3983 L22.2858,86.6683 L22.2858,60.3983 Z M35.8056,60.3805 L22.2856,43.3345 L44.5726,43.3345 L35.8056,60.3805 Z" id="Combined-Shape" fill="#878787"></path>
                    <polygon id="Fill-9" fill="#044980" points="22.2859 60.3981 22.2859 43.3351 35.8059 60.3801"></polygon>
                    <path d="M8.775,60.3983 L22.286,60.3983 L22.286,86.6683 L8.775,60.3983 Z M-5.32907052e-15,43.3343 L22.286,43.3343 L8.767,60.3803 L-5.32907052e-15,43.3343 Z" id="Combined-Shape" fill="#D3D3D3"></path>
                    <polygon id="Fill-12" fill="#0072CF" points="8.7754 60.3981 22.2864 60.3981 22.2864 43.3351 8.7664 60.3801"></polygon>
                </g>
            </g>
        </g>
    </g>
</svg>