<svg height="74" viewBox="0 0 98 74" width="98" xmlns="http://www.w3.org/2000/svg"><g fill="#fff"><path d="m83.898.898h-69.797c-7.6016 0-13.801 6.8984-13.801 15.301v42.398c0 8.3984 6.1992 15.301 13.801 15.301h69.699c7.6016 0 13.801-6.8984 13.801-15.301v-42.398c.097657-8.5-6.1016-15.301-13.703-15.301zm-69.797 5.4023h69.699c4.6016 0 8.3984 4.3984 8.3984 9.8984v2.5h-86.398v-2.5c0-5.5 3.6992-9.8984 8.3008-9.8984zm69.797 62.098h-69.797c-4.6016 0-8.3984-4.3984-8.3984-9.8984l-.003906-34.301h86.5v34.398c0 5.4023-3.6992 9.8008-8.3008 9.8008z"/><path d="m62.5 12.398c0 4.5352-6.8008 4.5352-6.8008 0 0-4.5312 6.8008-4.5312 6.8008 0"/><path d="m73 12.398c0 4.5352-6.8008 4.5352-6.8008 0 0-4.5312 6.8008-4.5312 6.8008 0"/><path d="m84.102 12.398c0 4.5352-6.8008 4.5352-6.8008 0 0-4.5312 6.8008-4.5312 6.8008 0"/><path d="m43.801 35-3.1992 3.1992-3.1016-3.1992-2.6016 2.6992 3.1016 3.1016-3.1016 3.0977 2.6016 2.7031 3.1016-3.2031 3.1992 3.2031 2.5977-2.7031-3.1992-3.0977 3.1992-3.1016z"/><path d="m63.102 37.699-2.6016-2.6992-3.1016 3.1992-3.1992-3.1992-2.5977 2.6992 3.1992 3.1016-3.1992 3.0977 2.5977 2.7031 3.1992-3.2031 3.1016 3.2031 2.6016-2.7031-3.1016-3.0977z"/><path d="m35.699 53.102h26.5v3.6992h-26.5z"/></g></svg>