<?xml version="1.0" encoding="UTF-8"?>
<svg width="98px" height="74px" viewBox="0 0 98 74" version="1.1" xmlns="http://www.w3.org/2000/svg" xmlns:xlink="http://www.w3.org/1999/xlink">
    <!-- Generator: Sketch 50 (54983) - http://www.bohemiancoding.com/sketch -->
    <title>404</title>
    <desc>Created with Sketch.</desc>
    <defs></defs>
    <g id="Welcome" stroke="none" stroke-width="1" fill="none" fill-rule="evenodd">
        <g id="404-page" transform="translate(-753.000000, -183.000000)" fill="#FFFFFF" fill-rule="nonzero">
            <g id="#1---Home" transform="translate(541.000000, 183.000000)">
                <g id="404" transform="translate(212.000000, 0.000000)">
                    <path d="M83.898,0.898 L14.101,0.898 C6.4994,0.898 0.3,7.7964 0.3,16.199 L0.3,58.597 C0.3,66.9954 6.4992,73.898 14.101,73.898 L83.8,73.898 C91.4016,73.898 97.601,66.9996 97.601,58.597 L97.601,16.199 C97.698657,7.699 91.4994,0.898 83.898,0.898 Z M14.101,6.3003 L83.8,6.3003 C88.4016,6.3003 92.1984,10.6987 92.1984,16.1987 L92.1984,18.6987 L5.8004,18.6987 L5.8004,16.1987 C5.8004,10.6987 9.4996,6.3003 14.1012,6.3003 L14.101,6.3003 Z M83.898,68.3983 L14.101,68.3983 C9.4994,68.3983 5.7026,63.9999 5.7026,58.4999 L5.698694,24.1989 L92.198694,24.1989 L92.198694,58.5969 C92.198694,63.9992 88.499494,68.3977 83.897894,68.3977 L83.898,68.3983 Z" id="Shape"></path>
                    <path d="M62.5,12.398 C62.5,16.9332 55.6992,16.9332 55.6992,12.398 C55.6992,7.8668 62.5,7.8668 62.5,12.398" id="Shape"></path>
                    <path d="M73,12.398 C73,16.9332 66.1992,16.9332 66.1992,12.398 C66.1992,7.8668 73,7.8668 73,12.398" id="Shape"></path>
                    <path d="M84.102,12.398 C84.102,16.9332 77.3012,16.9332 77.3012,12.398 C77.3012,7.8668 84.102,7.8668 84.102,12.398" id="Shape"></path>
                    <polygon id="Shape" points="43.801 35 40.6018 38.1992 37.5002 35 34.8986 37.6992 38.0002 40.8008 34.8986 43.8985 37.5002 46.6016 40.6018 43.3985 43.801 46.6016 46.3987 43.8985 43.1995 40.8008 46.3987 37.6992"></polygon>
                    <polygon id="Shape" points="63.102 37.699 60.5004 34.9998 57.3988 38.199 54.1996 34.9998 51.6019 37.699 54.8011 40.8006 51.6019 43.8983 54.1996 46.6014 57.3988 43.3983 60.5004 46.6014 63.102 43.8983 60.0004 40.8006"></polygon>
                    <polygon id="Shape" points="35.699 53.102 62.199 53.102 62.199 56.8012 35.699 56.8012"></polygon>
                </g>
            </g>
        </g>
    </g>
</svg>