<svg height="20" viewBox="0 0 20 20" width="20" xmlns="http://www.w3.org/2000/svg"><g fill="#1a4977"><g transform="translate(5 4)"><path d="m5 11.184c-.59865458 0-1.08396-.4853054-1.08396-1.08396v-8.62656c0-.59867115.48531885-1.08399 1.08399-1.08399s1.08399.48531885 1.08399 1.08399v8.62632c.00006366.287536-.11411907.5633163-.31742088.7666518-.20330181.2033356-.47906307.3175641-.76659912.3175482z"/><g transform="translate(0 5)"><path d="m5 6.61048c-.43843614.00001985-.83370984-.26407876-1.00149478-.66913983-.16778493-.40506106-.07503631-.87130893.23499478-1.18132017l3.7041-3.7041c.27384407-.27384407.67298051-.38079236 1.04705847-.28055847s.66626611.39242204.7665.7665-.0067144.7732144-.28055847 1.04705847l-3.7041 3.7041c-.20308203.20359294-.4789374.31784349-.7665.31746z"/><path d="m5 6.61048c-.2875626.00038349-.56341797-.11386706-.7665-.31746l-3.7041-3.7041c-.42332625-.42332626-.42332624-1.10967373.00000001-1.53299999.42332626-.42332625 1.10967373-.42332626 1.53299999-.00000001l3.7041 3.7041c.31003109.31001124.40277971.77625911.23499478 1.18132017-.16778494.40506107-.56305864.66915968-1.00149478.66913983z"/></g></g><path d="m10 19.62754c-4.93037615-.0056788-9.05499799-3.7449483-9.54269621-8.6511476-.48769823-4.90619929 2.82008187-9.38428282 7.65285686-10.36046267 4.83277505-.97617985 9.61937005 1.86690805 11.07423285 6.57774827 1.4548628 4.7108402-.8949946 9.7578999-5.4366135 11.676842-1.1856082.5019076-2.4603126.7593871-3.74778.75702zm0-17.08716c-3.55876353.00001387-6.62193511 2.51391308-7.31620283 6.00429847-.69426771 3.49038543 1.1737315 6.98513693 4.46160481 8.34700583 3.28787332 1.3618689 7.07990312.2115561 9.05703712-2.7474537 1.9771341-2.9590097 1.5887137-6.90259171-.9277191-9.4190106-1.3958832-1.40351236-3.2952484-2.19024778-5.27472-2.18484z"/></g></svg>