<?xml version="1.0" encoding="UTF-8"?>
<svg width="20px" height="20px" viewBox="0 0 20 20" version="1.1" xmlns="http://www.w3.org/2000/svg" xmlns:xlink="http://www.w3.org/1999/xlink">
    <!-- Generator: Sketch 46 (44423) - http://www.bohemiancoding.com/sketch -->
    <title>download-icon</title>
    <desc>Created with Sketch.</desc>
    <defs></defs>
    <g id="Welcome" stroke="none" stroke-width="1" fill="none" fill-rule="evenodd">
        <g id="MVP-Minimal-version" transform="translate(-970.000000, -535.000000)" fill-rule="nonzero" fill="#1A4977">
            <g id="#1---Home" transform="translate(83.000000, 189.000000)">
                <g id="#-1---Connect-Wallet!" transform="translate(537.000000, 0.000000)">
                    <g id="Group-18" transform="translate(164.000000, 332.000000)">
                        <g id="download-icon" transform="translate(186.000000, 14.000000)">
                            <g id="Group" transform="translate(5.000000, 4.000000)">
                                <path d="M5,11.184 C4.40134542,11.184 3.91604,10.6986946 3.91604,10.10004 L3.91604,1.47348 C3.91604,0.874808854 4.40135885,0.38949 5.00003,0.38949 C5.59870115,0.38949 6.08402,0.874808854 6.08402,1.47348 L6.08402,10.0998 C6.08408366,10.387336 5.96990093,10.6631163 5.76659912,10.8664518 C5.56329731,11.0697874 5.28753605,11.1840159 5,11.184 L5,11.184 Z" id="Shape"></path>
                                <g transform="translate(0.000000, 5.000000)" id="Shape">
                                    <path d="M5,6.61048 C4.56156386,6.61049985 4.16629016,6.34640124 3.99850522,5.94134017 C3.83072029,5.53627911 3.92346891,5.07003124 4.2335,4.76002 L7.9376,1.05592 C8.21144407,0.782075925 8.61058051,0.67512764 8.98465847,0.775361528 C9.35873643,0.875595416 9.65092458,1.16778357 9.75115847,1.54186153 C9.85139236,1.91593949 9.74444407,2.31507593 9.4706,2.58892 L5.7665,6.29302 C5.56341797,6.49661294 5.2875626,6.61086349 5,6.61048 Z"></path>
                                    <path d="M5,6.61048 C4.7124374,6.61086349 4.43658203,6.49661294 4.2335,6.29302 L0.5294,2.58892 C0.10607375,2.16559374 0.106073755,1.47924627 0.529400011,1.05592001 C0.952726268,0.632593755 1.63907374,0.63259375 2.0624,1.05592 L5.7665,4.76002 C6.07653109,5.07003124 6.16927971,5.53627911 6.00149478,5.94134017 C5.83370984,6.34640124 5.43843614,6.61049985 5,6.61048 Z"></path>
                                </g>
                            </g>
                            <path d="M10,19.62754 C5.06962385,19.6218612 0.945002005,15.8825917 0.457303785,10.9763924 C-0.0303944361,6.07019311 3.27738566,1.59210958 8.11016065,0.615929732 C12.9429357,-0.36025012 17.7295307,2.48283778 19.1843935,7.193678 C20.6392563,11.9045182 18.2893989,16.9515779 13.74778,18.87052 C12.5621718,19.3724276 11.2874674,19.6299071 10,19.62754 L10,19.62754 Z M10,2.54038 C6.44123647,2.54039387 3.37806489,5.05429308 2.68379717,8.54467847 C1.98952946,12.0350639 3.85752867,15.5298154 7.14540198,16.8916843 C10.4332753,18.2535532 14.2253051,17.1032404 16.2024391,14.1442306 C18.1795732,11.1852209 17.7911528,7.24163889 15.27472,4.72522 C13.8788368,3.32170764 11.9794716,2.53497222 10,2.54038 L10,2.54038 Z" id="Shape"></path>
                        </g>
                    </g>
                </g>
            </g>
        </g>
    </g>
</svg>