<svg height="23" viewBox="0 0 24 23" width="24" xmlns="http://www.w3.org/2000/svg"><path d="m86.9841192 29c-1.5088426 0-2.8513561.950452-3.3503434 2.3761301h-7.3422421v2.3761301h2.3167269l-3.5047919 8.3164554c-.5583906 2.3761301 1.188065 3.5641951 4.1582277 3.5641951 2.9701626 0 4.8235441-1.188065 4.1582277-3.5641951l-3.5047919-8.3164554h3.7067629c.3920615 1.0098553 1.1643038 1.7820976 2.1741591 2.174159v13.2706867h-10.6925855v2.3761301h23.761301v-2.3761301h-10.6925854v-13.2825673c1.0098553-.3801808 1.7820975-1.1524231 2.1622784-2.1622784h3.7186436l-3.5047919 8.3164554c-.5583906 2.3761301 1.188065 3.5641951 4.1582276 3.5641951 2.9701627 0 4.8235441-1.188065 4.1582277-3.5641951l-3.5047919-8.3164554h2.3167269v-2.3761301h-7.3303614c-.510868-1.4256781-1.8533815-2.3761301-3.3622241-2.3761301zm0 2.3761301c.6561502 0 1.1880651.5319148 1.1880651 1.1880651 0 .6561502-.5319149 1.188065-1.1880651 1.188065s-1.188065-.5319148-1.188065-1.188065c0-.6561503.5319148-1.1880651 1.188065-1.1880651zm-7.7224228 6.2373415 1.7820976 4.455244h-3.5641952zm15.4448456 0 1.7820976 4.455244h-3.5641951z" fill="#7c7c8c" transform="translate(-75 -29)"/></svg>