<svg height="20" viewBox="0 0 20 20" width="20" xmlns="http://www.w3.org/2000/svg"><path d="m1091.97701 3.42676403c-1.25614 0-2.37381.79126989-2.78922 1.97817472h-6.11256v1.97817472h1.92872l-2.91781 6.92361153c-.46487 1.9781747.98909 2.9672621 3.46181 2.9672621 2.47271 0 4.01569-.9890874 3.4618-2.9672621l-2.91781-6.92361153h3.08596c.32639.84072425.9693 1.48363104 1.81003 1.81002987v11.04810576h-8.90179v1.9781748h19.78175v-1.9781748h-8.90179v-11.05799664c.84072-.31650795 1.48363-.95941474 1.80014-1.80013899h3.09584l-2.9178 6.92361153c-.46488 1.9781747.98908 2.9672621 3.4618 2.9672621s4.0157-.9890874 3.46181-2.9672621l-2.91781-6.92361153h1.92872v-1.97817472h-6.10267c-.42531-1.18690483-1.54298-1.97817472-2.79912-1.97817472zm0 1.97817472c.54626 0 .98909.44282949.98909.98908736 0 .54625786-.44283.98908736-.98909.98908736-.54625 0-.98908-.4428295-.98908-.98908736 0-.54625787.44283-.98908736.98908-.98908736zm-6.42906 5.19270865 1.48363 3.7090776h-2.96727zm12.85813 0 1.48363 3.7090776h-2.96726z" fill="#3d4450" transform="translate(-1082 -3)"/></svg>