<?xml version="1.0" encoding="UTF-8"?>
<svg width="28px" height="16px" viewBox="0 0 28 16" version="1.1" xmlns="http://www.w3.org/2000/svg" xmlns:xlink="http://www.w3.org/1999/xlink">
    <!-- Generator: Sketch 46 (44423) - http://www.bohemiancoding.com/sketch -->
    <title>ICON-UNCLAIMED</title>
    <desc>Created with Sketch.</desc>
    <defs></defs>
    <g id="Welcome" stroke="none" stroke-width="1" fill="none" fill-rule="evenodd">
        <g id="MVP-Minimal-version" transform="translate(-867.000000, -679.000000)" fill-rule="nonzero" fill="#FFFFFF">
            <g id="#4---Order-Confirm-/-Overview" transform="translate(317.000000, 189.000000)">
                <g id="#-User-Stats-Footer" transform="translate(0.000000, 461.000000)">
                    <g id="claim-button" transform="translate(542.000000, 24.000000)">
                        <g id="ICON-UNCLAIMED" transform="translate(8.800000, 5.866667)">
                            <path d="M13.0666667,0 C17.1903928,0 20.5333333,3.34294053 20.5333333,7.46666667 C20.5333333,11.5903928 17.1903928,14.9333333 13.0666667,14.9333333 C8.94294053,14.9333333 5.6,11.5903928 5.6,7.46666667 C5.6,3.34294053 8.94294053,8.28966525e-16 13.0666667,0 L13.0666667,0 Z M13.0666667,13.0666667 C16.1594613,13.0666667 18.6666667,10.5594613 18.6666667,7.46666667 C18.6666667,4.37387207 16.1594613,1.86666667 13.0666667,1.86666667 C9.97387207,1.86666667 7.46666667,4.37387207 7.46666667,7.46666667 C7.46666667,10.5594613 9.97387207,13.0666667 13.0666667,13.0666667 L13.0666667,13.0666667 Z M1.86666667,7.46666667 C1.86666667,9.90266667 3.42533333,11.9746667 5.6,12.74 L5.6,14.6906667 C2.38,13.86 0,10.948 0,7.46666667 C0,3.98533333 2.38,1.07333333 5.6,0.242666667 L5.6,2.19333333 C3.42533333,2.95866667 1.86666667,5.03066667 1.86666667,7.46666667 Z M23.4666667,7.33333333 L23.4666667,0 L26.4,0 L26.4,7.33333333 L23.4666667,7.33333333 L23.4666667,7.33333333 Z M23.4666667,13.2 L23.4666667,10.2666667 L26.4,10.2666667 L26.4,13.2 L23.4666667,13.2 Z"></path>
                        </g>
                    </g>
                </g>
            </g>
        </g>
    </g>
</svg>