<svg height="16" viewBox="0 0 28 16" width="28" xmlns="http://www.w3.org/2000/svg"><path d="m13.0666667 0c4.1237261 0 7.4666666 3.34294053 7.4666666 7.46666667 0 4.12372613-3.3429405 7.46666663-7.4666666 7.46666663-4.12372617 0-7.4666667-3.3429405-7.4666667-7.46666663 0-4.12372614 3.34294053-7.46666667 7.4666667-7.46666667zm0 13.0666667c3.0927946 0 5.6-2.5072054 5.6-5.60000003 0-3.0927946-2.5072054-5.6-5.6-5.6-3.09279463 0-5.60000003 2.5072054-5.60000003 5.6 0 3.09279463 2.5072054 5.60000003 5.60000003 5.60000003zm-11.20000003-5.60000003c0 2.436 1.55866666 4.50800003 3.73333333 5.27333333v1.9506667c-3.22-.8306667-5.6-3.7426667-5.6-7.22400003 0-3.48133334 2.38-6.39333334 5.6-7.224v1.95066666c-2.17466667.76533334-3.73333333 2.83733334-3.73333333 5.27333334zm21.60000003-.13333334v-7.33333333h2.9333333v7.33333333zm0 5.86666667v-2.9333333h2.9333333v2.9333333z" fill="#fff" transform="translate(.8 .866667)"/></svg>