<svg height="60" viewBox="0 0 60 60" width="60" xmlns="http://www.w3.org/2000/svg"><g fill="#3d4450"><path d="m2.56119588 40.8247423 2.25674226.7490103v7.014433c.00483279 2.9743917 2.41379382 5.3833608 5.38818556 5.3881855h7.1134021l1.3989897 4.9001444v-.0024161c.2319587.8215051 1.0897113 1.2975464 1.9112165 1.0631752.8215051-.2319587 1.2975464-1.0897113 1.0631752-1.9112165l-1.7203299-6.0188659c-.188468-.6620413-.7949691-1.1187217-1.4835464-1.1187217h-8.2830928c-1.26612367-.0024161-2.29057728-1.0293402-2.29540202-2.295402v-8.1402062c.00724887-.6716908-.42283917-1.2733609-1.06317526-1.4835464l-3.31509278-1.0752371c-.08456907-.0289949-.15222062-.0894-.18604948-.1691382-.03624371-.0821505-.03624371-.1715505 0-.2537072l3.53251546-7.9181443v.0024161c.68381443-1.5270928 1.03416495-3.182165 1.03175258-4.8566598 0-5.2601444 2.0900412-10.3026805 5.8086186-14.0214433 3.7185773-3.72098973 8.7637113-5.80861859 14.0239175-5.80861859h.0555736c2.488701.00483216 4.9532783.48807835 7.2606185 1.42317525l-12.3080412 21.32103094c-.7248866 1.254-.7248866 2.8003917 0 4.056866.7248866 1.2564742 2.0634433 2.0296082 3.5132165 2.0296082h19.1437113c-.8795257 1.7276289-2.0054845 3.3175052-3.3465154 4.7189072-.381767.3986784-.5219072.9689073-.372099 1.4980825l3.2716083 11.4748454.002416-.0024161c.2319588.8239175 1.0897114 1.2999587 1.9112165 1.0655876.8215052-.2343773 1.2975464-1.0897113 1.0631753-1.9112165l-3.0444742-10.6459794c1.6357732-1.8363711 2.9623299-3.9264123 3.9288247-6.185567h6.2727835c1.4497732 0 2.7883299-.7731958 3.5132165-2.0296082.7248866-1.254.7248866-2.8003918 0-4.056866l-14.4129897-24.97670103c-.7248866-1.2588866-2.0634433-2.03449484-3.5156288-2.03449484-1.4521856 0-2.7931547.77560824-3.5180413 2.03449484l-.5388185.93507217.0024167-.0024167c-2.7786805-1.18397939-5.7699588-1.80012372-8.7903093-1.80494846h-.0676578c-6.0840618-.00724886-11.9214433 2.40414433-16.2247422 6.70515464-4.30571136 4.29847418-6.72432992 10.13381448-6.72432992 16.21793818.0024167 1.2395257-.26095051 2.4645773-.76595876 3.5929484l-3.53251546 7.9181443c-.39142887.8795258-.39142887 1.8822681-.00241609 2.761732.3890165.8771134 1.13078351 1.5512165 2.04414433 1.8532577zm38.11608252-37.11340209c.3431072-.00241609.6644536.18121855.8336288.48324742l14.4129897 24.96432987c.1715505.297198.1715505.666866 0 .9640825-.1715505.2996165-.4904969.4832474-.8360412.4832474h-28.8235052c-.3455196 0-.6644536-.1836371-.8360412-.4832474-.1715505-.2971979-.1715505-.666866 0-.9640825l14.4129897-24.96432987c.1691381-.30202887.4904969-.48566598.8360412-.48324742z"/><path d="m39.131134 13.1925773v7.0218557c0 .8553402.6910516 1.5463917 1.5463918 1.5463917.8529278 0 1.5463917-.6910515 1.5463917-1.5463917v-7.0218557c0-.8529278-.6934639-1.5463917-1.5463917-1.5463917-.8553402 0-1.5463918.6934639-1.5463918 1.5463917z"/><path d="m40.6775258 24.5245361c-.8553402 0-1.5463918.6934639-1.5463918 1.5463917v.1111485c0 .8553402.6910516 1.5463917 1.5463918 1.5463917.8529278 0 1.5463917-.6910515 1.5463917-1.5463917v-.1111485c0-.4083464-.164301-.8022062-.4542556-1.0921237-.2899547-.2899175-.6838145-.4542495-1.0921238-.4542495z"/></g></svg>