<?xml version="1.0" encoding="UTF-8"?>
<svg width="94px" height="26px" viewBox="0 0 94 26" version="1.1" xmlns="http://www.w3.org/2000/svg" xmlns:xlink="http://www.w3.org/1999/xlink">
    <!-- Generator: Sketch 46 (44423) - http://www.bohemiancoding.com/sketch -->
    <title>dutchx_logo</title>
    <desc>Created with Sketch.</desc>
    <defs>
        <polygon id="path-1" points="0 0.0271594595 0 18.8992946 17.5323973 18.8992946 17.5323973 0.0271594595 4.76169873e-21 0.0271594595"></polygon>
        <polygon id="path-3" points="0.00892432432 5.44594595 6.1646 5.44594595 6.1646 0.115278378 0.00892432432 0.115278378"></polygon>
        <polygon id="path-5" points="16.7752703 17.5597149 16.7752703 0.115295946 0.0784040541 0.115295946 0.0784040541 17.5597149 16.7752703 17.5597149"></polygon>
    </defs>
    <g id="Welcome" stroke="none" stroke-width="1" fill="none" fill-rule="evenodd">
        <g id="MVP-Minimal-version" transform="translate(-24.000000, -18.000000)">
            <g id="#Top" transform="translate(24.000000, 17.000000)">
                <g id="dutchx_logo" transform="translate(0.000000, 1.000000)">
                    <path d="M40.7004878,18.7800284 C39.5795014,18.7800284 38.7130689,18.4388662 38.1013662,17.7558392 C37.4893122,17.0731635 37.1832851,16.1325959 37.1832851,14.9344878 L37.1832851,8.2289473 L40.1205824,8.2289473 L40.1205824,14.0069203 C40.1205824,14.7025959 40.2753527,15.2275149 40.5845419,15.5818527 C40.8937311,15.9363662 41.3315149,16.1130959 41.8984203,16.1130959 C42.46515,16.1130959 42.9129473,15.9363662 43.2416365,15.5818527 C43.5699743,15.2275149 43.7344068,14.7025959 43.7344068,14.0069203 L43.7344068,8.2289473 L46.6715284,8.2289473 L46.6715284,18.5866095 L43.7344068,18.5866095 L43.7344068,17.1181365 C43.5666365,17.3373797 43.3832311,17.5466095 43.1836635,17.7460014 C42.9835689,17.9460959 42.7613392,18.1230014 42.5169743,18.2775959 C42.2719068,18.4323662 42.0015419,18.5548122 41.705177,18.6445824 C41.4086365,18.7347041 41.0737986,18.7800284 40.7004878,18.7800284" id="Fill-1" fill="#FFFFFF"></path>
                    <path d="M52.7970581,18.7606338 C52.3460986,18.7606338 51.9371257,18.712323 51.5701392,18.615877 C51.202977,18.5190797 50.8869365,18.3484986 50.6230716,18.1036068 C50.3588554,17.8590662 50.1526122,17.5402149 50.0046932,17.1470527 C49.8565986,16.7542419 49.7824635,16.2551473 49.7824635,15.6494176 L49.7824635,10.7410392 L48.5458824,10.7410392 L48.5458824,8.2290527 L49.7824635,8.2290527 L49.7824635,5.58144459 L52.7199365,5.58144459 L52.7199365,8.2290527 L55.1546257,8.2290527 L55.1546257,10.7410392 L52.7199365,10.7410392 L52.7199365,15.1663095 C52.7199365,15.8363365 53.0352743,16.1711743 53.6666527,16.1711743 C54.1819095,16.1711743 54.6650176,16.0489041 55.115977,15.8040122 L55.115977,18.1615797 C54.8067878,18.3421743 54.4652743,18.4871068 54.0917878,18.596377 C53.71795,18.705823 53.2866662,18.7606338 52.7970581,18.7606338" id="Fill-3" fill="#FFFFFF"></path>
                    <path d="M61.9181216,18.8186243 C61.1451486,18.8186243 60.4269865,18.6766784 59.7632838,18.3934892 C59.0997568,18.1103 58.5296892,17.7268 58.0532568,17.2436919 C57.576473,16.7605838 57.2029865,16.1938541 56.9324459,15.5431514 C56.6619054,14.8926243 56.5268108,14.2001108 56.5268108,13.4657865 L56.5268108,13.4273135 C56.5268108,12.6929892 56.6619054,11.9971378 56.9324459,11.3401108 C57.2029865,10.6829081 57.576473,10.1100297 58.0532568,9.62042162 C58.5296892,9.13081351 59.0997568,8.74432703 59.7632838,8.46078649 C60.4269865,8.1775973 61.1577973,8.03565135 61.9569459,8.03565135 C62.9358108,8.03565135 63.7472568,8.19024595 64.3916351,8.49943514 C65.0356622,8.80862432 65.6025676,9.23358378 66.0921757,9.77484054 L64.2948378,11.707273 C63.96,11.3594351 63.6151486,11.0825703 63.2611622,10.876327 C62.9066486,10.6704351 62.4653514,10.5671378 61.9372703,10.5671378 C61.5636081,10.5671378 61.2254324,10.6414486 60.9227432,10.7893676 C60.6200541,10.9376378 60.3558378,11.1405432 60.1304459,11.3980838 C59.9050541,11.6561514 59.7311351,11.9556784 59.6088649,12.2966649 C59.4862432,12.6380027 59.4254595,13.0021784 59.4254595,13.3884892 L59.4254595,13.4273135 C59.4254595,13.8266243 59.4862432,14.2001108 59.6088649,14.547773 C59.7311351,14.8957865 59.9085676,15.198827 60.1402838,15.4561919 C60.372,15.7140838 60.6488649,15.9168135 60.9710541,16.0649081 C61.2928919,16.2131784 61.6539054,16.2871378 62.0533919,16.2871378 C62.543,16.2871378 62.9711216,16.1875297 63.3382838,15.9876108 C63.7057973,15.7880432 64.0694459,15.5210162 64.4304595,15.1856514 L66.1501486,16.9250162 C65.6477162,17.4789216 65.0744865,17.9330432 64.4304595,18.2872054 C63.7860811,18.6413676 62.9484595,18.8186243 61.9181216,18.8186243" id="Fill-5" fill="#FFFFFF"></path>
                    <g id="Group-9" transform="translate(0.000000, 0.148622)">
                        <mask id="mask-2" fill="white">
                            <use xlink:href="#path-1"></use>
                        </mask>
                        <g id="Clip-8"></g>
                        <path d="M10.0883162,8.56007838 C11.7519649,6.05230811 15.6147216,3.67453784 17.5323973,2.5979973 L17.5323973,10.6752135 C17.5323973,12.8079162 16.7163838,14.7524703 15.3826541,16.2169027 C14.2051,13.3551459 12.2399919,10.7655108 10.0883162,8.56060541 L10.0883162,8.56007838 Z M9.30445135,18.8992946 L8.22492432,18.8992946 C3.69020811,18.8992946 -3.51351351e-05,15.2095784 -3.51351351e-05,10.6752135 L-3.51351351e-05,2.64964595 C3.07955946,4.51936216 11.501627,10.1520514 14.1480054,17.3203216 C12.7896811,18.3134162 11.1135595,18.8992946 9.30532973,18.8992946 L9.30445135,18.8992946 Z M8.59981622,0.0271594595 C9.61627568,1.09491622 11.1954243,3.09111892 11.4464649,4.8607 C10.4972892,5.66547027 9.62207297,6.54314595 8.96908649,7.45630811 C7.90132973,6.44880811 6.81547838,5.53845676 5.77776216,4.73087568 C6.09819459,2.87978108 7.74111351,0.9347 8.59981622,0.0271594595 L8.59981622,0.0271594595 Z" id="Fill-7" fill="#FFFFFF" mask="url(#mask-2)"></path>
                    </g>
                    <g id="Group-12" transform="translate(5.621622, 20.527000)">
                        <mask id="mask-4" fill="white">
                            <use xlink:href="#path-3"></use>
                        </mask>
                        <g id="Clip-11"></g>
                        <polygon id="Fill-10" fill="#FFFFFF" mask="url(#mask-4)" points="6.1646 0.115278378 3.08676216 5.44598108 0.00892432432 0.115278378"></polygon>
                    </g>
                    <path d="M77.551377,11.8811568 C77.551377,10.6830486 77.2451743,9.74283243 76.6332959,9.05980541 C76.0214176,8.37730541 75.1549851,8.03561622 74.0341743,8.03561622 C73.6605122,8.03561622 73.3256743,8.08094054 73.0294851,8.17106216 C72.7329446,8.26135946 72.4624041,8.38345405 72.2178635,8.53822432 C71.9729716,8.69281892 71.7505662,8.8699 71.5511743,9.06964324 C71.3512554,9.26938649 71.1676743,9.47861622 71.0004311,9.69750811 L71.0004311,4.48011622 L68.0631338,4.48011622 L68.0631338,18.5866973 L71.0004311,18.5866973 L71.0004311,12.8087243 C71.0004311,12.1130486 71.1646878,11.5883054 71.4932014,11.2337919 C71.8217149,10.8796297 72.2691608,10.7025486 72.8362419,10.7025486 C73.4029716,10.7025486 73.8411068,10.8796297 74.1502959,11.2337919 C74.4593095,11.5883054 74.6139041,12.1130486 74.6139041,12.8087243 L74.6139041,18.1429405 L77.551377,13.9713459 L77.551377,11.8811568 Z" id="Fill-13" fill="#FFFFFF"></path>
                    <path d="M34.4008635,9.12747568 C34.0530257,8.30970541 33.5602554,7.59786757 32.922377,6.99213784 C32.2846743,6.38675946 31.5245257,5.91331351 30.6421068,5.57197568 C29.7595122,5.23046216 28.7901338,5.05970541 27.7337959,5.05970541 L22.4584311,5.05970541 L22.4584311,7.76511081 L25.4342014,7.76511081 L25.946823,7.76511081 L27.7337959,7.76511081 C28.33935,7.76511081 28.8932554,7.86489459 29.3958635,8.06340811 C29.8981203,8.2620973 30.3264176,8.54124595 30.6807554,8.90015135 C31.0349176,9.25905676 31.3117824,9.68858378 31.511877,10.1885568 C31.7112689,10.6885297 31.8114041,11.2334757 31.8114041,11.8232189 L31.8114041,11.8615162 C31.8114041,12.4642595 31.7112689,13.0093811 31.511877,13.4965297 C31.3117824,13.9840297 31.0349176,14.4070568 30.6807554,14.7661378 C30.3264176,15.1250432 29.8981203,15.4006784 29.3958635,15.5930432 C28.8932554,15.7852324 28.33935,15.881327 27.7337959,15.881327 L25.4342014,15.881327 L25.4342014,10.4002459 L22.4584311,10.4002459 L22.4584311,18.5867324 L27.7337959,18.5867324 C28.7901338,18.5867324 29.7595122,18.4126378 30.6421068,18.0649757 C31.5245257,17.7173135 32.2846743,17.2407054 32.922377,16.6349757 C33.5602554,16.0295973 34.0530257,15.314773 34.4008635,14.4899757 C34.7485257,13.6657054 34.9224446,12.7766108 34.9224446,11.8232189 L34.9224446,11.7845703 C34.9224446,10.8313541 34.7485257,9.94577297 34.4008635,9.12747568" id="Fill-15" fill="#FFFFFF"></path>
                    <g id="Group-19" transform="translate(76.770270, 3.135108)">
                        <mask id="mask-6" fill="white">
                            <use xlink:href="#path-5"></use>
                        </mask>
                        <g id="Clip-18"></g>
                        <polygon id="Fill-17" fill="#FFFFFF" mask="url(#mask-6)" points="16.5258635 0.115295946 10.6944851 8.63837703 16.775323 17.5597149 12.2894446 17.5597149 8.37679595 11.5788365 4.4395527 17.5597149 0.0784040541 17.5597149 6.15889054 8.68791757 0.327512162 0.115295946 4.81321486 0.115295946 8.45163378 5.77240405 12.1648905 0.115295946"></polygon>
                    </g>
                </g>
            </g>
        </g>
    </g>
</svg>