<svg height="20" viewBox="0 0 105 20" width="105" xmlns="http://www.w3.org/2000/svg" xmlns:xlink="http://www.w3.org/1999/xlink"><mask id="a" fill="#fff"><path d="m.08046977.04810727h18.73167983v19.34009603h-18.73167983z" fill="#fff" fill-rule="evenodd"/></mask><mask id="b" fill="#fff"><path d="m0 .16675888h7.75290678v14.01693902h-7.75290678z" fill="#fff" fill-rule="evenodd"/></mask><g fill="#fff" fill-rule="evenodd" transform="translate(.666667 .282353)"><path d="m44.2734712 17.4119878c-1.2575988 0-2.2296216-.3782361-2.9158713-1.1354873-.6866439-.7568618-1.0299658-1.7996404-1.0299658-3.1279464v-7.43422855h3.2952598v6.40586265c0 .7712745.1736318 1.3532361.5205013 1.7460796.3468694.3930384.8380051.5889732 1.4739981.5889732.6357959 0 1.1381654-.1959348 1.5069113-.5889732.3683517-.3928435.5528232-.9748051.5528232-1.7460796v-6.40586265h3.2950627v11.48322455h-3.2950627v-1.6280512c-.1882161.2430683-.3939728.4750349-.6178613.6960946-.2244797.2218388-.4737921.4179685-.7479372.5893628-.2749335.1715891-.5782472.3073412-.9107294.4068667-.3326794.0999151-.7083232.1501648-1.1271287.1501648"/><path d="m57.8442459 17.3904856c-.5059169 0-.9647306-.0535607-1.376441-.1604874-.4119075-.1073162-.7664633-.2964343-1.0624848-.5679384-.2964157-.2711147-.5277934-.6246155-.6937389-1.0605024-.1661426-.4354974-.2493124-.9888283-.2493124-1.6603825v-5.44176958h-1.3872808v-2.78496291h1.3872808v-2.93532248h3.2954569v2.93532248h2.7313998v2.78496291h-2.7313998v4.90616238c0 .7428386.3537674 1.1140631 1.0620906 1.1140631.57805 0 1.1200336-.1355573 1.6259506-.4070615v2.6137633c-.3468695.2002198-.7300026.3609019-1.1490051.4820466-.4193967.1213393-.9032402.1821064-1.4525159.1821064"/><path d="m68.0768752 17.454778c-.8671737 0-1.6728568-.1573712-2.4174436-.4713344-.7443898-.3139632-1.3839303-.739138-1.9184246-1.2747453-.5348885-.5356072-.953891-1.1639232-1.2574018-1.8853375-.3035108-.7212195-.4550691-1.4889881-.4550691-2.3031111v-.0426538c0-.8141231.1515583-1.58559226.4550691-2.31401811.3035108-.72862063.7225133-1.36375344 1.2574018-1.90656704.5344943-.5428136 1.1740348-.97129939 1.9184246-1.28565215.7445868-.31396323 1.56446-.47133438 2.4609993-.47133438 1.0981572 0 2.0084924.17139432 2.7313999.51418296.7225133.34278863 1.3585063.81392824 1.907782 1.41400313l-2.0163758 2.14242898c-.3756438-.38563721-.7625215-.69258886-1.1596476-.92124446-.3977174-.22826607-.8927947-.34278864-1.485232-.34278864-.4191996 0-.7985881.08238613-1.1381654.24637933-.3395773.16438274-.635993.38933778-.888853.67486514-.2528599.28611165-.447974.61818814-.5851451.99622944-.1375653.3784309-.2057566.7821814-.2057566 1.2104724v.0430434c0 .4427037.0681913.8567768.2057566 1.2422192.1371711.385832.3362269.7218038.5961819 1.0071364.259955.2859169.5705608.5106772.9320146.6748652.3610595.1643827.766069.2463793 1.2142401.2463793.5492757 0 1.0295717-.1104325 1.4414791-.3320765.4123017-.2212545.8202675-.5172992 1.225277-.889108l1.9292642 1.9283808c-.5636628.6140981-1.2067509 1.1175689-1.9292642 1.5102177-.7229075.3926488-1.6626084.589168-2.8185114.589168"/><path d="m85.6153043 9.76341895c0-1.32830597-.343519-2.37069506-1.0299658-3.12794632-.6864467-.75666697-1.6584696-1.13548736-2.9158713-1.13548736-.4191996 0-.7948435.05024969-1.1271287.15016479-.3326793.10010986-.6361901.23547242-.9105323.40706151-.2747364.17139432-.5242459.36771872-.7479373.58916797-.2242826.22144925-.4302363.45341588-.6178612.69609465v-5.78436349h-3.2952598v15.6395368h3.2952598v-6.4058626c0-.7712745.1842744-1.35304133.5528232-1.74607966.3685488-.39264881.8705241-.58897321 1.5067142-.58897321.635796 0 1.1273257.1963244 1.4741952.58897321.3466724.39303833.5201071.97480516.5201071 1.74607966v5.913883l3.2954569-4.6249199z"/><path d="m37.206144 6.7104966c-.3902281-.906637-.9430513-1.69582993-1.6586666-2.36738403-.7154183-.67116458-1.5682047-1.19605968-2.5581623-1.57449054-.9901546-.37862564-2.0776692-.56793845-3.2627408-.56793845h-5.918263v2.99940058h3.3384215.5750938 2.0047477c.6793517 0 1.3007605.11062724 1.8646204.33071313.5634658.22028065 1.0439588.52976426 1.4414791.92767175.3973232.39790749.7079291.87411103.9324088 1.42841584.2236914.5543048.3360298 1.15846978.3360298 1.81230015v.04245905c0 .66824312-.1123384 1.27260282-.3360298 1.81268972-.2244797.5404764-.5350856 1.0094736-.9324088 1.4075758-.3975203.3979075-.8780133.7034958-1.4414791.9167649-.5638599.2130743-1.1852687.3196114-1.8646204.3196114h-2.5798415v-6.07670767h-3.3384215v9.07610827h5.918263c1.1850716 0 2.2725862-.1930134 3.2627408-.5784558.9899576-.3854425 1.842744-.9138434 2.5581623-1.5853975.7156153-.6711646 1.2684385-1.4636685 1.6586666-2.3780962.3900311-.9138433.5851452-1.8995554.5851452-2.95655197v-.04284858c0-1.05680179-.1951141-2.03861856-.5851452-2.94583985"/><path d="m18.5323481.04810727-6.5420368 9.44928043 6.8218974 9.8908156h-5.0325634l-4.38947527-6.6308177-4.41706718 6.6308177h-4.89263308l6.82150317-9.83589151-6.54203675-9.50420452h5.03236628l4.08182573 6.27186347 4.1657839-6.27186347z" mask="url(#a)" transform="translate(84.746515 .146659)"/><path d="m10.8275497 8.98188033v.00038953c2.2410526 2.26941664 4.2875824 4.93479304 5.5140419 7.88004854 1.3888574-1.5071014 2.2388846-3.5085196 2.2388846-5.7035355v-8.31340349c-1.9972585 1.10822009-6.0203529 3.55526352-7.7529265 6.13650092"/><path d="m3.52462725 17.998098c1.41487262 1.0221333 3.16045374 1.6251297 5.04379721 1.6251297h.00078834.72093663.72113367.0007884c1.8833435 0 3.6289246-.6029964 5.0437972-1.6251297-1.1523555-3.0843187-3.3567503-5.8909007-5.76571927-8.25536323-2.40877186 2.36446253-4.61316667 5.17104453-5.76552218 8.25536323"/><path d="m9.29012972 8.23181594s1.96355708-2.22909997 2.95213498-3.05744093c-.2607433-1.81424782-1.8930006-3.85929367-2.95213498-4.96128123-1.05893726 1.10198756-2.69119455 3.14703341-2.95193789 4.96128123.98857794.82834096 2.95193789 3.05744093 2.95193789 3.05744093"/><path d="m7.75290678 6.3032598c-1.73277059-2.5812374-5.75566793-5.02828083-7.75292649-6.13650092v8.31340354c0 2.19501588.85002725 4.19643408 2.23888467 5.70353548 1.22645944-2.9452555 3.27298922-5.61063197 5.51404182-7.88004857z" mask="url(#b)" transform="translate(0 2.678621)"/></g></svg>