<svg height="58" viewBox="0 0 58 58" width="58" xmlns="http://www.w3.org/2000/svg"><g fill="#0072cf"><path d="m29.1 51c0-.8.6-1.5 1.4-1.6s1.5.6 1.6 1.4-.6 1.5-1.4 1.6h-.1c-.8 0-1.5-.6-1.5-1.4zm-4.8 1c-.8-.2-1.3-1-1.2-1.8.2-.8 1-1.3 1.8-1.2.8.2 1.3 1 1.2 1.8-.1.7-.8 1.2-1.5 1.2-.1.1-.2 0-.3 0zm10.7-1.8c-.3-.8.1-1.6.9-1.9s1.6.1 1.9.9-.1 1.6-.9 1.9c-.2.1-.3.1-.5.1-.6 0-1.2-.4-1.4-1zm-16.7-.3c-.7-.4-1-1.3-.6-2s1.3-1 2-.6 1 1.3.6 2c-.3.5-.8.8-1.3.8-.3 0-.5-.1-.7-.2zm22.2-2.1c-.5-.7-.3-1.6.3-2.1.7-.5 1.6-.3 2.1.3.5.7.3 1.6-.4 2.1-.3.2-.6.3-.9.3s-.8-.2-1.1-.6zm-27.5-1.6c-.6-.6-.6-1.5-.1-2.1.6-.6 1.5-.6 2.1-.1.6.6.6 1.5.1 2.1-.3.3-.7.5-1.1.5-.3 0-.7-.1-1-.4zm32.2-2.2c-.7-.5-.8-1.5-.2-2.1.5-.6 1.5-.8 2.1-.2.6.5.7 1.5.2 2.1-.3.4-.7.5-1.2.5-.3 0-.7-.1-.9-.3zm-36.2-2.7c-.4-.7-.2-1.6.5-2.1.7-.4 1.6-.2 2.1.5.4.7.2 1.6-.5 2.1-.2.1-.5.2-.8.2-.6 0-1.1-.2-1.3-.7zm39.6-2.2c-.8-.3-1.1-1.2-.8-2s1.2-1.1 2-.8 1.1 1.2.8 2c-.2.6-.8.9-1.4.9-.2 0-.4 0-.6-.1zm-42.2-3.7c-.2-.8.2-1.6 1-1.8s1.6.2 1.9 1c.2.8-.2 1.6-1 1.9-.1 0-.3.1-.4.1-.7-.1-1.3-.5-1.5-1.2zm44.2-2c-.8-.1-1.4-.9-1.3-1.7s.9-1.4 1.7-1.3 1.4.9 1.3 1.7-.8 1.3-1.5 1.3c-.1.1-.1 0-.2 0zm-45.1-4.3c0-.1 0-.1 0 0 0-.9.7-1.6 1.5-1.6s1.5.7 1.5 1.5c0 .8-.7 1.5-1.5 1.5-.8.1-1.5-.6-1.5-1.4zm43.8-2.9c-.1-.8.5-1.6 1.3-1.7s1.6.5 1.7 1.3-.5 1.6-1.3 1.7c-.1 0-.1 0-.2 0-.8 0-1.4-.6-1.5-1.3zm-41.9-1.7c-.8-.2-1.3-1-1-1.9.2-.8 1-1.3 1.8-1 .8.2 1.3 1.1 1 1.9-.2.7-.8 1.1-1.4 1.1-.1 0-.3-.1-.4-.1zm40.4-3.7c-.3-.8 0-1.6.8-2 .8-.3 1.7 0 2 .8s0 1.6-.8 2c-.2.1-.4.1-.6.1-.6 0-1.2-.3-1.4-.9zm-38.4-2c-.7-.4-.9-1.3-.5-2.1.4-.7 1.4-.9 2.1-.5s.9 1.4.5 2.1c-.3.5-.8.7-1.3.7-.3.1-.5 0-.8-.2zm35.5-2.8c-.5-.6-.4-1.6.2-2.1s1.6-.4 2.1.2.4 1.6-.2 2.1c-.3.2-.6.3-1 .3-.4.1-.8-.1-1.1-.5zm-32-2.1c-.6-.6-.5-1.5.1-2.1s1.6-.5 2.1.1c.6.6.5 1.6-.1 2.1-.3.3-.7.4-1 .4-.4 0-.8-.1-1.1-.5zm27.9-1.7c-.7-.5-.8-1.4-.4-2.1.5-.7 1.4-.8 2.1-.4.7.5.8 1.4.4 2.1-.3.4-.8.6-1.2.6-.3.1-.6 0-.9-.2zm-23.3-2c-.4-.7-.1-1.6.6-2s1.6-.1 2 .6.1 1.6-.6 2c-.2.1-.5.2-.7.2-.5 0-1-.3-1.3-.8zm18.3-.5c-.8-.3-1.2-1.1-.9-1.9s1.1-1.2 1.9-.9 1.2 1.1.9 1.9c-.2.6-.8 1-1.4 1-.1 0-.3-.1-.5-.1zm-12.8-1.9c-.2-.8.3-1.6 1.2-1.8.8-.2 1.6.4 1.8 1.2s-.4 1.6-1.2 1.8c-.1 0-.2 0-.3 0-.7 0-1.3-.5-1.5-1.2zm7.4.7c-.8-.1-1.5-.8-1.4-1.6 0-.8.8-1.4 1.6-1.4.8 0 1.5.8 1.4 1.6s-.7 1.4-1.6 1.4z"/><path d="m29 57.5c-15.7 0-28.5-12.8-28.5-28.5s12.8-28.5 28.5-28.5 28.5 12.8 28.5 28.5-12.8 28.5-28.5 28.5zm0-54c-14.1 0-25.5 11.4-25.5 25.5s11.4 25.5 25.5 25.5 25.5-11.4 25.5-25.5-11.4-25.5-25.5-25.5z"/><path d="m38 27.5h-7.5v-7.5c0-.8-.7-1.5-1.5-1.5s-1.5.7-1.5 1.5v7.5h-7.5c-.8 0-1.5.7-1.5 1.5s.7 1.5 1.5 1.5h7.5v7.5c0 .8.7 1.5 1.5 1.5s1.5-.7 1.5-1.5v-7.5h7.5c.8 0 1.5-.7 1.5-1.5s-.7-1.5-1.5-1.5z"/></g></svg>