<svg height="104" viewBox="0 0 125 104" width="125" xmlns="http://www.w3.org/2000/svg"><g fill="#526179"><path d="m115.486386 42.480198h-2.368812v-4.7425742c0-7.6856436-5.389851-14.125-12.586633-15.759901l-.014852-9.3391089c0-6.86881192-5.591584-12.45668321-12.4628712-12.45668321h-.585396l-65.9764852 21.38242571h-1.2363861c-8.9158416 0-16.16831684 7.2549505-16.16831684 16.1732674v25.6621287c2.22772278-1.7054456 4.72772278-3.0668317 7.42574254-4.0086634v-21.6534653c0-4.8316832 3.9158416-8.7475248 8.7425743-8.7475248h76.6930693c4.8316832 0 8.7425742 3.9158416 8.7425742 8.7475248v4.7425742h-13.5061881c-4.9913366 0-9.0519802 4.0606436-9.0519802 9.0507426v17.3811881c0 4.9925743 4.0606436 9.0532178 9.0519802 9.0532178h13.5074261v4.7425743c0 4.8304455-3.910891 8.7475247-8.7425746 8.7475247h-50.7413366c-.6980198 2.6584159-1.8007426 5.1559406-3.230198 7.4257426h53.9715346c8.9170796 0 16.1683166-7.2549505 16.1683166-16.1732673v-4.7425743h2.368812c4.991337 0 9.05198-4.0606435 9.05198-9.0532178v-17.3811881c0-4.990099-4.060643-9.0507426-9.05198-9.0507426zm1.626238 26.4319307c0 .8985149-.730198 1.6274753-1.626238 1.6274753h-23.3019801c-.8972772 0-1.6262376-.7301981-1.6262376-1.6274753v-17.3811881c0-.8960396.730198-1.625 1.6262376-1.625h23.3019801c.897277 0 1.626238.7289604 1.626238 1.625z"/><path d="m20.3180693 65.3217822c10.664604 0 19.3403465 8.6757426 19.3403465 19.3391089 0 10.6621287-8.6757425 19.3378709-19.3403465 19.3378709-10.66212871 0-19.33787128-8.6757422-19.33787128-19.3378709 0-10.6633663 8.67574257-19.3391089 19.33787128-19.3391089zm7.0039285 16.3443491v-1.8367642c.0015084-2.9866914-1.9390157-5.6274787-4.7897832-6.5182383-2.8507674-.8907596-5.949582.1754204-7.648784 2.6316453-.462574.6674863-.2964599 1.5835812.3710264 2.0461553s1.5835812.2964599 2.0461553-.3710264c.9667218-1.3969838 2.7287432-2.0042159 4.3508658-1.499406 1.6221226.50481 2.7284101 2.0046693 2.731697 3.7035231v1.2085908h-8.2470713c-2.8403672 0-5.1429397 2.3025726-5.1429397 5.1429398v5.1429397c0 2.8403672 2.3025725 5.1429398 5.1429397 5.1429398h8.7209564c2.8403672 0 5.1429398-2.3025726 5.1429398-5.1429398v-5.1429397c-.0023124-1.8788502-1.0290105-3.6069141-2.6780022-4.5074194zm-.2608205 9.6613797c0 1.2173002-.9868168 2.2041171-2.2041171 2.2041171h-8.7209564c-1.2173002 0-2.204117-.9868169-2.204117-2.2041171v-5.1429397c0-1.2173003.9868168-2.2041171 2.204117-2.2041171h8.7209564c.5845682 0 1.145194.2322188 1.5585461.645571.4133522.4133521.645571.9739779.645571 1.5585461z"/></g></svg>