<svg height="21" viewBox="0 0 25 21" width="25" xmlns="http://www.w3.org/2000/svg"><path d="m23.0972772 8.4960396h-.4737623v-.94851485c0-1.53712871-1.0779703-2.825-2.5173268-3.1519802l-.0029703-1.86782178c0-1.37376237-1.1183168-2.49133663-2.4925742-2.49133663h-.1170792l-13.19529707 4.27648515h-.24727723c-1.78316832 0-3.23366337 1.4509901-3.23366337 3.23465346v5.13242575c.44554456-.3410891.94554456-.6133663 1.48514852-.8017327v-4.33069305c0-.96633663.78316831-1.74950495 1.74851485-1.74950495h15.3386139c.9663366 0 1.7485148.78316832 1.7485148 1.74950495v.94851485h-2.7012376c-.9982673 0-1.8103961.81212872-1.8103961 1.8101485v3.4762376c0 .9985149.8121288 1.8106436 1.8103961 1.8106436h2.7014851v.9485149c0 .9660891-.7821782 1.7495049-1.7485148 1.7495049h-10.14826734c-.13960396.5316832-.36014852 1.0311881-.64603961 1.4851485h10.79430695c1.7834158 0 3.2336634-1.4509901 3.2336634-3.2346534v-.9485149h.4737623c.9982674 0 1.8103961-.8121287 1.8103961-1.8106436v-3.4762376c0-.99801978-.8121287-1.8101485-1.8103961-1.8101485zm.3252476 5.2863861c0 .179703-.1460397.3254951-.3252476.3254951h-4.660396c-.1794555 0-.3252475-.1460396-.3252475-.3254951v-3.4762376c0-.1792079.1460396-.32499998.3252475-.32499998h4.660396c.1794555 0 .3252476.14579208.3252476.32499998zm-19.39090855-.7180693c-2.11196307 0-3.83993285 1.7279698-3.83993285 3.8399329s1.72796978 3.8399328 3.83993285 3.8399328 3.83993285-1.7279697 3.83993285-3.8399328-1.72796978-3.8399329-3.83993285-3.8399329zm.4799916 6.2398909h-.95998321v-.9599832h.95998321zm0-1.9199664h-.95998321v-2.8799496h.95998321z" fill="#7c7c8c"/></svg>